SplineFontDB: 3.0
FontName: Oxygen-Light
FullName: Oxygen Light
FamilyName: Oxygen
Weight: Light
Copyright: 2012 vernon adams
Version: 
ItalicAngle: 0
UnderlinePosition: 0
UnderlineWidth: 0
Ascent: 1638
Descent: 410
sfntRevision: 0x00003333
LayerCount: 2
Layer: 0 1 "Back"  1
Layer: 1 1 "Fore"  0
XUID: [1021 14 500265001 587545]
FSType: 0
OS2Version: 1
OS2_WeightWidthSlopeOnly: 0
OS2_UseTypoMetrics: 1
CreationTime: 1336048760
ModificationTime: 1337245589
PfmFamily: 17
TTFWeight: 300
TTFWidth: 5
LineGap: 0
VLineGap: 0
Panose: 2 0 4 3 0 0 0 0 0 4
OS2TypoAscent: 2082
OS2TypoAOffset: 0
OS2TypoDescent: -690
OS2TypoDOffset: 0
OS2TypoLinegap: 0
OS2WinAscent: 2082
OS2WinAOffset: 0
OS2WinDescent: 690
OS2WinDOffset: 0
HheadAscent: 2082
HheadAOffset: 0
HheadDescent: -690
HheadDOffset: 0
OS2SubXSize: 0
OS2SubYSize: 0
OS2SubXOff: 0
OS2SubYOff: 0
OS2SupXSize: 0
OS2SupYSize: 0
OS2SupXOff: 0
OS2SupYOff: 0
OS2StrikeYSize: 0
OS2StrikeYPos: 0
OS2Vendor: 'newt'
OS2CodePages: 00000093.00000000
OS2UnicodeRanges: a000006f.4000204b.00000000.00000000
Lookup: 4 0 1 "'liga' Standard Ligatures lookup 0"  {"'liga' Standard Ligatures lookup 0 subtable"  } ['liga' ('DFLT' <'dflt' > 'cyrl' <'dflt' > 'grek' <'dflt' > 'latn' <'dflt' > ) ]
Lookup: 258 0 0 "'kern' Horizontal Kerning in Latin lookup 0"  {"'kern' Horizontal Kerning in Latin lookup 0 per glyph data 0"  "'kern' Horizontal Kerning in Latin lookup 0 kerning class 1"  } ['kern' ('DFLT' <'dflt' > 'latn' <'dflt' > ) ]
MarkAttachClasses: 1
DEI: 91125
KernClass2: 26 21 "'kern' Horizontal Kerning in Latin lookup 0 kerning class 1" 
 89 A Agrave Aacute Acircumflex Atilde Adieresis Aring Amacron Abreve Aogonek uni0200 uni0202
 1 B
 111 D O Q Eth Ograve Oacute Ocircumflex Otilde Odieresis Oslash Dcaron Omacron Obreve Ohungarumlaut uni020C uni020E
 1 F
 1 K
 33 L Lacute Lcommaaccent Ldot Lcaron
 1 P
 44 R Racute Rcommaaccent Rcaron uni0210 uni0212
 16 T Tcaron uni021A

StartChar: .notdef
Encoding: 65536 -1 0
Width: 748
Flags: W
LayerCount: 2
Fore
SplineSet
68 0 m 1,0,-1
 68 1365 l 1,1,-1
 612 1365 l 1,2,-1
 612 0 l 1,3,-1
 68 0 l 1,0,-1
136 68 m 1,4,-1
 544 68 l 1,5,-1
 544 1297 l 1,6,-1
 136 1297 l 1,7,-1
 136 68 l 1,4,-1
EndSplineSet
EndChar

StartChar: exclam
Encoding: 33 33 4
Width: 650
GlyphClass: 2
Flags: W
LayerCount: 2
Fore
SplineSet
292 419 m 1,0,-1
 233 1425 l 1,1,-1
 233 1514 l 1,2,-1
 410 1514 l 1,3,-1
 410 1425 l 1,4,-1
 358 419 l 1,5,-1
 292 419 l 1,0,-1
418 27.5 m 128,-1,7
 387 -8 387 -8 325.5 -8 c 128,-1,8
 264 -8 264 -8 233 27.5 c 128,-1,9
 202 63 202 63 202 110.5 c 128,-1,10
 202 158 202 158 233 193 c 128,-1,11
 264 228 264 228 325.5 228 c 128,-1,12
 387 228 387 228 418 193 c 128,-1,13
 449 158 449 158 449 110.5 c 128,-1,6
 449 63 449 63 418 27.5 c 128,-1,7
EndSplineSet
EndChar

StartChar: quotedbl
Encoding: 34 34 5
Width: 676
GlyphClass: 2
Flags: W
LayerCount: 2
Fore
SplineSet
168 1034 m 1,0,-1
 153 1514 l 1,1,-1
 271 1514 l 1,2,-1
 239 1034 l 1,3,-1
 168 1034 l 1,0,-1
427 1034 m 1,4,-1
 412 1514 l 1,5,-1
 530 1514 l 1,6,-1
 498 1034 l 1,7,-1
 427 1034 l 1,4,-1
EndSplineSet
EndChar

StartChar: numbersign
Encoding: 35 35 6
Width: 1108
GlyphClass: 2
Flags: W
LayerCount: 2
Fore
SplineSet
180 -1 m 1,0,-1
 254 438 l 1,1,-1
 109 438 l 1,2,-1
 119 529 l 1,3,-1
 270 529 l 1,4,-1
 348 975 l 1,5,-1
 185 975 l 1,6,-1
 195 1065 l 1,7,-1
 363 1065 l 1,8,-1
 437 1488 l 1,9,-1
 541 1488 l 1,10,-1
 467 1065 l 1,11,-1
 737 1065 l 1,12,-1
 811 1488 l 1,13,-1
 915 1488 l 1,14,-1
 841 1065 l 1,15,-1
 984 1065 l 1,16,-1
 969 976 l 1,17,-1
 826 976 l 1,18,-1
 747 529 l 1,19,-1
 902 529 l 1,20,-1
 892 438 l 1,21,-1
 732 438 l 1,22,-1
 655 -1 l 1,23,-1
 550 -1 l 1,24,-1
 628 438 l 1,25,-1
 358 438 l 1,26,-1
 281 -1 l 1,27,-1
 180 -1 l 1,0,-1
374 529 m 1,28,-1
 644 529 l 1,29,-1
 721 976 l 1,30,-1
 452 976 l 1,31,-1
 374 529 l 1,28,-1
EndSplineSet
EndChar

StartChar: dollar
Encoding: 36 36 7
Width: 1247
GlyphClass: 2
Flags: W
LayerCount: 2
Fore
SplineSet
679 -23 m 1,0,-1
 679 -213 l 1,1,-1
 592 -213 l 1,2,-1
 592 -22 l 1,3,4
 427 -15 427 -15 299.5 23.5 c 128,-1,5
 172 62 172 62 99 105 c 1,6,-1
 147 196 l 1,7,8
 332 96 332 96 592 84 c 1,9,-1
 592 737 l 1,10,-1
 499 756 l 1,11,12
 298 796 298 796 197.5 882 c 128,-1,13
 97 968 97 968 97 1127 c 0,14,15
 97 1404 97 1404 389 1484 c 0,16,17
 478 1508 478 1508 592 1513 c 1,18,-1
 592 1741 l 1,19,-1
 679 1741 l 1,20,-1
 679 1514 l 1,21,22
 799 1511 799 1511 912 1480.5 c 128,-1,23
 1025 1450 1025 1450 1098 1413 c 1,24,-1
 1065 1315 l 1,25,26
 1008 1346 1008 1346 902 1375 c 128,-1,27
 796 1404 796 1404 679 1407 c 1,28,-1
 679 838 l 1,29,-1
 761 821 l 2,30,31
 956 780 956 780 1054 696 c 0,32,33
 1160 605 1160 605 1159.5 409.5 c 128,-1,34
 1159 214 1159 214 1027.5 98 c 128,-1,35
 896 -18 896 -18 679 -23 c 1,0,-1
592 856 m 1,36,-1
 592 1406 l 1,37,38
 410 1397 410 1397 319 1326 c 128,-1,39
 228 1255 228 1255 228 1114 c 0,40,41
 228 1019 228 1019 295 961.5 c 128,-1,42
 362 904 362 904 493 876 c 1,43,-1
 592 856 l 1,36,-1
679 720 m 1,44,-1
 679 82 l 1,45,46
 846 85 846 85 935.5 173.5 c 128,-1,47
 1025 262 1025 262 1025 422 c 0,48,49
 1025 536 1025 536 973 602 c 0,50,51
 917 673 917 673 739 708 c 2,52,-1
 679 720 l 1,44,-1
EndSplineSet
EndChar

StartChar: percent
Encoding: 37 37 8
Width: 1748
GlyphClass: 2
Flags: W
LayerCount: 2
Fore
SplineSet
645.5 826.5 m 128,-1,1
 557 719 557 719 392.5 719 c 128,-1,2
 228 719 228 719 139 826 c 128,-1,3
 50 933 50 933 50 1104.5 c 128,-1,4
 50 1276 50 1276 137.5 1382 c 128,-1,5
 225 1488 225 1488 392 1488 c 128,-1,6
 559 1488 559 1488 646.5 1382 c 128,-1,7
 734 1276 734 1276 734 1105 c 128,-1,0
 734 934 734 934 645.5 826.5 c 128,-1,1
393 1404 m 0,8,9
 157 1404 157 1404 157 1103 c 0,10,11
 157 880 157 880 298 820 c 0,12,13
 340 802 340 802 399 802 c 128,-1,14
 458 802 458 802 505.5 828.5 c 0,15,16
 552 854 552 854 578 900 c 0,17,18
 626 987 626 987 627 1103 c 0,19,20
 628 1224 628 1224 582 1308 c 0,21,22
 530 1404 530 1404 393 1404 c 0,8,9
1611.5 107.5 m 128,-1,24
 1523 0 1523 0 1358.5 0 c 128,-1,25
 1194 0 1194 0 1105 107 c 128,-1,26
 1016 214 1016 214 1016 385.5 c 128,-1,27
 1016 557 1016 557 1103.5 663 c 128,-1,28
 1191 769 1191 769 1358 769 c 128,-1,29
 1525 769 1525 769 1612.5 663 c 128,-1,30
 1700 557 1700 557 1700 386 c 128,-1,23
 1700 215 1700 215 1611.5 107.5 c 128,-1,24
1359 685 m 0,31,32
 1123 685 1123 685 1123 384 c 0,33,34
 1123 161 1123 161 1264 101 c 0,35,36
 1306 83 1306 83 1365 83 c 128,-1,37
 1424 83 1424 83 1471.5 109.5 c 0,38,39
 1518 136 1518 136 1544 182 c 0,40,41
 1592 269 1592 269 1593 384 c 0,42,43
 1594 504 1594 504 1548 588 c 0,44,45
 1496 684 1496 684 1359 685 c 0,31,32
404 0 m 1,46,-1
 1219 1488 l 1,47,-1
 1346 1488 l 1,48,-1
 524 0 l 1,49,-1
 404 0 l 1,46,-1
EndSplineSet
EndChar

StartChar: ampersand
Encoding: 38 38 9
Width: 1496
GlyphClass: 2
Flags: W
LayerCount: 2
Fore
SplineSet
638 -22 m 0,0,1
 262 -22 262 -22 168 224 c 0,2,3
 141 294 141 294 141 380 c 0,4,5
 141 541 141 541 227.5 650 c 128,-1,6
 314 759 314 759 487 849 c 1,7,8
 394 962 394 962 359 1019 c 0,9,10
 302 1111 302 1111 302 1213 c 0,11,12
 302 1346 302 1346 400.5 1430 c 128,-1,13
 499 1514 499 1514 664.5 1514 c 128,-1,14
 830 1514 830 1514 928.5 1432 c 128,-1,15
 1027 1350 1027 1350 1027 1217.5 c 128,-1,16
 1027 1085 1027 1085 931.5 994 c 128,-1,17
 836 903 836 903 659 821 c 1,18,-1
 1168 288 l 1,19,20
 1240 366 1240 366 1284 471 c 1,21,-1
 1356 414 l 1,22,23
 1316 318 1316 318 1235 216 c 1,24,-1
 1390 62 l 1,25,-1
 1315 -6 l 1,26,-1
 1161 147 l 1,27,28
 934 -22 934 -22 638 -22 c 0,0,1
488 92 m 0,29,30
 552 74 552 74 655 74 c 128,-1,31
 758 74 758 74 886 113.5 c 128,-1,32
 1014 153 1014 153 1089 219 c 1,33,-1
 564 773 l 1,34,35
 262 607 262 607 262 376 c 0,36,37
 262 154 262 154 488 92 c 0,29,30
601 891 m 1,38,39
 749 967 749 967 783 993.5 c 128,-1,40
 817 1020 817 1020 844.5 1046 c 128,-1,41
 872 1072 872 1072 886 1096 c 0,42,43
 920 1156 920 1156 919 1217 c 0,44,45
 919 1310 919 1310 853 1362 c 128,-1,46
 787 1414 787 1414 690 1414 c 0,47,48
 413 1414 413 1414 413 1214 c 0,49,50
 413 1139 413 1139 471 1047.5 c 128,-1,51
 529 956 529 956 601 891 c 1,38,39
EndSplineSet
EndChar

StartChar: quotesingle
Encoding: 39 39 10
Width: 415
GlyphClass: 2
Flags: W
LayerCount: 2
Fore
SplineSet
152 1020 m 1,0,-1
 137 1514 l 1,1,-1
 267 1514 l 1,2,-1
 247 1020 l 1,3,-1
 152 1020 l 1,0,-1
EndSplineSet
EndChar

StartChar: parenleft
Encoding: 40 40 11
Width: 590
GlyphClass: 2
Flags: W
LayerCount: 2
Fore
SplineSet
379 -239 m 1,0,1
 252 -63 252 -63 180 166 c 128,-1,2
 108 395 108 395 108 627 c 0,3,4
 108 1111 108 1111 376 1514 c 1,5,-1
 495 1514 l 1,6,7
 355 1277 355 1277 298.5 1070 c 128,-1,8
 242 863 242 863 242 633 c 0,9,10
 242 182 242 182 495 -239 c 1,11,-1
 379 -239 l 1,0,1
EndSplineSet
EndChar

StartChar: parenright
Encoding: 41 41 12
Width: 590
GlyphClass: 2
Flags: W
LayerCount: 2
Fore
SplineSet
95 -239 m 1,0,1
 348 183 348 183 348 633 c 0,2,3
 348 862 348 862 291 1069.5 c 128,-1,4
 234 1277 234 1277 94 1514 c 1,5,-1
 212 1514 l 1,6,7
 482 1104 482 1104 482 627 c 0,8,9
 482 394 482 394 409.5 166.5 c 128,-1,10
 337 -61 337 -61 210 -239 c 1,11,-1
 95 -239 l 1,0,1
EndSplineSet
EndChar

StartChar: asterisk
Encoding: 42 42 13
Width: 1106
GlyphClass: 2
Flags: W
LayerCount: 2
Fore
SplineSet
352 573 m 1,0,-1
 218 655 l 1,1,-1
 468 1005 l 1,2,-1
 99 1092 l 1,3,-1
 143 1240 l 1,4,-1
 506 1077 l 1,5,-1
 468 1514 l 1,6,-1
 635 1514 l 1,7,-1
 598 1077 l 1,8,-1
 962 1240 l 1,9,-1
 1007 1093 l 1,10,-1
 633 1005 l 1,11,12
 652 976 652 976 738.5 862.5 c 128,-1,13
 825 749 825 749 888 655 c 1,14,15
 853 630 853 630 821 614 c 128,-1,16
 789 598 789 598 756 574 c 1,17,-1
 548 961 l 1,18,-1
 352 573 l 1,0,-1
EndSplineSet
EndChar

StartChar: plus
Encoding: 43 43 14
Width: 1101
GlyphClass: 2
Flags: W
LayerCount: 2
Fore
SplineSet
500 157 m 1,0,-1
 500 600 l 1,1,-1
 108 600 l 1,2,-1
 108 700 l 1,3,-1
 502 700 l 1,4,-1
 502 1135 l 1,5,-1
 610 1135 l 1,6,-1
 610 700 l 1,7,-1
 992 700 l 1,8,-1
 992 600 l 1,9,-1
 610 600 l 1,10,-1
 610 157 l 1,11,-1
 500 157 l 1,0,-1
EndSplineSet
EndChar

StartChar: comma
Encoding: 44 44 15
Width: 504
GlyphClass: 2
Flags: W
LayerCount: 2
Fore
SplineSet
130 -275 m 1,0,-1
 210 235 l 1,1,-1
 339 235 l 1,2,-1
 339 194 l 1,3,4
 298 16 298 16 202 -275 c 1,5,-1
 130 -275 l 1,0,-1
EndSplineSet
EndChar

StartChar: hyphen
Encoding: 45 45 16
Width: 670
GlyphClass: 2
Flags: W
LayerCount: 2
Fore
SplineSet
93 531 m 1,0,-1
 93 641 l 1,1,-1
 577 641 l 1,2,-1
 577 531 l 1,3,-1
 93 531 l 1,0,-1
EndSplineSet
EndChar

StartChar: period
Encoding: 46 46 17
Width: 517
GlyphClass: 2
Flags: W
LayerCount: 2
Fore
SplineSet
372 23 m 128,-1,1
 345 -8 345 -8 291 -8 c 128,-1,2
 237 -8 237 -8 210 23 c 128,-1,3
 183 54 183 54 183 95.5 c 128,-1,4
 183 137 183 137 210 168 c 128,-1,5
 237 199 237 199 291 199 c 128,-1,6
 345 199 345 199 372 168 c 128,-1,7
 399 137 399 137 399 95.5 c 128,-1,0
 399 54 399 54 372 23 c 128,-1,1
EndSplineSet
EndChar

StartChar: slash
Encoding: 47 47 18
Width: 953
GlyphClass: 2
Flags: W
LayerCount: 2
Fore
SplineSet
49 -174 m 1,0,-1
 750 1514 l 1,1,-1
 863 1514 l 1,2,-1
 161 -174 l 1,3,-1
 49 -174 l 1,0,-1
EndSplineSet
EndChar

StartChar: zero
Encoding: 48 48 19
Width: 1216
GlyphClass: 2
Flags: W
LayerCount: 2
Fore
SplineSet
596 -24 m 0,0,1
 472 -24 472 -24 378.5 32 c 128,-1,2
 285 88 285 88 227 191 c 0,3,4
 111 397 111 397 111 756 c 128,-1,5
 111 1115 111 1115 235.5 1314.5 c 128,-1,6
 360 1514 360 1514 596.5 1514 c 128,-1,7
 833 1514 833 1514 956 1315.5 c 128,-1,8
 1079 1117 1079 1117 1079 748 c 0,9,10
 1078 398 1078 398 964 192 c 0,11,12
 844 -24 844 -24 596 -24 c 0,0,1
596 83 m 128,-1,14
 764 83 764 83 853.5 261.5 c 128,-1,15
 943 440 943 440 943 750 c 128,-1,16
 943 1060 943 1060 854.5 1233.5 c 128,-1,17
 766 1407 766 1407 597 1407 c 128,-1,18
 428 1407 428 1407 339.5 1232.5 c 128,-1,19
 251 1058 251 1058 251 748.5 c 128,-1,20
 251 439 251 439 339.5 261 c 128,-1,13
 428 83 428 83 596 83 c 128,-1,14
EndSplineSet
EndChar

StartChar: one
Encoding: 49 49 20
Width: 599
GlyphClass: 2
Flags: W
LayerCount: 2
Fore
SplineSet
274 0 m 1,0,-1
 274 1356 l 1,1,2
 189 1295 189 1295 34 1241 c 1,3,-1
 34 1349 l 1,4,5
 244 1446 244 1446 297 1488 c 1,6,-1
 402 1488 l 1,7,-1
 402 0 l 1,8,-1
 274 0 l 1,0,-1
EndSplineSet
EndChar

StartChar: two
Encoding: 50 50 21
Width: 1144
GlyphClass: 2
Flags: W
LayerCount: 2
Fore
SplineSet
132 0 m 1,0,-1
 102 127 l 1,1,-1
 621 731 l 1,2,3
 723 852 723 852 773 941.5 c 128,-1,4
 823 1031 823 1031 823 1116 c 0,5,6
 823 1257 823 1257 756 1332 c 0,7,8
 688 1407 688 1407 574 1407 c 0,9,10
 336 1407 336 1407 220 1297 c 1,11,-1
 173 1394 l 1,12,13
 298 1514 298 1514 561 1514 c 0,14,15
 752 1514 752 1514 862.5 1409 c 128,-1,16
 973 1304 973 1304 973 1133 c 0,17,18
 973 1018 973 1018 914.5 906.5 c 128,-1,19
 856 795 856 795 722 640 c 2,20,-1
 272 123 l 1,21,-1
 985 123 l 1,22,-1
 977 0 l 1,23,-1
 132 0 l 1,0,-1
EndSplineSet
EndChar

StartChar: three
Encoding: 51 51 22
Width: 1115
GlyphClass: 2
Flags: W
LayerCount: 2
Fore
SplineSet
534 1407 m 0,0,1
 321 1407 321 1407 203 1302 c 1,2,-1
 157 1406 l 1,3,4
 283 1514 283 1514 569 1514 c 0,5,6
 718 1514 718 1514 828 1431 c 0,7,8
 948 1341 948 1341 948 1166 c 0,9,10
 948 883 948 883 687 804 c 1,11,12
 990 726 990 726 995 410 c 0,13,14
 995 406 995 406 995 401 c 0,15,16
 996 214 996 214 870 96 c 0,17,18
 742 -24 742 -24 532 -24 c 0,19,20
 401 -24 401 -24 298 12.5 c 128,-1,21
 195 49 195 49 156 86 c 1,22,-1
 203 189 l 1,23,24
 339 83 339 83 509 83 c 128,-1,25
 679 83 679 83 772.5 166.5 c 128,-1,26
 866 250 866 250 866 404 c 0,27,28
 866 641 866 641 660 709 c 0,29,30
 551 745 551 745 384 745 c 0,31,32
 375 745 375 745 366 745 c 1,33,-1
 366 857 l 1,34,-1
 410 857 l 1,35,36
 607 864 607 864 695 914 c 0,37,38
 783 964 783 964 810 1042 c 0,39,40
 826 1088 826 1088 826 1147 c 0,41,42
 826 1407 826 1407 534 1407 c 0,0,1
EndSplineSet
EndChar

StartChar: four
Encoding: 52 52 23
Width: 1192
GlyphClass: 2
Flags: W
LayerCount: 2
Fore
SplineSet
798 0 m 1,0,-1
 798 402 l 1,1,-1
 116 402 l 1,2,-1
 116 538 l 1,3,-1
 802 1488 l 1,4,-1
 922 1488 l 1,5,-1
 922 512 l 1,6,-1
 1108 512 l 1,7,-1
 1093 402 l 1,8,-1
 922 402 l 1,9,-1
 922 0 l 1,10,-1
 798 0 l 1,0,-1
253 512 m 1,11,-1
 798 512 l 1,12,-1
 798 1281 l 1,13,-1
 253 512 l 1,11,-1
EndSplineSet
EndChar

StartChar: five
Encoding: 53 53 24
Width: 1195
GlyphClass: 2
Flags: W
LayerCount: 2
Fore
SplineSet
930.5 115 m 128,-1,1
 794 -24 794 -24 545.5 -24 c 128,-1,2
 297 -24 297 -24 129 111 c 1,3,-1
 174 207 l 1,4,5
 328 83 328 83 569 83 c 0,6,7
 732 83 732 83 830 192 c 128,-1,8
 928 301 928 301 928 463.5 c 128,-1,9
 928 626 928 626 843.5 724.5 c 128,-1,10
 759 823 759 823 634 823 c 0,11,12
 543 823 543 823 479.5 798 c 128,-1,13
 416 773 416 773 335 711 c 1,14,-1
 210 720 l 1,15,-1
 244 1488 l 1,16,-1
 1005 1488 l 1,17,-1
 992 1377 l 1,18,-1
 353 1377 l 1,19,-1
 323 832 l 1,20,21
 450 928 450 928 598 930 c 0,22,23
 604 930 604 930 610 931 c 0,24,25
 751 930 751 930 853 870 c 0,26,27
 959 808 959 808 1013 706 c 128,-1,28
 1067 604 1067 604 1067 483 c 0,29,0
 1067 254 1067 254 930.5 115 c 128,-1,1
EndSplineSet
EndChar

StartChar: six
Encoding: 54 54 25
Width: 1196
GlyphClass: 2
Flags: W
LayerCount: 2
Fore
SplineSet
853 40.5 m 128,-1,1
 742 -24 742 -24 617.5 -24 c 128,-1,2
 493 -24 493 -24 400 18 c 128,-1,3
 307 60 307 60 247 130 c 0,4,5
 121 276 121 276 121 473 c 0,6,7
 121 584 121 584 146.5 654.5 c 0,8,9
 172 724 172 724 212 788 c 0,10,11
 398 1079 398 1079 712 1418 c 1,12,-1
 775 1488 l 1,13,-1
 912 1488 l 1,14,-1
 387 849 l 1,15,16
 505 916 505 916 646 916 c 0,17,18
 821 916 821 916 952 781 c 0,19,20
 1012 719 1012 719 1048 630.5 c 128,-1,21
 1084 542 1084 542 1084 430 c 128,-1,22
 1084 318 1084 318 1024 211.5 c 128,-1,0
 964 105 964 105 853 40.5 c 128,-1,1
602 83 m 128,-1,24
 706 83 706 83 788.5 136 c 128,-1,25
 871 189 871 189 913 270.5 c 128,-1,26
 955 352 955 352 955 447 c 128,-1,27
 955 542 955 542 915 625 c 128,-1,28
 875 708 875 708 794.5 760.5 c 128,-1,29
 714 813 714 813 607 813 c 0,30,31
 439 813 439 813 346 708 c 128,-1,32
 253 603 253 603 253 448 c 0,33,34
 253 357 253 357 293.5 274.5 c 128,-1,35
 334 192 334 192 416 137.5 c 128,-1,23
 498 83 498 83 602 83 c 128,-1,24
EndSplineSet
EndChar

StartChar: seven
Encoding: 55 55 26
Width: 1059
GlyphClass: 2
Flags: W
LayerCount: 2
Fore
SplineSet
276 0 m 1,0,-1
 817 1377 l 1,1,-1
 116 1377 l 1,2,-1
 131 1488 l 1,3,-1
 926 1488 l 1,4,-1
 942 1365 l 1,5,-1
 414 0 l 1,6,-1
 276 0 l 1,0,-1
EndSplineSet
EndChar

StartChar: eight
Encoding: 56 56 27
Width: 1196
GlyphClass: 2
Flags: W
LayerCount: 2
Fore
SplineSet
840.5 22 m 128,-1,1
 734 -24 734 -24 618 -24 c 128,-1,2
 502 -24 502 -24 415.5 3 c 128,-1,3
 329 30 329 30 263 80 c 0,4,5
 121 188 121 188 121 384 c 0,6,7
 121 531 121 531 212 644.5 c 128,-1,8
 303 758 303 758 466 803 c 1,9,10
 316 843 316 843 234.5 930 c 128,-1,11
 153 1017 153 1017 153 1144 c 0,12,13
 153 1314 153 1314 277 1414 c 128,-1,14
 401 1514 401 1514 600.5 1514 c 128,-1,15
 800 1514 800 1514 921.5 1414.5 c 128,-1,16
 1043 1315 1043 1315 1043 1144 c 0,17,18
 1043 1017 1043 1017 965 930.5 c 128,-1,19
 887 844 887 844 747 803 c 1,20,21
 900 758 900 758 988 644.5 c 128,-1,22
 1076 531 1076 531 1076 393.5 c 128,-1,23
 1076 256 1076 256 1011.5 162 c 128,-1,0
 947 68 947 68 840.5 22 c 128,-1,1
355 164 m 128,-1,25
 454 83 454 83 600.5 83 c 128,-1,26
 747 83 747 83 844 163.5 c 128,-1,27
 941 244 941 244 941 383 c 128,-1,28
 941 522 941 522 849 616.5 c 128,-1,29
 757 711 757 711 601 750 c 1,30,31
 445 710 445 710 350.5 616 c 128,-1,32
 256 522 256 522 256 383.5 c 128,-1,24
 256 245 256 245 355 164 c 128,-1,25
601 856 m 1,33,34
 912 918 912 918 912 1146 c 0,35,36
 912 1270 912 1270 821 1338.5 c 128,-1,37
 730 1407 730 1407 601 1407 c 0,38,39
 421 1406 421 1406 332 1290 c 0,40,41
 286 1230 286 1230 286 1146 c 0,42,43
 286 918 286 918 601 856 c 1,33,34
EndSplineSet
EndChar

StartChar: nine
Encoding: 57 57 28
Width: 1142
GlyphClass: 2
Flags: W
LayerCount: 2
Fore
SplineSet
265 0 m 1,0,-1
 824 677 l 1,1,2
 698 596 698 596 567 596 c 128,-1,3
 436 596 436 596 331 649.5 c 128,-1,4
 226 703 226 703 159.5 807.5 c 128,-1,5
 93 912 93 912 93 1026.5 c 128,-1,6
 93 1141 93 1141 127 1226 c 128,-1,7
 161 1311 161 1311 223 1375 c 0,8,9
 358 1514 358 1514 581 1514 c 0,10,11
 697 1514 697 1514 789 1474.5 c 0,12,13
 880 1436 880 1436 938 1368 c 0,14,15
 1056 1230 1056 1230 1056 1030 c 0,16,17
 1056 883 1056 883 1011.5 782 c 128,-1,18
 967 681 967 681 824 478 c 1,19,-1
 428 0 l 1,20,-1
 265 0 l 1,0,-1
932 1050 m 0,21,22
 932 1256 932 1256 775 1356 c 0,23,24
 694 1408 694 1408 584 1407 c 0,25,26
 421 1407 421 1407 320 1298.5 c 128,-1,27
 219 1190 219 1190 219 1044 c 128,-1,28
 219 898 219 898 317 801 c 128,-1,29
 415 704 415 704 585 704 c 128,-1,30
 755 704 755 704 843.5 807 c 128,-1,31
 932 910 932 910 932 1050 c 0,21,22
EndSplineSet
EndChar

StartChar: colon
Encoding: 58 58 29
Width: 510
GlyphClass: 2
Flags: W
LayerCount: 2
Fore
SplineSet
167 -37 m 1,0,-1
 167 174 l 1,1,-1
 346 174 l 1,2,-1
 346 -37 l 1,3,-1
 167 -37 l 1,0,-1
167 927 m 1,4,-1
 167 1136 l 1,5,-1
 346 1136 l 1,6,-1
 346 927 l 1,7,-1
 167 927 l 1,4,-1
EndSplineSet
EndChar

StartChar: semicolon
Encoding: 59 59 30
Width: 550
GlyphClass: 2
Flags: W
LayerCount: 2
Fore
SplineSet
152 -302 m 1,0,-1
 208 165 l 1,1,-1
 370 165 l 1,2,-1
 245 -302 l 1,3,-1
 152 -302 l 1,0,-1
197 928 m 1,4,-1
 197 1136 l 1,5,-1
 376 1136 l 1,6,-1
 376 928 l 1,7,-1
 197 928 l 1,4,-1
EndSplineSet
EndChar

StartChar: less
Encoding: 60 60 31
Width: 1165
GlyphClass: 2
Flags: W
LayerCount: 2
Fore
SplineSet
1052 113 m 1,0,-1
 98 579 l 1,1,-1
 98 658 l 1,2,-1
 1054 1158 l 1,3,-1
 1054 1032 l 1,4,-1
 247 622 l 1,5,-1
 1052 240 l 1,6,-1
 1052 113 l 1,0,-1
EndSplineSet
EndChar

StartChar: equal
Encoding: 61 61 32
Width: 1070
GlyphClass: 2
Flags: W
LayerCount: 2
Fore
SplineSet
121 392 m 1,0,-1
 121 502 l 1,1,-1
 949 502 l 1,2,-1
 949 392 l 1,3,-1
 121 392 l 1,0,-1
120 831 m 1,4,-1
 120 943 l 1,5,-1
 950 943 l 1,6,-1
 950 831 l 1,7,-1
 120 831 l 1,4,-1
EndSplineSet
EndChar

StartChar: greater
Encoding: 62 62 33
Width: 1167
GlyphClass: 2
Flags: W
LayerCount: 2
Fore
SplineSet
113 122 m 1,0,-1
 113 250 l 1,1,-1
 919 622 l 1,2,-1
 116 1042 l 1,3,-1
 116 1165 l 1,4,-1
 1070 656 l 1,5,-1
 1070 577 l 1,6,-1
 113 122 l 1,0,-1
EndSplineSet
EndChar

StartChar: question
Encoding: 63 63 34
Width: 855
GlyphClass: 2
Flags: W
LayerCount: 2
Fore
SplineSet
546 1346 m 0,0,1
 484 1410 484 1410 365.5 1410 c 128,-1,2
 247 1410 247 1410 117 1330 c 1,3,-1
 83 1426 l 1,4,5
 143 1468 143 1468 233 1492.5 c 128,-1,6
 323 1517 323 1517 394 1517 c 0,7,8
 556 1517 556 1517 649 1419 c 128,-1,9
 742 1321 742 1321 742 1173 c 0,10,11
 742 1047 742 1047 656 894 c 0,12,13
 616 824 616 824 572 754 c 0,14,15
 448 560 448 560 379 395 c 1,16,-1
 314 395 l 1,17,18
 313 403 313 403 313 411 c 0,19,20
 312 507 312 507 410 681 c 0,21,22
 454 761 454 761 500 843 c 0,23,24
 609 1041 609 1041 609 1160 c 0,25,26
 609 1281 609 1281 546 1346 c 0,0,1
439 28 m 128,-1,28
 414 -1 414 -1 363.5 -1 c 128,-1,29
 313 -1 313 -1 287.5 28 c 128,-1,30
 262 57 262 57 262 95.5 c 128,-1,31
 262 134 262 134 287.5 163 c 128,-1,32
 313 192 313 192 363.5 192 c 128,-1,33
 414 192 414 192 439 163.5 c 128,-1,34
 464 135 464 135 464 96 c 128,-1,27
 464 57 464 57 439 28 c 128,-1,28
EndSplineSet
EndChar

StartChar: at
Encoding: 64 64 35
Width: 1867
GlyphClass: 2
Flags: W
LayerCount: 2
Fore
SplineSet
1331 5 m 1,0,1
 1135 -82 1135 -82 895.5 -82 c 129,-1,2
 656 -82 656 -82 487 7.5 c 128,-1,3
 318 97 318 97 224.5 270.5 c 128,-1,4
 131 444 131 444 131 682 c 0,5,6
 131 857 131 857 193.5 1010 c 128,-1,7
 256 1163 256 1163 366 1274.5 c 128,-1,8
 476 1386 476 1386 634.5 1450 c 128,-1,9
 793 1514 793 1514 993.5 1514 c 128,-1,10
 1194 1514 1194 1514 1365 1433.5 c 128,-1,11
 1536 1353 1536 1353 1635.5 1198.5 c 128,-1,12
 1735 1044 1735 1044 1735 839 c 0,13,14
 1734 568 1734 568 1538 416 c 0,15,16
 1422 327 1422 327 1281 326 c 0,17,18
 1204 326 1204 326 1151 373.5 c 128,-1,19
 1098 421 1098 421 1084 494 c 1,20,21
 1045 423 1045 423 968.5 377.5 c 128,-1,22
 892 332 892 332 785.5 332 c 128,-1,23
 679 332 679 332 625 406.5 c 128,-1,24
 571 481 571 481 571 575.5 c 128,-1,25
 571 670 571 670 591 745.5 c 128,-1,26
 611 821 611 821 651.5 892 c 128,-1,27
 692 963 692 963 748 1019 c 0,28,29
 871 1143 871 1143 1042 1143 c 0,30,31
 1186 1143 1186 1143 1332 1095 c 1,32,33
 1317 1048 1317 1048 1286 957 c 128,-1,34
 1255 866 1255 866 1238 815 c 0,35,36
 1192 677 1192 677 1192 599.5 c 128,-1,37
 1192 522 1192 522 1218 469 c 128,-1,38
 1244 416 1244 416 1296 416 c 128,-1,39
 1348 416 1348 416 1405 446 c 128,-1,40
 1462 476 1462 476 1509.5 529.5 c 128,-1,41
 1557 583 1557 583 1586.5 666.5 c 128,-1,42
 1616 750 1616 750 1616 848 c 0,43,44
 1616 1021 1616 1021 1534.5 1149 c 128,-1,45
 1453 1277 1453 1277 1311.5 1342 c 128,-1,46
 1170 1407 1170 1407 1018.5 1407 c 128,-1,47
 867 1407 867 1407 759.5 1379.5 c 128,-1,48
 652 1352 652 1352 558.5 1293 c 128,-1,49
 465 1234 465 1234 397 1148 c 0,50,51
 251 964 251 964 251 665 c 128,-1,52
 251 366 251 366 420 191.5 c 128,-1,53
 589 17 589 17 885 17 c 0,54,55
 1099 17 1099 17 1305 102 c 1,56,-1
 1331 5 l 1,0,1
720.5 475 m 128,-1,58
 750 423 750 423 798.5 423 c 128,-1,59
 847 423 847 423 881.5 432.5 c 128,-1,60
 916 442 916 442 941 455.5 c 128,-1,61
 966 469 966 469 988 494 c 128,-1,62
 1010 519 1010 519 1024 540.5 c 128,-1,63
 1038 562 1038 562 1054 598 c 0,64,65
 1078 655 1078 655 1091 699 c 128,-1,66
 1104 743 1104 743 1127.5 816.5 c 128,-1,67
 1151 890 1151 890 1193 1034 c 1,68,69
 1138 1060 1138 1060 1047 1060 c 128,-1,70
 956 1060 956 1060 888 1016.5 c 128,-1,71
 820 973 820 973 778 905 c 0,72,73
 690 762 690 762 691 610 c 0,74,57
 691 527 691 527 720.5 475 c 128,-1,58
EndSplineSet
EndChar

StartChar: A
Encoding: 65 65 36
Width: 1276
GlyphClass: 2
Flags: W
LayerCount: 2
Fore
SplineSet
6 0 m 1,0,-1
 587 1488 l 1,1,-1
 710 1488 l 1,2,-1
 1270 0 l 1,3,-1
 1138 0 l 1,4,-1
 948 505 l 1,5,-1
 331 505 l 1,6,-1
 133 0 l 1,7,-1
 6 0 l 1,0,-1
380 599 m 1,8,-1
 902 599 l 1,9,10
 677 1245 677 1245 647 1359 c 1,11,12
 620 1260 620 1260 441 767 c 2,13,-1
 380 599 l 1,8,-1
EndSplineSet
EndChar

StartChar: B
Encoding: 66 66 37
Width: 1283
GlyphClass: 2
Flags: W
LayerCount: 2
Fore
SplineSet
182 0 m 1,0,-1
 182 1488 l 1,1,-1
 588 1488 l 2,2,3
 865 1488 865 1488 992.5 1396 c 128,-1,4
 1120 1304 1120 1304 1120 1116 c 0,5,6
 1120 1030 1120 1030 1107 996.5 c 128,-1,7
 1094 963 1094 963 1076 930.5 c 128,-1,8
 1058 898 1058 898 1032 874 c 0,9,10
 969 815 969 815 873 785 c 1,11,12
 1029 762 1029 762 1112 660 c 128,-1,13
 1195 558 1195 558 1195 419 c 0,14,15
 1195 222 1195 222 1070 111 c 128,-1,16
 945 0 945 0 686 0 c 2,17,-1
 182 0 l 1,0,-1
310 100 m 1,18,-1
 653 100 l 2,19,20
 1058 100 1058 100 1058 419 c 0,21,22
 1058 592 1058 592 946 659.5 c 128,-1,23
 834 727 834 727 595 727 c 2,24,-1
 310 727 l 1,25,-1
 310 100 l 1,18,-1
310 825 m 1,26,-1
 651 825 l 2,27,28
 902 824 902 824 960 966 c 0,29,30
 984 1022 984 1022 984 1107 c 0,31,32
 984 1263 984 1263 887.5 1323.5 c 128,-1,33
 791 1384 791 1384 582 1384 c 2,34,-1
 310 1384 l 1,35,-1
 310 825 l 1,26,-1
EndSplineSet
EndChar

StartChar: C
Encoding: 67 67 38
Width: 1286
GlyphClass: 2
Flags: W
LayerCount: 2
Fore
SplineSet
813 -24 m 0,0,1
 642 -24 642 -24 508 34.5 c 0,2,3
 374 94 374 94 290 198 c 0,4,5
 118 410 118 410 118 749 c 0,6,7
 118 971 118 971 199.5 1142.5 c 128,-1,8
 281 1314 281 1314 443 1414 c 128,-1,9
 605 1514 605 1514 837 1514 c 128,-1,10
 1069 1514 1069 1514 1240 1412 c 1,11,-1
 1179 1313 l 1,12,13
 1023 1407 1023 1407 827 1407 c 0,14,15
 690 1407 690 1407 581 1355.5 c 128,-1,16
 472 1304 472 1304 402 1213 c 0,17,18
 260 1026 260 1026 260 742 c 0,19,20
 260 463 260 463 394 280 c 0,21,22
 462 188 462 188 574 135.5 c 128,-1,23
 686 83 686 83 837.5 83 c 128,-1,24
 989 83 989 83 1182 170 c 1,25,-1
 1208 67 l 1,26,27
 1062 -24 1062 -24 813 -24 c 0,0,1
EndSplineSet
EndChar

StartChar: D
Encoding: 68 68 39
Width: 1498
GlyphClass: 2
Flags: W
LayerCount: 2
Fore
SplineSet
310 107 m 1,0,-1
 602 107 l 2,1,2
 912 107 912 107 1074.5 265.5 c 128,-1,3
 1237 424 1237 424 1237 738 c 0,4,5
 1237 1082 1237 1082 1058 1236 c 0,6,7
 887 1382 887 1382 573 1382 c 2,8,-1
 310 1382 l 1,9,-1
 310 107 l 1,0,-1
182 0 m 1,10,-1
 182 1488 l 1,11,-1
 585 1488 l 2,12,13
 951 1488 951 1488 1160 1314 c 0,14,15
 1380 1130 1380 1130 1380 754 c 128,-1,16
 1380 378 1380 378 1179 189 c 128,-1,17
 978 0 978 0 616 0 c 2,18,-1
 182 0 l 1,10,-1
EndSplineSet
EndChar

StartChar: E
Encoding: 69 69 40
Width: 1142
GlyphClass: 2
Flags: W
LayerCount: 2
Fore
SplineSet
182 0 m 1,0,-1
 182 1488 l 1,1,-1
 1011 1488 l 1,2,-1
 1006 1382 l 1,3,-1
 310 1382 l 1,4,-1
 310 822 l 1,5,-1
 972 822 l 1,6,-1
 972 713 l 1,7,-1
 310 713 l 1,8,-1
 310 107 l 1,9,-1
 1028 107 l 1,10,-1
 1017 0 l 1,11,-1
 182 0 l 1,0,-1
EndSplineSet
EndChar

StartChar: F
Encoding: 70 70 41
Width: 1025
GlyphClass: 2
Flags: W
LayerCount: 2
Fore
SplineSet
182 0 m 1,0,-1
 182 1488 l 1,1,-1
 982 1488 l 1,2,-1
 976 1377 l 1,3,-1
 311 1377 l 1,4,-1
 311 789 l 1,5,-1
 946 789 l 1,6,-1
 946 686 l 1,7,-1
 311 686 l 1,8,-1
 311 0 l 1,9,-1
 182 0 l 1,0,-1
EndSplineSet
EndChar

StartChar: G
Encoding: 71 71 42
Width: 1469
GlyphClass: 2
Flags: W
LayerCount: 2
Fore
SplineSet
1091.5 1 m 128,-1,1
 977 -24 977 -24 814.5 -24 c 128,-1,2
 652 -24 652 -24 516.5 35.5 c 128,-1,3
 381 95 381 95 295 199 c 0,4,5
 118 413 118 413 118 740 c 0,6,7
 118 965 118 965 202 1138.5 c 128,-1,8
 286 1312 286 1312 452.5 1413 c 128,-1,9
 619 1514 619 1514 858 1514 c 128,-1,10
 1097 1514 1097 1514 1291 1399 c 1,11,-1
 1234 1296 l 1,12,13
 1152 1346 1152 1346 1048.5 1376.5 c 128,-1,14
 945 1407 945 1407 823.5 1407 c 128,-1,15
 702 1407 702 1407 587.5 1355 c 0,16,17
 473 1304 473 1304 402 1212 c 0,18,19
 258 1026 258 1026 258 742 c 0,20,21
 258 440 258 440 406 266 c 0,22,23
 560 84 560 84 864 83 c 0,24,25
 1021 83 1021 83 1210 158 c 1,26,-1
 1210 634 l 1,27,-1
 841 634 l 1,28,-1
 849 745 l 1,29,-1
 1329 745 l 1,30,-1
 1329 89 l 1,31,0
 1206 26 1206 26 1091.5 1 c 128,-1,1
EndSplineSet
EndChar

StartChar: H
Encoding: 72 72 43
Width: 1474
GlyphClass: 2
Flags: W
LayerCount: 2
Fore
SplineSet
182 0 m 1,0,-1
 182 1488 l 1,1,-1
 310 1488 l 1,2,-1
 310 830 l 1,3,-1
 1164 830 l 1,4,-1
 1164 1488 l 1,5,-1
 1292 1488 l 1,6,-1
 1292 0 l 1,7,-1
 1164 0 l 1,8,-1
 1164 718 l 1,9,-1
 310 718 l 1,10,-1
 310 0 l 1,11,-1
 182 0 l 1,0,-1
EndSplineSet
EndChar

StartChar: I
Encoding: 73 73 44
Width: 514
GlyphClass: 2
Flags: W
LayerCount: 2
Fore
SplineSet
193 0 m 1,0,-1
 193 1488 l 1,1,-1
 321 1488 l 1,2,-1
 321 0 l 1,3,-1
 193 0 l 1,0,-1
EndSplineSet
EndChar

StartChar: J
Encoding: 74 74 45
Width: 512
GlyphClass: 2
Flags: W
LayerCount: 2
Fore
SplineSet
1 -138 m 1,0,-1
 -8 -44 l 1,1,-1
 40 -44 l 2,2,3
 114 -44 114 -44 154 -24 c 0,4,5
 234 17 234 17 234 216 c 2,6,-1
 234 1488 l 1,7,-1
 367 1488 l 1,8,-1
 367 303 l 2,9,10
 367 104 367 104 357 68.5 c 128,-1,11
 347 33 347 33 335.5 -2 c 128,-1,12
 324 -37 324 -37 306 -52.5 c 128,-1,13
 288 -68 288 -68 261.5 -88.5 c 0,14,15
 235 -110 235 -110 200 -118 c 0,16,17
 116 -139 116 -139 13 -138 c 2,18,-1
 1 -138 l 1,0,-1
EndSplineSet
EndChar

StartChar: K
Encoding: 75 75 46
Width: 1224
GlyphClass: 2
Flags: W
LayerCount: 2
Fore
SplineSet
182 0 m 1,0,-1
 182 1488 l 1,1,-1
 311 1488 l 1,2,-1
 311 719 l 1,3,4
 355 768 355 768 427 848 c 0,5,6
 756 1211 756 1211 905 1376 c 2,7,-1
 1006 1488 l 1,8,-1
 1175 1488 l 1,9,-1
 554 817 l 1,10,-1
 1226 0 l 1,11,-1
 1063 0 l 1,12,-1
 456 739 l 1,13,-1
 311 603 l 1,14,-1
 311 0 l 1,15,-1
 182 0 l 1,0,-1
EndSplineSet
EndChar

StartChar: L
Encoding: 76 76 47
Width: 998
GlyphClass: 2
Flags: W
LayerCount: 2
Fore
SplineSet
182 0 m 1,0,-1
 182 1488 l 1,1,-1
 311 1488 l 1,2,-1
 311 113 l 1,3,-1
 980 113 l 1,4,-1
 974 0 l 1,5,-1
 182 0 l 1,0,-1
EndSplineSet
EndChar

StartChar: M
Encoding: 77 77 48
Width: 1804
GlyphClass: 2
Flags: W
LayerCount: 2
Fore
SplineSet
182 0 m 1,0,-1
 182 1488 l 1,1,-1
 362 1488 l 1,2,-1
 913 231 l 1,3,-1
 1449 1488 l 1,4,-1
 1622 1488 l 1,5,-1
 1622 0 l 1,6,-1
 1495 0 l 1,7,-1
 1495 1001 l 1,8,-1
 1502 1339 l 1,9,-1
 1465 1219 l 1,10,-1
 976 85 l 1,11,-1
 836 85 l 1,12,-1
 341 1222 l 1,13,-1
 302 1342 l 1,14,-1
 309 996 l 1,15,-1
 309 0 l 1,16,-1
 182 0 l 1,0,-1
EndSplineSet
EndChar

StartChar: N
Encoding: 78 78 49
Width: 1499
GlyphClass: 2
Flags: W
LayerCount: 2
Fore
SplineSet
182 0 m 1,0,-1
 182 1488 l 1,1,-1
 331 1488 l 1,2,-1
 1150 233 l 1,3,-1
 1203 160 l 1,4,5
 1196 468 1196 468 1196 543 c 2,6,-1
 1196 1488 l 1,7,-1
 1317 1488 l 1,8,-1
 1317 0 l 1,9,-1
 1165 0 l 1,10,-1
 348 1253 l 1,11,-1
 297 1326 l 1,12,13
 305 1101 305 1101 305 938 c 2,14,-1
 305 0 l 1,15,-1
 182 0 l 1,0,-1
EndSplineSet
EndChar

StartChar: O
Encoding: 79 79 50
Width: 1627
GlyphClass: 2
Flags: W
LayerCount: 2
Fore
SplineSet
815 83 m 0,0,1
 1089 83 1089 83 1228 260 c 128,-1,2
 1367 437 1367 437 1367 749 c 128,-1,3
 1367 1061 1367 1061 1227 1234 c 128,-1,4
 1087 1407 1087 1407 815 1407 c 128,-1,5
 543 1407 543 1407 400.5 1234.5 c 128,-1,6
 258 1062 258 1062 258 745 c 0,7,8
 258 328 258 328 504 166 c 0,9,10
 630 82 630 82 815 83 c 0,0,1
815 -24 m 0,11,12
 589 -24 589 -24 430 76 c 0,13,14
 118 271 118 271 118 744 c 0,15,16
 118 1098 118 1098 300.5 1306 c 128,-1,17
 483 1514 483 1514 813 1514 c 128,-1,18
 1143 1514 1143 1514 1326 1304.5 c 128,-1,19
 1509 1095 1509 1095 1509 743 c 0,20,21
 1510 408 1510 408 1334 196 c 0,22,23
 1248 92 1248 92 1115 34 c 128,-1,24
 982 -24 982 -24 815 -24 c 0,11,12
EndSplineSet
EndChar

StartChar: P
Encoding: 80 80 51
Width: 1167
GlyphClass: 2
Flags: W
LayerCount: 2
Fore
SplineSet
182 0 m 1,0,-1
 182 1488 l 1,1,-1
 637 1488 l 2,2,3
 830 1488 830 1488 954 1404 c 0,4,5
 1088 1314 1088 1314 1088 1116 c 0,6,7
 1088 930 1088 930 1022 836 c 0,8,9
 903 668 903 668 543 668 c 0,10,11
 437 668 437 668 311 681 c 1,12,-1
 311 0 l 1,13,-1
 182 0 l 1,0,-1
311 791 m 1,14,15
 399 779 399 779 535.5 779 c 128,-1,16
 672 779 672 779 753 802 c 128,-1,17
 834 825 834 825 874 854 c 128,-1,18
 914 883 914 883 935 936 c 128,-1,19
 956 989 956 989 958.5 1021 c 128,-1,20
 961 1053 961 1053 961 1084 c 2,21,-1
 961 1117 l 2,22,23
 961 1248 961 1248 872 1312 c 128,-1,24
 783 1376 783 1376 642 1376 c 2,25,-1
 311 1376 l 1,26,-1
 311 791 l 1,14,15
EndSplineSet
EndChar

StartChar: Q
Encoding: 81 81 52
Width: 1612
GlyphClass: 2
Flags: W
LayerCount: 2
Fore
SplineSet
1253 -470 m 1,0,1
 1252 -468 1252 -468 1228.5 -438 c 128,-1,2
 1205 -408 1205 -408 1168.5 -359 c 128,-1,3
 1132 -310 1132 -310 1092 -253 c 0,4,5
 991 -109 991 -109 947 -12 c 1,6,7
 872 -24 872 -24 770.5 -24 c 128,-1,8
 669 -24 669 -24 556 13 c 128,-1,9
 443 50 443 50 362.5 117.5 c 0,10,11
 282 184 282 184 226 280 c 0,12,13
 118 467 118 467 118 746 c 0,14,15
 118 1103 118 1103 295.5 1308.5 c 128,-1,16
 473 1514 473 1514 805.5 1514 c 128,-1,17
 1138 1514 1138 1514 1316 1306.5 c 128,-1,18
 1494 1099 1494 1099 1494 745 c 0,19,20
 1494 482 1494 482 1388 290 c 128,-1,21
 1282 98 1282 98 1069 17 c 1,22,23
 1122 -77 1122 -77 1210 -205 c 128,-1,24
 1298 -333 1298 -333 1351 -386 c 1,25,-1
 1253 -470 l 1,0,1
807 83 m 0,26,27
 1076 83 1076 83 1211.5 259.5 c 128,-1,28
 1347 436 1347 436 1347 751.5 c 128,-1,29
 1347 1067 1347 1067 1210.5 1237 c 128,-1,30
 1074 1407 1074 1407 807.5 1407 c 128,-1,31
 541 1407 541 1407 401.5 1237 c 128,-1,32
 262 1067 262 1067 262 747 c 0,33,34
 262 328 262 328 502 166 c 0,35,36
 626 83 626 83 807 83 c 0,26,27
EndSplineSet
EndChar

StartChar: R
Encoding: 82 82 53
Width: 1333
GlyphClass: 2
Flags: W
LayerCount: 2
Fore
SplineSet
182 0 m 1,0,-1
 182 1488 l 1,1,-1
 606 1488 l 2,2,3
 862 1488 862 1488 974 1446 c 0,4,5
 1076 1408 1076 1408 1120 1334 c 0,6,7
 1171 1250 1171 1250 1171 1113.5 c 128,-1,8
 1171 977 1171 977 1104 879 c 128,-1,9
 1037 781 1037 781 899 746 c 1,10,11
 959 623 959 623 989 559 c 1,12,-1
 1233 0 l 1,13,-1
 1084 0 l 1,14,-1
 874 509 l 2,15,16
 853 559 853 559 780 725 c 1,17,18
 760 722 760 722 632 722 c 1,19,-1
 310 728 l 1,20,-1
 310 0 l 1,21,-1
 182 0 l 1,0,-1
310 831 m 1,22,23
 546 828 546 828 716 828 c 128,-1,24
 886 828 886 828 965 897.5 c 128,-1,25
 1044 967 1044 967 1044 1104.5 c 128,-1,26
 1044 1242 1044 1242 972.5 1311.5 c 128,-1,27
 901 1381 901 1381 729 1381 c 2,28,-1
 310 1381 l 1,29,-1
 310 831 l 1,22,23
EndSplineSet
EndChar

StartChar: S
Encoding: 83 83 54
Width: 1247
GlyphClass: 2
Flags: W
LayerCount: 2
Fore
SplineSet
1021.5 92.5 m 128,-1,1
 884 -24 884 -24 676.5 -24 c 128,-1,2
 469 -24 469 -24 324.5 16.5 c 128,-1,3
 180 57 180 57 99 105 c 1,4,-1
 147 196 l 1,5,6
 355 83 355 83 669 83 c 0,7,8
 840 83 840 83 932.5 171.5 c 128,-1,9
 1025 260 1025 260 1025 422 c 0,10,11
 1025 536 1025 536 973 602 c 0,12,13
 917 673 917 673 739 708 c 2,14,-1
 499 756 l 2,15,16
 298 796 298 796 197.5 882 c 128,-1,17
 97 968 97 968 97 1127 c 0,18,19
 98 1420 98 1420 428 1492 c 0,20,21
 528 1514 528 1514 654 1514 c 128,-1,22
 780 1514 780 1514 900.5 1483 c 128,-1,23
 1021 1452 1021 1452 1098 1413 c 1,24,-1
 1065 1315 l 1,25,26
 1006 1348 1006 1348 890.5 1377.5 c 128,-1,27
 775 1407 775 1407 651 1407 c 0,28,29
 440 1407 440 1407 334 1336.5 c 128,-1,30
 228 1266 228 1266 228 1114 c 0,31,32
 228 1019 228 1019 295 961.5 c 128,-1,33
 362 904 362 904 493 876 c 1,34,-1
 761 821 l 2,35,36
 956 780 956 780 1054 696 c 0,37,38
 1160 605 1160 605 1159.5 407 c 128,-1,0
 1159 209 1159 209 1021.5 92.5 c 128,-1,1
EndSplineSet
EndChar

StartChar: T
Encoding: 84 84 55
Width: 1082
GlyphClass: 2
Flags: W
LayerCount: 2
Fore
SplineSet
476 0 m 1,0,-1
 476 1378 l 1,1,-1
 8 1378 l 1,2,-1
 8 1488 l 1,3,-1
 1074 1488 l 1,4,-1
 1074 1378 l 1,5,-1
 606 1378 l 1,6,-1
 606 0 l 1,7,-1
 476 0 l 1,0,-1
EndSplineSet
EndChar

StartChar: U
Encoding: 85 85 56
Width: 1408
GlyphClass: 2
Flags: W
LayerCount: 2
Fore
SplineSet
707 83 m 0,0,1
 1123 83 1123 83 1123 498 c 2,2,-1
 1123 1488 l 1,3,-1
 1251 1488 l 1,4,-1
 1251 515 l 2,5,6
 1251 268 1251 268 1124 126 c 0,7,8
 989 -24 989 -24 699 -24 c 1,9,10
 286 -24 286 -24 187 297 c 0,11,12
 157 394 157 394 157 517 c 2,13,-1
 157 1488 l 1,14,-1
 285 1488 l 1,15,-1
 285 497 l 2,16,17
 285 284 285 284 389.5 183.5 c 128,-1,18
 494 83 494 83 707 83 c 0,0,1
EndSplineSet
EndChar

StartChar: V
Encoding: 86 86 57
Width: 1206
GlyphClass: 2
Flags: W
LayerCount: 2
Fore
SplineSet
531 0 m 1,0,-1
 -5 1488 l 1,1,-1
 137 1488 l 1,2,-1
 475 529 l 1,3,-1
 599 137 l 1,4,-1
 726 535 l 1,5,-1
 1067 1488 l 1,6,-1
 1211 1488 l 1,7,-1
 668 0 l 1,8,-1
 531 0 l 1,0,-1
EndSplineSet
EndChar

StartChar: W
Encoding: 87 87 58
Width: 1995
GlyphClass: 2
Flags: W
LayerCount: 2
Fore
SplineSet
464 0 m 1,0,-1
 2 1488 l 1,1,-1
 143 1488 l 1,2,-1
 539 142 l 1,3,-1
 919 1448 l 1,4,-1
 1087 1448 l 1,5,-1
 1458 143 l 1,6,-1
 1853 1488 l 1,7,-1
 1993 1488 l 1,8,-1
 1532 0 l 1,9,-1
 1389 0 l 1,10,-1
 1006 1321 l 1,11,-1
 606 0 l 1,12,-1
 464 0 l 1,0,-1
EndSplineSet
EndChar

StartChar: X
Encoding: 88 88 59
Width: 1196
GlyphClass: 2
Flags: W
LayerCount: 2
Fore
SplineSet
18 0 m 1,0,-1
 521 786 l 1,1,-1
 49 1488 l 1,2,-1
 202 1488 l 1,3,-1
 603 851 l 1,4,-1
 1021 1488 l 1,5,-1
 1158 1488 l 1,6,-1
 686 794 l 1,7,-1
 1178 0 l 1,8,-1
 1032 0 l 1,9,-1
 600 706 l 1,10,-1
 156 0 l 1,11,-1
 18 0 l 1,0,-1
EndSplineSet
EndChar

StartChar: Y
Encoding: 89 89 60
Width: 1166
GlyphClass: 2
Flags: W
LayerCount: 2
Fore
SplineSet
501 0 m 1,0,-1
 501 589 l 1,1,-1
 5 1488 l 1,2,-1
 144 1488 l 1,3,-1
 575 703 l 1,4,-1
 1020 1488 l 1,5,-1
 1161 1488 l 1,6,-1
 632 593 l 1,7,-1
 632 0 l 1,8,-1
 501 0 l 1,0,-1
EndSplineSet
EndChar

StartChar: Z
Encoding: 90 90 61
Width: 1173
GlyphClass: 2
Flags: W
LayerCount: 2
Fore
SplineSet
97 0 m 1,0,-1
 97 111 l 1,1,-1
 923 1376 l 1,2,-1
 127 1376 l 1,3,-1
 127 1488 l 1,4,-1
 1091 1488 l 1,5,-1
 1091 1384 l 1,6,-1
 259 113 l 1,7,-1
 1099 113 l 1,8,-1
 1091 0 l 1,9,-1
 97 0 l 1,0,-1
EndSplineSet
EndChar

StartChar: bracketleft
Encoding: 91 91 62
Width: 688
GlyphClass: 2
Flags: W
LayerCount: 2
Fore
SplineSet
147 -264 m 1,0,-1
 147 1514 l 1,1,-1
 595 1514 l 1,2,-1
 595 1414 l 1,3,-1
 283 1414 l 1,4,-1
 283 -164 l 1,5,-1
 595 -164 l 1,6,-1
 595 -264 l 1,7,-1
 147 -264 l 1,0,-1
EndSplineSet
EndChar

StartChar: backslash
Encoding: 92 92 63
Width: 816
GlyphClass: 2
Flags: W
LayerCount: 2
Fore
SplineSet
652 -11 m 1,0,-1
 62 1514 l 1,1,-1
 184 1514 l 1,2,-1
 774 -11 l 1,3,-1
 652 -11 l 1,0,-1
EndSplineSet
EndChar

StartChar: bracketright
Encoding: 93 93 64
Width: 688
GlyphClass: 2
Flags: W
LayerCount: 2
Fore
SplineSet
93 -264 m 1,0,-1
 93 -164 l 1,1,-1
 405 -164 l 1,2,-1
 405 1414 l 1,3,-1
 93 1414 l 1,4,-1
 93 1514 l 1,5,-1
 541 1514 l 1,6,-1
 541 -264 l 1,7,-1
 93 -264 l 1,0,-1
EndSplineSet
EndChar

StartChar: asciicircum
Encoding: 94 94 65
Width: 1158
GlyphClass: 2
Flags: W
LayerCount: 2
Fore
SplineSet
84 558 m 1,0,-1
 521 1488 l 1,1,-1
 611 1488 l 1,2,-1
 1071 558 l 1,3,-1
 958 558 l 1,4,-1
 565 1356 l 1,5,-1
 200 558 l 1,6,-1
 84 558 l 1,0,-1
EndSplineSet
EndChar

StartChar: underscore
Encoding: 95 95 66
Width: 1053
GlyphClass: 2
Flags: W
LayerCount: 2
Fore
SplineSet
73 -108 m 1,0,-1
 73 0 l 1,1,-1
 978 0 l 1,2,-1
 978 -108 l 1,3,-1
 73 -108 l 1,0,-1
EndSplineSet
EndChar

StartChar: grave
Encoding: 96 96 67
Width: 702
GlyphClass: 2
Flags: W
LayerCount: 2
Fore
SplineSet
460 1287 m 1,0,-1
 184 1674 l 1,1,-1
 342 1674 l 1,2,-1
 533 1287 l 1,3,-1
 460 1287 l 1,0,-1
EndSplineSet
EndChar

StartChar: a
Encoding: 97 97 68
Width: 1077
GlyphClass: 2
Flags: W
LayerCount: 2
Fore
SplineSet
440 -24 m 0,0,1
 285 -24 285 -24 192 54 c 128,-1,2
 99 132 99 132 99 277 c 0,3,4
 100 450 100 450 244 530 c 0,5,6
 377 605 377 605 615 622 c 1,7,8
 743 630 743 630 805 635 c 1,9,-1
 805 757 l 2,10,11
 805 884 805 884 747 950 c 128,-1,12
 689 1016 689 1016 563 1016 c 0,13,14
 391 1016 391 1016 234 930 c 1,15,-1
 199 1022 l 1,16,17
 261 1062 261 1062 361 1089 c 128,-1,18
 461 1116 461 1116 557 1116 c 0,19,20
 754 1116 754 1116 840 1031.5 c 128,-1,21
 926 947 926 947 926 732 c 2,22,-1
 926 0 l 1,23,-1
 829 0 l 1,24,25
 824 23 824 23 814.5 91 c 128,-1,26
 805 159 805 159 805 161 c 1,27,28
 676 -24 676 -24 440 -24 c 0,0,1
223 275 m 0,29,30
 223 75 223 75 458 75 c 0,31,32
 572 75 572 75 671.5 150.5 c 128,-1,33
 771 226 771 226 802 360 c 1,34,-1
 802 547 l 1,35,36
 658 535 658 535 657 535 c 0,37,38
 413 513 413 513 318 455 c 128,-1,39
 223 397 223 397 223 275 c 0,29,30
EndSplineSet
EndChar

StartChar: b
Encoding: 98 98 69
Width: 1187
GlyphClass: 2
Flags: W
LayerCount: 2
Fore
SplineSet
619 -24 m 0,0,1
 396 -24 396 -24 264 159 c 1,2,-1
 251 0 l 1,3,-1
 147 0 l 1,4,-1
 147 1521 l 1,5,-1
 270 1532 l 1,6,-1
 270 1163 l 2,7,8
 270 994 270 994 267 930 c 1,9,10
 328 1024 328 1024 422.5 1070 c 128,-1,11
 517 1116 517 1116 619 1116 c 0,12,13
 841 1116 841 1116 965.5 957.5 c 128,-1,14
 1090 799 1090 799 1090 549 c 0,15,16
 1090 198 1090 198 879 51 c 0,17,18
 771 -24 771 -24 619 -24 c 0,0,1
461 108 m 0,19,20
 530 74 530 74 623.5 74.5 c 128,-1,21
 717 75 717 75 784.5 114.5 c 128,-1,22
 852 154 852 154 888 222 c 0,23,24
 958 352 958 352 958 543 c 0,25,26
 958 734 958 734 888 866 c 0,27,28
 852 936 852 936 784.5 976 c 128,-1,29
 717 1016 717 1016 625 1016 c 0,30,31
 452 1016 452 1016 360.5 891 c 128,-1,32
 269 766 269 766 270 537 c 1,33,34
 270 201 270 201 461 108 c 0,19,20
EndSplineSet
EndChar

StartChar: c
Encoding: 99 99 70
Width: 965
GlyphClass: 2
Flags: W
LayerCount: 2
Fore
SplineSet
604 -24 m 0,0,1
 445 -24 445 -24 328 54 c 128,-1,2
 211 132 211 132 154 257.5 c 128,-1,3
 97 383 97 383 97 519 c 128,-1,4
 97 655 97 655 131 759 c 128,-1,5
 165 863 165 863 227.5 943 c 128,-1,6
 290 1023 290 1023 388.5 1069.5 c 128,-1,7
 487 1116 487 1116 583 1116 c 0,8,9
 743 1116 743 1116 882 1041 c 1,10,-1
 843 952 l 1,11,12
 729 1016 729 1016 604 1016 c 0,13,14
 433 1016 433 1016 330.5 883 c 128,-1,15
 228 750 228 750 228 541.5 c 128,-1,16
 228 333 228 333 331 204 c 128,-1,17
 434 75 434 75 606 75 c 0,18,19
 710 75 710 75 857 139 c 1,20,-1
 876 50 l 1,21,22
 829 15 829 15 754 -4.5 c 128,-1,23
 679 -24 679 -24 604 -24 c 0,0,1
EndSplineSet
EndChar

StartChar: d
Encoding: 100 100 71
Width: 1183
GlyphClass: 2
Flags: W
LayerCount: 2
Fore
SplineSet
561 -24 m 0,0,1
 343 -24 343 -24 220 128.5 c 128,-1,2
 97 281 97 281 97 541 c 128,-1,3
 97 801 97 801 223.5 958.5 c 128,-1,4
 350 1116 350 1116 557 1116 c 0,5,6
 659 1116 659 1116 761 1072 c 128,-1,7
 863 1028 863 1028 916 935 c 1,8,-1
 916 1521 l 1,9,-1
 1036 1532 l 1,10,-1
 1036 0 l 1,11,-1
 933 0 l 1,12,-1
 915 165 l 1,13,14
 858 72 858 72 760 24 c 128,-1,15
 662 -24 662 -24 561 -24 c 0,0,1
570 75 m 1,16,17
 652 75 652 75 721.5 109 c 128,-1,18
 791 143 791 143 833 205 c 0,19,20
 916 328 916 328 916 526 c 0,21,22
 916 1016 916 1016 556 1016 c 0,23,24
 471 1016 471 1016 406 975.5 c 0,25,26
 342 935 342 935 304 866 c 0,27,28
 230 731 230 731 230 547 c 0,29,30
 230 298 230 298 339 170 c 0,31,32
 420 76 420 76 570 75 c 1,16,17
EndSplineSet
EndChar

StartChar: e
Encoding: 101 101 72
Width: 1093
GlyphClass: 2
Flags: W
LayerCount: 2
Fore
SplineSet
992 608 m 1,0,-1
 991 533 l 1,1,-1
 228 533 l 1,2,3
 230 322 230 322 330 198.5 c 128,-1,4
 430 75 430 75 594 75 c 0,5,6
 701 75 701 75 780 100 c 128,-1,7
 859 125 859 125 945 171 c 1,8,-1
 966 78 l 1,9,10
 800 -24 800 -24 582 -24 c 128,-1,11
 364 -24 364 -24 230.5 128 c 128,-1,12
 97 280 97 280 97 535.5 c 128,-1,13
 97 791 97 791 227.5 951 c 128,-1,14
 358 1111 358 1111 565 1116 c 1,15,16
 758 1116 758 1116 875 978 c 128,-1,17
 992 840 992 840 992 608 c 1,0,-1
233 633 m 1,18,-1
 857 633 l 1,19,20
 857 816 857 816 777.5 915.5 c 128,-1,21
 698 1015 698 1015 560 1015 c 128,-1,22
 422 1015 422 1015 335.5 909.5 c 128,-1,23
 249 804 249 804 233 633 c 1,18,-1
EndSplineSet
EndChar

StartChar: f
Encoding: 102 102 73
Width: 638
GlyphClass: 2
Flags: W
LayerCount: 2
Fore
SplineSet
216 0 m 1,0,-1
 216 1005 l 1,1,-1
 36 1005 l 1,2,-1
 44 1082 l 1,3,-1
 216 1096 l 1,4,-1
 216 1137 l 2,5,6
 216 1352 216 1352 291.5 1450.5 c 128,-1,7
 367 1549 367 1549 523 1549 c 0,8,9
 576 1549 576 1549 676 1534 c 1,10,-1
 667 1452 l 1,11,12
 570 1463 570 1463 537 1463 c 0,13,14
 423 1463 423 1463 381.5 1389.5 c 128,-1,15
 340 1316 340 1316 340 1131 c 2,16,-1
 340 1096 l 1,17,-1
 607 1096 l 1,18,-1
 607 1005 l 1,19,-1
 340 1005 l 1,20,-1
 340 0 l 1,21,-1
 216 0 l 1,0,-1
EndSplineSet
EndChar

StartChar: g
Encoding: 103 103 74
Width: 1173
GlyphClass: 2
Flags: W
LayerCount: 2
Fore
SplineSet
912 198 m 1,0,1
 781 0 781 0 553 0 c 0,2,3
 455 0 455 0 374.5 35 c 128,-1,4
 294 70 294 70 242.5 126 c 128,-1,5
 191 182 191 182 156 254 c 0,6,7
 91 388 91 388 91 539 c 0,8,9
 91 834 91 834 246 994 c 0,10,11
 365 1116 365 1116 577 1116 c 0,12,13
 682 1116 682 1116 762.5 1074.5 c 128,-1,14
 843 1033 843 1033 912 942 c 1,15,-1
 924 1096 l 1,16,-1
 1034 1096 l 1,17,-1
 1034 80 l 2,18,19
 1034 -148 1034 -148 992 -250 c 0,20,21
 974 -294 974 -294 935.5 -348.5 c 0,22,23
 898 -403 898 -403 844 -434 c 0,24,25
 715 -509 715 -509 517 -509 c 2,26,-1
 316 -509 l 1,27,-1
 301 -398 l 1,28,-1
 533 -398 l 2,29,30
 758 -398 758 -398 838 -290 c 0,31,32
 893 -216 893 -216 904 -135 c 0,33,34
 919 -26 919 -26 919 43.5 c 0,35,36
 920 114 920 114 916 156 c 2,37,-1
 912 198 l 1,0,1
566 101 m 1,38,39
 642 101 642 101 701 124.5 c 128,-1,40
 760 148 760 148 798.5 186.5 c 0,41,42
 838 225 838 225 864 277 c 0,43,44
 912 372 912 372 912 499 c 2,45,-1
 912 613 l 2,46,47
 912 773 912 773 834 889 c 0,48,49
 749 1016 749 1016 566 1016 c 0,50,51
 359 1016 359 1016 271 800 c 0,52,53
 224 685 224 685 224 537 c 0,54,55
 224 322 224 322 330 200 c 0,56,57
 416 102 416 102 566 101 c 1,38,39
EndSplineSet
EndChar

StartChar: h
Encoding: 104 104 75
Width: 1149
GlyphClass: 2
Flags: W
LayerCount: 2
Fore
SplineSet
147 0 m 1,0,-1
 147 1521 l 1,1,-1
 271 1532 l 1,2,-1
 271 980 l 2,3,4
 271 972 271 972 270.5 971 c 128,-1,5
 270 970 270 970 270 960 c 2,6,7
 268 930 l 1,8,9
 402 1116 402 1116 652 1116 c 0,10,11
 1009 1116 1009 1116 1009 685 c 2,12,-1
 1009 0 l 1,13,-1
 886 0 l 1,14,-1
 886 661 l 2,15,16
 886 846 886 846 829 930.5 c 128,-1,17
 772 1015 772 1015 629 1015 c 128,-1,18
 486 1015 486 1015 390.5 938 c 128,-1,19
 295 861 295 861 273 741 c 1,20,21
 271 701 271 701 271 622 c 2,22,-1
 271 0 l 1,23,-1
 147 0 l 1,0,-1
EndSplineSet
EndChar

StartChar: i
Encoding: 105 105 76
Width: 445
GlyphClass: 2
Flags: W
LayerCount: 2
Fore
SplineSet
169 0 m 1,0,-1
 169 1096 l 1,1,-1
 294 1096 l 1,2,-1
 294 0 l 1,3,-1
 169 0 l 1,0,-1
169 1320 m 1,4,-1
 169 1488 l 1,5,-1
 293 1488 l 1,6,-1
 293 1320 l 1,7,-1
 169 1320 l 1,4,-1
EndSplineSet
EndChar

StartChar: j
Encoding: 106 106 77
Width: 408
GlyphClass: 2
Flags: W
LayerCount: 2
Fore
SplineSet
-58 -550 m 1,0,-1
 -77 -450 l 1,1,-1
 -28 -450 l 2,2,3
 42 -450 42 -450 81 -439.5 c 128,-1,4
 120 -429 120 -429 137.5 -394.5 c 128,-1,5
 155 -360 155 -360 158 -328.5 c 128,-1,6
 161 -297 161 -297 161 -259 c 2,7,8
 161 1096 l 1,9,-1
 286 1096 l 1,10,-1
 286 -247 l 2,11,12
 286 -341 286 -341 273.5 -397 c 128,-1,13
 261 -453 261 -453 226.5 -488.5 c 128,-1,14
 192 -524 192 -524 137.5 -537 c 128,-1,15
 83 -550 83 -550 -9 -550 c 2,16,-1
 -58 -550 l 1,0,-1
161 1321 m 1,17,-1
 161 1488 l 1,18,-1
 286 1488 l 1,19,-1
 286 1321 l 1,20,-1
 161 1321 l 1,17,-1
EndSplineSet
EndChar

StartChar: k
Encoding: 107 107 78
Width: 986
GlyphClass: 2
Flags: W
LayerCount: 2
Fore
SplineSet
149 0 m 1,0,-1
 149 1522 l 1,1,-1
 272 1532 l 1,2,-1
 272 568 l 1,3,4
 281 579 281 579 336 639 c 128,-1,5
 391 699 391 699 398 707 c 2,6,-1
 777 1096 l 1,7,-1
 944 1096 l 1,8,-1
 485 638 l 1,9,-1
 976 0 l 1,10,-1
 819 0 l 1,11,-1
 400 568 l 1,12,-1
 272 450 l 1,13,-1
 272 0 l 1,14,-1
 149 0 l 1,0,-1
EndSplineSet
EndChar

StartChar: l
Encoding: 108 108 79
Width: 581
GlyphClass: 2
Flags: W
LayerCount: 2
Fore
SplineSet
423 -18 m 0,0,1
 284 -18 284 -18 220.5 42.5 c 128,-1,2
 157 103 157 103 157 243 c 2,3,-1
 157 1522 l 1,4,-1
 279 1532 l 1,5,-1
 279 250 l 2,6,7
 279 151 279 151 315 115 c 0,8,9
 350 79 350 79 428 79 c 128,-1,10
 506 79 506 79 576 97 c 1,11,-1
 581 1 l 1,12,13
 503 -18 503 -18 423 -18 c 0,0,1
EndSplineSet
EndChar

StartChar: m
Encoding: 109 109 80
Width: 1805
GlyphClass: 2
Flags: W
LayerCount: 2
Fore
SplineSet
150 0 m 1,0,1
 147 994 147 994 147 1096 c 1,2,-1
 255 1096 l 1,3,-1
 271 928 l 1,4,5
 319 1010 319 1010 414.5 1063 c 128,-1,6
 510 1116 510 1116 617 1116 c 0,7,8
 880 1116 880 1116 947 909 c 1,9,10
 1064 1116 1064 1116 1316 1116 c 0,11,12
 1496 1116 1496 1116 1580.5 1013.5 c 128,-1,13
 1665 911 1665 911 1665 708 c 2,14,-1
 1665 0 l 1,15,-1
 1541 0 l 1,16,-1
 1541 536 l 2,17,18
 1541 748 1541 748 1525 809.5 c 128,-1,19
 1509 871 1509 871 1491.5 908 c 0,20,21
 1474 944 1474 944 1450 966 c 0,22,23
 1396 1014 1396 1014 1290 1014.5 c 128,-1,24
 1184 1015 1184 1015 1099 944 c 128,-1,25
 1014 873 1014 873 980 739 c 1,26,-1
 980 0 l 1,27,-1
 857 0 l 1,28,-1
 857 558 l 2,29,30
 858 832 858 832 792 930 c 0,31,32
 735 1016 735 1016 610.5 1015.5 c 128,-1,33
 486 1015 486 1015 394.5 940 c 128,-1,34
 303 865 303 865 276 740 c 1,35,36
 274 699 274 699 274 623 c 2,37,-1
 274 0 l 1,38,-1
 150 0 l 1,0,1
EndSplineSet
EndChar

StartChar: n
Encoding: 110 110 81
Width: 1152
GlyphClass: 2
Flags: W
LayerCount: 2
Fore
SplineSet
147 0 m 1,0,-1
 147 1096 l 1,1,-1
 255 1096 l 1,2,-1
 272 927 l 1,3,4
 331 1015 331 1015 430.5 1065.5 c 128,-1,5
 530 1116 530 1116 645 1116 c 0,6,7
 834 1116 834 1116 923 1012 c 128,-1,8
 1012 908 1012 908 1012 680 c 2,9,-1
 1012 0 l 1,10,-1
 887 0 l 1,11,-1
 887 736 l 1,12,13
 882 883 882 883 824.5 949 c 0,14,15
 766 1015 766 1015 628 1015 c 128,-1,16
 490 1015 490 1015 395 938 c 128,-1,17
 300 861 300 861 276 741 c 1,18,19
 272 694 272 694 272 643 c 2,20,-1
 272 0 l 1,21,-1
 147 0 l 1,0,-1
EndSplineSet
EndChar

StartChar: o
Encoding: 111 111 82
Width: 1190
GlyphClass: 2
Flags: W
LayerCount: 2
Fore
SplineSet
601 75 m 0,0,1
 722 74 722 74 804 138 c 0,2,3
 962 259 962 259 961 545 c 0,4,5
 961 757 961 757 871 886 c 128,-1,6
 781 1015 781 1015 597 1015 c 0,7,8
 476 1014 476 1014 392 950 c 0,9,10
 230 826 230 826 230 542 c 0,11,12
 230 337 230 337 325.5 206 c 128,-1,13
 421 75 421 75 601 75 c 0,0,1
862 52 m 0,14,15
 747 -24 747 -24 595 -24 c 128,-1,16
 443 -24 443 -24 329.5 51 c 128,-1,17
 216 126 216 126 156.5 254.5 c 128,-1,18
 97 383 97 383 97 525 c 128,-1,19
 97 667 97 667 131.5 771.5 c 128,-1,20
 166 876 166 876 230 952 c 0,21,22
 367 1116 367 1116 600 1116 c 0,23,24
 754 1116 754 1116 867 1040 c 0,25,26
 1093 889 1093 889 1093 547 c 0,27,28
 1093 204 1093 204 862 52 c 0,14,15
EndSplineSet
EndChar

StartChar: p
Encoding: 112 112 83
Width: 1175
GlyphClass: 2
Flags: W
LayerCount: 2
Fore
SplineSet
147 -488 m 1,0,-1
 147 1096 l 1,1,-1
 258 1096 l 1,2,-1
 269 940 l 1,3,4
 346 1028 346 1028 425.5 1072 c 128,-1,5
 505 1116 505 1116 611 1116 c 0,6,7
 845 1116 845 1116 961.5 960.5 c 128,-1,8
 1078 805 1078 805 1078 547 c 128,-1,9
 1078 289 1078 289 955 132.5 c 128,-1,10
 832 -24 832 -24 622 -24 c 0,11,12
 514 -24 514 -24 418 27 c 128,-1,13
 322 78 322 78 266 161 c 1,14,15
 271 38 271 38 271 -81 c 2,16,-1
 271 -479 l 1,17,-1
 147 -488 l 1,0,-1
449 109.5 m 128,-1,19
 517 75 517 75 608 75 c 128,-1,20
 699 75 699 75 765 116.5 c 128,-1,21
 831 158 831 158 870 226 c 0,22,23
 948 363 948 363 948 544 c 0,24,25
 948 777 948 777 835 914 c 0,26,27
 752 1015 752 1015 613 1015 c 1,28,29
 398 1015 398 1015 318 832 c 0,30,31
 270 724 270 724 270 586.5 c 128,-1,32
 270 449 270 449 287 363.5 c 128,-1,33
 304 278 304 278 342.5 211 c 128,-1,18
 381 144 381 144 449 109.5 c 128,-1,19
EndSplineSet
EndChar

StartChar: q
Encoding: 113 113 84
Width: 1179
GlyphClass: 2
Flags: W
LayerCount: 2
Fore
SplineSet
908 -488 m 1,0,-1
 908 13 l 2,1,2
 908 97 908 97 913 165 c 1,3,4
 855 72 855 72 754.5 24 c 128,-1,5
 654 -24 654 -24 532 -24 c 128,-1,6
 410 -24 410 -24 305 49 c 0,7,8
 97 194 97 194 97 532 c 0,9,10
 96 892 96 892 306 1040 c 0,11,12
 412 1116 412 1116 562 1116 c 0,13,14
 767 1116 767 1116 913 931 c 1,15,-1
 921 1096 l 1,16,-1
 1032 1096 l 1,17,-1
 1032 -481 l 1,18,-1
 908 -488 l 1,0,-1
400.5 114.5 m 128,-1,20
 466 75 466 75 556.5 75 c 128,-1,21
 647 75 647 75 716 108.5 c 128,-1,22
 785 142 785 142 825 204 c 0,23,24
 903 324 903 324 905 525 c 1,25,26
 905 1015 905 1015 553 1015 c 0,27,28
 354 1015 354 1015 272 806 c 0,29,30
 228 693 228 693 228 572 c 128,-1,31
 228 451 228 451 245 371 c 128,-1,32
 262 291 262 291 298.5 222.5 c 128,-1,19
 335 154 335 154 400.5 114.5 c 128,-1,20
EndSplineSet
EndChar

StartChar: r
Encoding: 114 114 85
Width: 715
GlyphClass: 2
Flags: W
LayerCount: 2
Fore
SplineSet
149 0 m 1,0,1
 147 965 147 965 147 1096 c 1,2,-1
 249 1096 l 1,3,-1
 257 880 l 1,4,5
 316 978 316 978 407 1040 c 128,-1,6
 498 1102 498 1102 597 1102 c 0,7,8
 638 1102 638 1102 685 1095 c 1,9,-1
 676 992 l 1,10,11
 640 998 640 998 600 998 c 0,12,13
 461 998 461 998 366.5 888.5 c 128,-1,14
 272 779 272 779 272 629 c 2,15,-1
 272 0 l 1,16,-1
 149 0 l 1,0,1
EndSplineSet
EndChar

StartChar: s
Encoding: 115 115 86
Width: 950
GlyphClass: 2
Flags: W
LayerCount: 2
Fore
SplineSet
470 -24 m 0,0,1
 363 -24 363 -24 270 1.5 c 128,-1,2
 177 27 177 27 124 63 c 1,3,-1
 142 167 l 1,4,5
 318 75 318 75 454 75 c 128,-1,6
 590 75 590 75 664.5 127.5 c 128,-1,7
 739 180 739 180 739 282 c 0,8,9
 739 366 739 366 691 418 c 0,10,11
 637 477 637 477 471 519 c 2,12,-1
 376 543 l 1,13,14
 236 577 236 577 174 652.5 c 128,-1,15
 112 728 112 728 112 833.5 c 128,-1,16
 112 939 112 939 213.5 1027.5 c 128,-1,17
 315 1116 315 1116 488 1116 c 128,-1,18
 661 1116 661 1116 813 1048 c 1,19,-1
 785 952 l 1,20,21
 615 1016 615 1016 492.5 1016 c 128,-1,22
 370 1016 370 1016 303 963 c 128,-1,23
 236 910 236 910 236 828 c 128,-1,24
 236 746 236 746 280.5 703 c 128,-1,25
 325 660 325 660 452 629 c 2,26,-1
 550 605 l 2,27,28
 721 563 721 563 788 485 c 128,-1,29
 855 407 855 407 855 270.5 c 128,-1,30
 855 134 855 134 749.5 55 c 128,-1,31
 644 -24 644 -24 470 -24 c 0,0,1
EndSplineSet
EndChar

StartChar: t
Encoding: 116 116 87
Width: 676
GlyphClass: 2
Flags: W
LayerCount: 2
Fore
SplineSet
465 -18 m 0,0,1
 325 -18 325 -18 257.5 43 c 128,-1,2
 190 104 190 104 190 243 c 2,3,-1
 190 1005 l 1,4,-1
 35 1005 l 1,5,-1
 44 1080 l 1,6,-1
 192 1094 l 1,7,-1
 225 1345 l 1,8,-1
 312 1351 l 1,9,-1
 312 1096 l 1,10,-1
 632 1096 l 1,11,-1
 632 1005 l 1,12,-1
 312 1005 l 1,13,-1
 312 269 l 2,14,15
 312 153 312 153 350 114.5 c 128,-1,16
 388 76 388 76 471 76 c 0,17,18
 554 76 554 76 638 97 c 1,19,-1
 643 1 l 1,20,21
 547 -18 547 -18 465 -18 c 0,0,1
EndSplineSet
EndChar

StartChar: u
Encoding: 117 117 88
Width: 1106
GlyphClass: 2
Flags: W
LayerCount: 2
Fore
SplineSet
546 -24 m 0,0,1
 469 -24 469 -24 395.5 -5 c 128,-1,2
 322 14 322 14 259 55 c 0,3,4
 123 144 123 144 123 350 c 2,5,-1
 123 1096 l 1,6,-1
 247 1096 l 1,7,-1
 247 347 l 2,8,9
 248 189 248 189 340 129 c 0,10,11
 423 75 423 75 555 75 c 0,12,13
 859 75 859 75 859 347 c 2,14,-1
 859 1096 l 1,15,-1
 983 1096 l 1,16,-1
 983 350 l 2,17,18
 982 110 982 110 798 24 c 0,19,20
 694 -24 694 -24 546 -24 c 0,0,1
EndSplineSet
EndChar

StartChar: v
Encoding: 118 118 89
Width: 989
GlyphClass: 2
Flags: W
LayerCount: 2
Fore
SplineSet
419 0 m 1,0,-1
 1 1096 l 1,1,-1
 134 1096 l 1,2,-1
 388 405 l 1,3,4
 425 284 425 284 480 152 c 2,5,-1
 497 111 l 1,6,7
 516 175 516 175 546.5 248.5 c 128,-1,8
 577 322 577 322 603 405 c 128,-1,9
 629 488 629 488 700 661.5 c 128,-1,10
 771 835 771 835 855 1096 c 1,11,-1
 988 1096 l 1,12,-1
 563 0 l 1,13,-1
 419 0 l 1,0,-1
EndSplineSet
EndChar

StartChar: w
Encoding: 119 119 90
Width: 1557
GlyphClass: 2
Flags: W
LayerCount: 2
Fore
SplineSet
328 0 m 1,0,-1
 22 1096 l 1,1,-1
 152 1096 l 1,2,-1
 405 117 l 1,3,4
 678 995 678 995 710 1096 c 1,5,-1
 862 1096 l 1,6,7
 1161 120 1161 120 1164 120 c 1,8,-1
 1406 1096 l 1,9,-1
 1535 1096 l 1,10,-1
 1234 0 l 1,11,-1
 1090 0 l 1,12,13
 1087 -1 1087 -1 949 461 c 128,-1,14
 811 923 811 923 789 1004 c 1,15,16
 767 906 767 906 620 452.5 c 128,-1,17
 473 -1 473 -1 472 0 c 1,18,-1
 328 0 l 1,0,-1
EndSplineSet
EndChar

StartChar: x
Encoding: 120 120 91
Width: 1012
GlyphClass: 2
Flags: W
LayerCount: 2
Fore
SplineSet
37 0 m 1,0,-1
 446 555 l 1,1,-1
 50 1096 l 1,2,-1
 188 1096 l 1,3,-1
 508 644 l 1,4,-1
 826 1096 l 1,5,-1
 967 1096 l 1,6,-1
 572 551 l 1,7,-1
 975 0 l 1,8,-1
 842 0 l 1,9,-1
 509 465 l 1,10,-1
 177 0 l 1,11,-1
 37 0 l 1,0,-1
EndSplineSet
EndChar

StartChar: y
Encoding: 121 121 92
Width: 981
GlyphClass: 2
Flags: W
LayerCount: 2
Fore
SplineSet
4 -410 m 1,0,-1
 73 -413 l 1,1,2
 199 -413 199 -413 262 -370 c 128,-1,3
 325 -327 325 -327 374 -202 c 0,4,5
 380 -185 380 -185 405.5 -116 c 128,-1,6
 431 -47 431 -47 445 -7 c 1,7,-1
 7 1096 l 1,8,-1
 137 1096 l 1,9,-1
 510 110 l 1,10,-1
 555 248 l 1,11,12
 830 1106 830 1106 837 1106 c 0,13,14
 838 1106 838 1106 836 1096 c 1,15,-1
 966 1096 l 1,16,17
 528 -135 528 -135 508 -192 c 1,18,19
 439 -358 439 -358 346 -439 c 128,-1,20
 253 -520 253 -520 98 -520 c 0,21,22
 56 -520 56 -520 13 -512 c 1,23,-1
 4 -410 l 1,0,-1
EndSplineSet
EndChar

StartChar: z
Encoding: 122 122 93
Width: 882
GlyphClass: 2
Flags: W
LayerCount: 2
Fore
SplineSet
89 0 m 1,0,-1
 89 104 l 1,1,-1
 668 997 l 1,2,-1
 99 997 l 1,3,-1
 99 1096 l 1,4,-1
 798 1096 l 1,5,-1
 798 979 l 1,6,-1
 217 93 l 1,7,-1
 816 93 l 1,8,-1
 816 0 l 1,9,-1
 89 0 l 1,0,-1
EndSplineSet
EndChar

StartChar: braceleft
Encoding: 123 123 94
Width: 709
GlyphClass: 2
Flags: W
LayerCount: 2
Fore
SplineSet
613 -277 m 1,0,1
 443 -276 443 -276 368.5 -181 c 128,-1,2
 294 -86 294 -86 294 95 c 2,3,-1
 294 255 l 2,4,5
 294 458 294 458 241 525 c 0,6,7
 190 590 190 590 86 590 c 1,8,-1
 86 689 l 1,9,10
 218 694 218 694 260 756 c 0,11,12
 282 788 282 788 286 820.5 c 128,-1,13
 290 853 290 853 292 878.5 c 128,-1,14
 294 904 294 904 294 932 c 2,15,-1
 294 1236 l 2,16,17
 294 1384 294 1384 378 1470.5 c 128,-1,18
 462 1557 462 1557 613 1557 c 1,19,-1
 613 1461 l 1,20,21
 503 1460 503 1460 461.5 1400.5 c 128,-1,22
 420 1341 420 1341 420 1197 c 2,23,-1
 420 934 l 2,24,25
 420 769 420 769 247 637 c 1,26,27
 376 585 376 585 411 426 c 0,28,29
 420 385 420 385 420 342 c 2,30,-1
 420 82 l 2,31,32
 420 -65 420 -65 461.5 -122.5 c 128,-1,33
 503 -180 503 -180 613 -181 c 1,34,-1
 613 -277 l 1,0,1
EndSplineSet
EndChar

StartChar: bar
Encoding: 124 124 95
Width: 817
GlyphClass: 2
Flags: W
LayerCount: 2
Fore
SplineSet
349 -413 m 1,0,-1
 349 1606 l 1,1,-1
 468 1606 l 1,2,-1
 468 -413 l 1,3,-1
 349 -413 l 1,0,-1
EndSplineSet
EndChar

StartChar: braceright
Encoding: 125 125 96
Width: 716
GlyphClass: 2
Flags: W
LayerCount: 2
Fore
SplineSet
99 -277 m 1,0,-1
 99 -181 l 1,1,2
 208 -180 208 -180 250.5 -122 c 128,-1,3
 293 -64 293 -64 293 82 c 2,4,-1
 293 342 l 2,5,6
 293 431 293 431 326.5 491 c 128,-1,7
 360 551 360 551 464 646 c 1,8,9
 334 686 334 686 302 850 c 0,10,11
 294 892 294 892 293 934 c 2,12,-1
 293 1197 l 2,13,14
 293 1340 293 1340 250.5 1400 c 128,-1,15
 208 1460 208 1460 99 1461 c 1,16,-1
 99 1557 l 1,17,18
 418 1557 418 1557 418 1184 c 2,19,-1
 418 1025 l 2,20,21
 418 849 418 849 449 789 c 0,22,23
 484 722 484 722 544 702 c 0,24,25
 580 690 580 690 628 689 c 1,26,-1
 628 590 l 1,27,28
 473 590 473 590 437 449 c 0,29,30
 418 375 418 375 418 255 c 2,31,-1
 418 42 l 2,32,33
 418 -104 418 -104 335.5 -190 c 128,-1,34
 253 -276 253 -276 99 -277 c 1,0,-1
EndSplineSet
EndChar

StartChar: asciitilde
Encoding: 126 126 97
Width: 1236
GlyphClass: 2
Flags: W
LayerCount: 2
Fore
SplineSet
156 524 m 1,0,-1
 116 603 l 1,1,2
 151 693 151 693 219 748 c 128,-1,3
 287 803 287 803 361.5 803 c 128,-1,4
 436 803 436 803 485.5 788.5 c 128,-1,5
 535 774 535 774 586 750.5 c 128,-1,6
 637 727 637 727 674.5 709 c 128,-1,7
 712 691 712 691 731 683 c 0,8,9
 750 674 750 674 777 664 c 0,10,11
 846 645 846 645 874 645 c 1,12,13
 920 645 920 645 976.5 696.5 c 128,-1,14
 1033 748 1033 748 1057 814 c 1,15,-1
 1106 744 l 1,16,17
 1068 638 1068 638 1010 587.5 c 128,-1,18
 952 537 952 537 864.5 537 c 128,-1,19
 777 537 777 537 670.5 585.5 c 128,-1,20
 564 634 564 634 532 648 c 0,21,22
 437 692 437 692 375 692 c 128,-1,23
 313 692 313 692 253 644.5 c 128,-1,24
 193 597 193 597 156 524 c 1,0,-1
EndSplineSet
EndChar

StartChar: exclamdown
Encoding: 161 161 98
Width: 650
GlyphClass: 2
Flags: W
LayerCount: 2
Fore
SplineSet
235 -402 m 1,0,-1
 235 -312 l 1,1,-1
 285 694 l 1,2,-1
 351 694 l 1,3,-1
 412 -312 l 1,4,-1
 412 -402 l 1,5,-1
 235 -402 l 1,0,-1
417.5 927 m 128,-1,7
 386 892 386 892 324.5 892 c 128,-1,8
 263 892 263 892 232.5 927 c 128,-1,9
 202 962 202 962 202 1009 c 128,-1,10
 202 1056 202 1056 232.5 1091.5 c 128,-1,11
 263 1127 263 1127 324.5 1127 c 128,-1,12
 386 1127 386 1127 417.5 1091.5 c 128,-1,13
 449 1056 449 1056 449 1009 c 128,-1,6
 449 962 449 962 417.5 927 c 128,-1,7
EndSplineSet
EndChar

StartChar: cent
Encoding: 162 162 99
Width: 985
GlyphClass: 2
Flags: W
LayerCount: 2
Fore
SplineSet
908 73 m 1,0,1
 821 -14 821 -14 644 -28 c 1,2,-1
 644 -162 l 1,3,-1
 567 -162 l 1,4,-1
 567 -28 l 1,5,6
 304 -5 304 -5 172 239 c 0,7,8
 96 378 96 378 97 537 c 1,9,10
 100 737 100 737 216 912 c 0,11,12
 272 997 272 997 364 1055.5 c 128,-1,13
 456 1114 456 1114 567 1126 c 1,14,-1
 567 1281 l 1,15,-1
 644 1281 l 1,16,-1
 644 1127 l 1,17,18
 729 1123 729 1123 800.5 1097.5 c 128,-1,19
 872 1072 872 1072 911 1033 c 1,20,-1
 870 950 l 1,21,22
 774 1014 774 1014 644 1023 c 1,23,-1
 644 75 l 1,24,25
 765 87 765 87 870 156 c 1,26,-1
 908 73 l 1,0,1
567 77 m 1,27,-1
 567 1022 l 1,28,29
 472 1008 472 1008 395 937.5 c 128,-1,30
 318 867 318 867 275.5 760.5 c 128,-1,31
 233 654 233 654 233 535 c 0,32,33
 233 361 233 361 325.5 230.5 c 128,-1,34
 418 100 418 100 567 77 c 1,27,-1
EndSplineSet
EndChar

StartChar: sterling
Encoding: 163 163 100
Width: 1124
GlyphClass: 2
Flags: W
LayerCount: 2
Fore
SplineSet
101 0 m 1,0,-1
 92 105 l 1,1,2
 277 169 277 169 277 436 c 2,3,-1
 277 696 l 1,4,-1
 91 696 l 1,5,-1
 91 800 l 1,6,-1
 277 800 l 1,7,-1
 277 890 l 2,8,9
 277 1129 277 1129 324 1262 c 0,10,11
 366 1382 366 1382 448 1444 c 0,12,13
 542 1515 542 1515 693 1515 c 0,14,15
 889 1515 889 1515 1037 1390 c 1,16,-1
 971 1303 l 1,17,18
 842 1407 842 1407 687.5 1407 c 128,-1,19
 533 1407 533 1407 469 1296.5 c 128,-1,20
 405 1186 405 1186 405 977 c 2,21,-1
 405 800 l 1,22,-1
 832 800 l 1,23,-1
 832 695 l 1,24,-1
 405 695 l 1,25,-1
 405 526 l 2,26,27
 406 320 406 320 368 232 c 0,28,29
 333 148 333 148 257 96 c 1,30,31
 306 99 306 99 376 106.5 c 128,-1,32
 446 114 446 114 516 114 c 2,33,-1
 1041 114 l 1,34,-1
 1055 0 l 1,35,-1
 101 0 l 1,0,-1
EndSplineSet
EndChar

StartChar: currency
Encoding: 164 164 101
Width: 1146
GlyphClass: 2
Flags: W
LayerCount: 2
Fore
SplineSet
1027 234 m 1,0,-1
 840 412 l 1,1,2
 723 314 723 314 571 314 c 128,-1,3
 419 314 419 314 306 412 c 1,4,-1
 121 235 l 1,5,-1
 58 294 l 1,6,-1
 243 474 l 1,7,8
 157 590 157 590 157 731 c 128,-1,9
 157 872 157 872 243 989 c 1,10,-1
 57 1171 l 1,11,-1
 121 1230 l 1,12,-1
 306 1053 l 1,13,14
 419 1151 419 1151 572 1151 c 128,-1,15
 725 1151 725 1151 840 1053 c 1,16,-1
 1027 1230 l 1,17,-1
 1088 1168 l 1,18,-1
 904 989 l 1,19,20
 990 865 990 865 990 725 c 128,-1,21
 990 585 990 585 905 474 c 1,22,-1
 1087 295 l 1,23,-1
 1027 234 l 1,0,-1
346 498.5 m 128,-1,25
 440 402 440 402 573.5 402 c 128,-1,26
 707 402 707 402 801.5 499 c 128,-1,27
 896 596 896 596 896 732 c 128,-1,28
 896 868 896 868 801.5 965.5 c 128,-1,29
 707 1063 707 1063 573.5 1063 c 128,-1,30
 440 1063 440 1063 346 966 c 128,-1,31
 252 869 252 869 252 732 c 128,-1,24
 252 595 252 595 346 498.5 c 128,-1,25
EndSplineSet
EndChar

StartChar: yen
Encoding: 165 165 102
Width: 1166
GlyphClass: 2
Flags: W
LayerCount: 2
Fore
SplineSet
501 0 m 1,0,-1
 501 338 l 1,1,-1
 96 338 l 1,2,-1
 96 448 l 1,3,-1
 501 448 l 1,4,-1
 501 629 l 1,5,-1
 95 629 l 1,6,-1
 95 741 l 1,7,-1
 430 741 l 1,8,-1
 5 1488 l 1,9,-1
 144 1488 l 1,10,-1
 575 705 l 1,11,-1
 1020 1488 l 1,12,-1
 1161 1488 l 1,13,-1
 719 741 l 1,14,-1
 1037 741 l 1,15,-1
 1037 629 l 1,16,-1
 632 629 l 1,17,-1
 632 448 l 1,18,-1
 1036 448 l 1,19,-1
 1036 338 l 1,20,-1
 632 338 l 1,21,-1
 632 0 l 1,22,-1
 501 0 l 1,0,-1
EndSplineSet
EndChar

StartChar: brokenbar
Encoding: 166 166 103
Width: 775
GlyphClass: 2
Flags: W
LayerCount: 2
Fore
SplineSet
329 -200 m 1,0,-1
 329 502 l 1,1,-1
 449 502 l 1,2,-1
 449 -200 l 1,3,-1
 329 -200 l 1,0,-1
329 850 m 1,4,-1
 329 1549 l 1,5,-1
 449 1549 l 1,6,-1
 449 850 l 1,7,-1
 329 850 l 1,4,-1
EndSplineSet
EndChar

StartChar: section
Encoding: 167 167 104
Width: 853
GlyphClass: 2
Flags: W
LayerCount: 2
Fore
SplineSet
267 1019 m 1,0,1
 185 1071 185 1071 145.5 1123.5 c 128,-1,2
 106 1176 106 1176 106 1275.5 c 128,-1,3
 106 1375 106 1375 197.5 1444.5 c 128,-1,4
 289 1514 289 1514 445.5 1514 c 128,-1,5
 602 1514 602 1514 723 1467 c 1,6,-1
 704 1377 l 1,7,8
 589 1422 589 1422 472 1422 c 0,9,10
 222 1422 222 1422 222 1266 c 0,11,12
 222 1197 222 1197 281.5 1148 c 128,-1,13
 341 1099 341 1099 489 1039.5 c 128,-1,14
 637 980 637 980 702 917.5 c 128,-1,15
 767 855 767 855 767 759 c 0,16,17
 767 600 767 600 594 491 c 1,18,19
 675 444 675 444 715.5 394 c 128,-1,20
 756 344 756 344 756 263 c 0,21,22
 756 131 756 131 651.5 57 c 128,-1,23
 547 -17 547 -17 373 -17 c 128,-1,24
 199 -17 199 -17 91 33 c 1,25,-1
 106 125 l 1,26,27
 220 73 220 73 351 73 c 128,-1,28
 482 73 482 73 560.5 117 c 128,-1,29
 639 161 639 161 639 251 c 0,30,31
 638 328 638 328 576 375 c 0,32,33
 523 415 523 415 393 469 c 1,34,35
 227 532 227 532 157.5 599.5 c 128,-1,36
 88 667 88 667 88 765 c 128,-1,37
 88 863 88 863 134.5 918.5 c 128,-1,38
 181 974 181 974 267 1019 c 1,0,1
356 979 m 1,39,40
 287 950 287 950 242 900 c 128,-1,41
 197 850 197 850 197 778.5 c 128,-1,42
 197 707 197 707 253 659 c 128,-1,43
 309 611 309 611 437 560 c 1,44,-1
 501 533 l 1,45,46
 657 628 657 628 657 739 c 0,47,48
 657 822 657 822 588 872 c 0,49,50
 521 921 521 921 462.5 941 c 128,-1,51
 404 961 404 961 356 979 c 1,39,40
EndSplineSet
EndChar

StartChar: dieresis
Encoding: 168 168 105
Width: 769
GlyphClass: 2
Flags: W
LayerCount: 2
Fore
SplineSet
136 1266 m 1,0,-1
 136 1443 l 1,1,-1
 272 1443 l 1,2,-1
 272 1266 l 1,3,-1
 136 1266 l 1,0,-1
512 1266 m 1,4,-1
 512 1443 l 1,5,-1
 649 1443 l 1,6,-1
 649 1266 l 1,7,-1
 512 1266 l 1,4,-1
EndSplineSet
EndChar

StartChar: copyright
Encoding: 169 169 106
Width: 1886
GlyphClass: 2
Flags: W
LayerCount: 2
Fore
SplineSet
930 174 m 0,0,1
 721 174 721 174 585.5 325.5 c 128,-1,2
 450 477 450 477 450 709 c 128,-1,3
 450 941 450 941 586 1089 c 128,-1,4
 722 1237 722 1237 946 1237 c 0,5,6
 1120 1237 1120 1237 1254 1142 c 1,7,-1
 1230 1032 l 1,8,9
 1185 1073 1185 1073 1102 1101.5 c 128,-1,10
 1019 1130 1019 1130 935 1130 c 128,-1,11
 851 1130 851 1130 781 1095.5 c 0,12,13
 710 1061 710 1061 668 1002 c 0,14,15
 582 882 582 882 582 701 c 128,-1,16
 582 520 582 520 678 400 c 128,-1,17
 774 280 774 280 960 280 c 0,18,19
 1029 280 1029 280 1106 305 c 128,-1,20
 1183 330 1183 330 1222 359 c 1,21,-1
 1258 257 l 1,22,23
 1204 224 1204 224 1111 199 c 128,-1,24
 1018 174 1018 174 930 174 c 0,0,1
757 -4 m 0,25,26
 840 -24 840 -24 936 -24 c 128,-1,27
 1032 -24 1032 -24 1131.5 4.5 c 128,-1,28
 1231 33 1231 33 1318.5 92 c 0,29,30
 1406 150 1406 150 1472 234 c 0,31,32
 1614 414 1614 414 1614 694 c 0,33,34
 1614 1100 1614 1100 1311 1306 c 0,35,36
 1137 1424 1137 1424 915 1424 c 0,37,38
 700 1424 700 1424 532 1309 c 0,39,40
 242 1111 242 1111 241 701 c 0,41,42
 242 363 242 363 456 157 c 0,43,44
 576 41 576 41 757 -4 c 0,25,26
1161.5 -84 m 128,-1,46
 1046 -116 1046 -116 924.5 -116 c 128,-1,47
 803 -116 803 -116 688.5 -84 c 128,-1,48
 574 -52 574 -52 472 14.5 c 128,-1,49
 370 81 370 81 294 175.5 c 128,-1,50
 218 270 218 270 173.5 405 c 128,-1,51
 129 540 129 540 129 699 c 128,-1,52
 129 858 129 858 173 993 c 128,-1,53
 217 1128 217 1128 292.5 1222.5 c 128,-1,54
 368 1317 368 1317 469 1384 c 0,55,56
 665 1514 665 1514 918 1514 c 0,57,58
 1172 1514 1172 1514 1376 1382 c 0,59,60
 1596 1240 1596 1240 1680 990 c 0,61,62
 1726 856 1726 856 1726 698 c 128,-1,63
 1726 540 1726 540 1681 406 c 128,-1,64
 1636 272 1636 272 1559 177 c 128,-1,65
 1482 82 1482 82 1379.5 15 c 128,-1,45
 1277 -52 1277 -52 1161.5 -84 c 128,-1,46
EndSplineSet
EndChar

StartChar: ordfeminine
Encoding: 170 170 107
Width: 830
GlyphClass: 2
Flags: W
LayerCount: 2
Fore
SplineSet
486.5 921.5 m 128,-1,1
 429 892 429 892 367 892 c 128,-1,2
 305 892 305 892 255.5 912 c 128,-1,3
 206 932 206 932 169.5 978 c 128,-1,4
 133 1024 133 1024 133 1082.5 c 128,-1,5
 133 1141 133 1141 155.5 1180 c 128,-1,6
 178 1219 178 1219 213 1243 c 0,7,8
 248 1266 248 1266 307 1284 c 0,9,10
 401 1312 401 1312 560 1326 c 1,11,-1
 560 1349 l 2,12,13
 560 1449 560 1449 529.5 1498 c 128,-1,14
 499 1547 499 1547 431.5 1547 c 128,-1,15
 364 1547 364 1547 291 1528 c 128,-1,16
 218 1509 218 1509 178 1481 c 1,17,-1
 141 1554 l 1,18,19
 259 1624 259 1624 428 1624 c 0,20,21
 529 1624 529 1624 592.5 1564 c 128,-1,22
 656 1504 656 1504 656 1371 c 2,23,-1
 656 902 l 1,24,-1
 595 902 l 1,25,-1
 572 1010 l 1,26,0
 544 951 544 951 486.5 921.5 c 128,-1,1
363 968 m 2,27,-1
 369 968 l 1,28,29
 459 970 459 970 511 1036.5 c 128,-1,30
 563 1103 563 1103 563 1217 c 2,31,-1
 563 1256 l 1,32,33
 444 1249 444 1249 403.5 1238.5 c 128,-1,34
 363 1228 363 1228 330 1216 c 0,35,36
 296 1204 296 1204 278 1189 c 0,37,38
 232 1151 232 1151 232 1101 c 2,39,-1
 232 1098 l 1,40,41
 235 968 235 968 363 968 c 2,27,-1
144 720 m 1,42,-1
 144 798 l 1,43,-1
 682 798 l 1,44,-1
 682 720 l 1,45,-1
 144 720 l 1,42,-1
EndSplineSet
EndChar

StartChar: guillemotleft
Encoding: 171 171 108
Width: 962
GlyphClass: 2
Flags: W
LayerCount: 2
Fore
SplineSet
391 157 m 1,0,-1
 141 503 l 1,1,-1
 107 553 l 1,2,-1
 394 959 l 1,3,-1
 508 935 l 1,4,-1
 237 561 l 1,5,-1
 503 182 l 1,6,-1
 391 157 l 1,0,-1
752 157 m 1,7,-1
 460 573 l 1,8,-1
 754 959 l 1,9,-1
 849 935 l 1,10,-1
 597 561 l 1,11,-1
 846 182 l 1,12,-1
 752 157 l 1,7,-1
EndSplineSet
EndChar

StartChar: logicalnot
Encoding: 172 172 109
Width: 1197
GlyphClass: 2
Flags: W
LayerCount: 2
Fore
SplineSet
967 268 m 1,0,-1
 967 707 l 1,1,-1
 99 707 l 1,2,-1
 99 817 l 1,3,-1
 1076 817 l 1,4,-1
 1076 268 l 1,5,-1
 967 268 l 1,0,-1
EndSplineSet
EndChar

StartChar: uni00AD
Encoding: 173 173 110
Width: 1038
GlyphClass: 2
Flags: W
LayerCount: 2
Fore
SplineSet
123 140 m 1,0,-1
 123 255 l 1,1,-1
 922 255 l 1,2,-1
 922 140 l 1,3,-1
 123 140 l 1,0,-1
EndSplineSet
EndChar

StartChar: registered
Encoding: 174 174 111
Width: 1865
GlyphClass: 2
Flags: W
LayerCount: 2
Fore
SplineSet
623 212 m 1,0,-1
 623 1202 l 1,1,-1
 966 1202 l 2,2,3
 1138 1202 1138 1202 1220 1132.5 c 128,-1,4
 1302 1063 1302 1063 1302 936 c 0,5,6
 1302 846 1302 846 1250 772 c 0,7,8
 1193 690 1193 690 1058 678 c 1,9,10
 1107 611 1107 611 1211.5 438.5 c 128,-1,11
 1316 266 1316 266 1349 212 c 1,12,-1
 1214 212 l 1,13,14
 1021 544 1021 544 941 658 c 1,15,-1
 735 658 l 1,16,-1
 735 212 l 1,17,-1
 623 212 l 1,0,-1
736 754 m 1,18,-1
 941 754 l 2,19,20
 1071 754 1071 754 1130.5 790.5 c 128,-1,21
 1190 827 1190 827 1190 930.5 c 128,-1,22
 1190 1034 1190 1034 1134 1070.5 c 128,-1,23
 1078 1107 1078 1107 931 1107 c 2,24,-1
 736 1107 l 1,25,-1
 736 754 l 1,18,-1
757 -4 m 0,26,27
 840 -24 840 -24 936 -24 c 128,-1,28
 1032 -24 1032 -24 1131.5 4.5 c 128,-1,29
 1231 33 1231 33 1318.5 92 c 0,30,31
 1406 150 1406 150 1472 234 c 0,32,33
 1614 414 1614 414 1614 694 c 0,34,35
 1614 1100 1614 1100 1311 1306 c 0,36,37
 1137 1424 1137 1424 915 1424 c 0,38,39
 700 1424 700 1424 532 1309 c 0,40,41
 242 1111 242 1111 241 701 c 0,42,43
 242 363 242 363 456 157 c 0,44,45
 576 41 576 41 757 -4 c 0,26,27
1161.5 -84 m 128,-1,47
 1046 -116 1046 -116 924.5 -116 c 128,-1,48
 803 -116 803 -116 688.5 -84 c 128,-1,49
 574 -52 574 -52 472 14.5 c 128,-1,50
 370 81 370 81 294 175.5 c 128,-1,51
 218 270 218 270 173.5 405 c 128,-1,52
 129 540 129 540 129 699 c 128,-1,53
 129 858 129 858 173 993 c 128,-1,54
 217 1128 217 1128 292.5 1222.5 c 128,-1,55
 368 1317 368 1317 469 1384 c 0,56,57
 665 1514 665 1514 918 1514 c 0,58,59
 1172 1514 1172 1514 1376 1382 c 0,60,61
 1596 1240 1596 1240 1680 990 c 0,62,63
 1726 856 1726 856 1726 698 c 128,-1,64
 1726 540 1726 540 1681 406 c 128,-1,65
 1636 272 1636 272 1559 177 c 128,-1,66
 1482 82 1482 82 1379.5 15 c 128,-1,46
 1277 -52 1277 -52 1161.5 -84 c 128,-1,47
EndSplineSet
EndChar

StartChar: macron
Encoding: 175 175 112
Width: 1131
GlyphClass: 2
Flags: W
LayerCount: 2
Fore
SplineSet
256 1270 m 1,0,-1
 256 1376 l 1,1,-1
 874 1376 l 1,2,-1
 874 1270 l 1,3,-1
 256 1270 l 1,0,-1
EndSplineSet
EndChar

StartChar: degree
Encoding: 176 176 113
Width: 844
GlyphClass: 2
Flags: W
LayerCount: 2
Fore
SplineSet
422 1011 m 128,-1,1
 505 1011 505 1011 566 1069 c 128,-1,2
 627 1127 627 1127 627 1231.5 c 128,-1,3
 627 1336 627 1336 566 1395 c 128,-1,4
 505 1454 505 1454 422 1454 c 128,-1,5
 339 1454 339 1454 279 1395.5 c 128,-1,6
 219 1337 219 1337 219 1232 c 128,-1,7
 219 1127 219 1127 279 1069 c 128,-1,0
 339 1011 339 1011 422 1011 c 128,-1,1
202.5 1010.5 m 128,-1,9
 112 1089 112 1089 112 1231 c 128,-1,10
 112 1373 112 1373 204.5 1453 c 128,-1,11
 297 1533 297 1533 423 1533 c 0,12,13
 598 1533 598 1533 686 1398 c 0,14,15
 732 1328 732 1328 732 1244 c 128,-1,16
 732 1160 732 1160 705 1101.5 c 128,-1,17
 678 1043 678 1043 634 1007 c 0,18,19
 541 932 541 932 417 932 c 128,-1,8
 293 932 293 932 202.5 1010.5 c 128,-1,9
EndSplineSet
EndChar

StartChar: plusminus
Encoding: 177 177 114
Width: 1163
GlyphClass: 2
Flags: W
LayerCount: 2
Fore
SplineSet
526 215 m 1,0,-1
 526 654 l 1,1,-1
 95 654 l 1,2,-1
 95 765 l 1,3,-1
 525 765 l 1,4,-1
 525 1213 l 1,5,-1
 632 1213 l 1,6,-1
 632 765 l 1,7,-1
 1067 765 l 1,8,-1
 1067 654 l 1,9,-1
 635 654 l 1,10,-1
 635 215 l 1,11,-1
 526 215 l 1,0,-1
95 0 m 1,12,-1
 95 121 l 1,13,-1
 1070 121 l 1,14,-1
 1070 0 l 1,15,-1
 95 0 l 1,12,-1
EndSplineSet
EndChar

StartChar: uni00B2
Encoding: 178 178 115
Width: 726
GlyphClass: 2
Flags: W
LayerCount: 2
Fore
SplineSet
381 1400 m 0,0,1
 260 1400 260 1400 180 1272 c 1,2,-1
 98 1303 l 1,3,4
 135 1392 135 1392 211.5 1440 c 128,-1,5
 288 1488 288 1488 387.5 1488 c 128,-1,6
 487 1488 487 1488 564 1421 c 128,-1,7
 641 1354 641 1354 641 1239 c 0,8,9
 642 1118 642 1118 518 975 c 0,10,11
 452 899 452 899 353.5 798.5 c 128,-1,12
 255 698 255 698 210 650 c 1,13,-1
 624 650 l 1,14,-1
 632 568 l 1,15,-1
 81 568 l 1,16,-1
 81 645 l 1,17,18
 364 948 364 948 451 1060 c 128,-1,19
 538 1172 538 1172 538 1244.5 c 128,-1,20
 538 1317 538 1317 490.5 1358.5 c 128,-1,21
 443 1400 443 1400 381 1400 c 0,0,1
EndSplineSet
EndChar

StartChar: uni00B3
Encoding: 179 179 116
Width: 589
GlyphClass: 2
Flags: W
LayerCount: 2
Fore
SplineSet
241 1112 m 2,0,1
 412 1112 412 1112 412 1261 c 0,2,3
 412 1267 412 1267 412 1274 c 0,4,5
 409 1334 409 1334 368 1372.5 c 128,-1,6
 327 1411 327 1411 272 1411 c 128,-1,7
 217 1411 217 1411 169.5 1396 c 128,-1,8
 122 1381 122 1381 99 1361 c 1,9,-1
 58 1432 l 1,10,11
 90 1455 90 1455 146.5 1471 c 128,-1,12
 203 1487 203 1487 256 1487 c 128,-1,13
 309 1487 309 1487 352.5 1475.5 c 128,-1,14
 396 1464 396 1464 432 1440 c 0,15,16
 510 1388 510 1388 510 1276 c 0,17,18
 510 1156 510 1156 416 1101 c 0,19,20
 404 1094 404 1094 377 1079 c 1,21,22
 530 1036 530 1036 530 873 c 0,23,24
 530 757 530 757 460.5 692.5 c 128,-1,25
 391 628 391 628 284 628 c 0,26,27
 132 628 132 628 54 706 c 1,28,-1
 92 774 l 1,29,30
 148 731 148 731 190 718.5 c 128,-1,31
 232 706 232 706 288 706 c 128,-1,32
 344 706 344 706 393.5 751.5 c 128,-1,33
 443 797 443 797 443 866 c 0,34,35
 443 1038 443 1038 250 1038 c 2,36,-1
 161 1038 l 1,37,-1
 161 1112 l 1,38,-1
 241 1112 l 2,0,1
EndSplineSet
EndChar

StartChar: acute
Encoding: 180 180 117
Width: 648
GlyphClass: 2
Flags: W
LayerCount: 2
Fore
SplineSet
126 1287 m 1,0,-1
 320 1674 l 1,1,-1
 474 1674 l 1,2,-1
 201 1287 l 1,3,-1
 126 1287 l 1,0,-1
EndSplineSet
EndChar

StartChar: paragraph
Encoding: 182 182 118
Width: 1007
GlyphClass: 2
Flags: W
LayerCount: 2
Fore
SplineSet
495 0 m 1,0,1
 493 863 493 863 492 863 c 0,2,3
 296 864 296 864 186 970 c 0,4,5
 82 1070 82 1070 81.5 1200 c 128,-1,6
 81 1330 81 1330 186.5 1422 c 128,-1,7
 292 1514 292 1514 488 1514 c 2,8,-1
 926 1514 l 1,9,-1
 926 1417 l 1,10,-1
 854 1417 l 1,11,-1
 854 0 l 1,12,-1
 762 0 l 1,13,-1
 762 1417 l 1,14,-1
 589 1417 l 1,15,-1
 589 0 l 1,16,-1
 495 0 l 1,0,1
EndSplineSet
EndChar

StartChar: periodcentered
Encoding: 183 183 119
Width: 489
GlyphClass: 2
Flags: W
LayerCount: 2
Fore
SplineSet
170 610 m 1,0,-1
 170 772 l 1,1,-1
 320 772 l 1,2,-1
 320 610 l 1,3,-1
 170 610 l 1,0,-1
EndSplineSet
EndChar

StartChar: cedilla
Encoding: 184 184 120
Width: 599
GlyphClass: 2
Flags: W
LayerCount: 2
Fore
SplineSet
138 -410 m 1,0,-1
 245 11 l 1,1,-1
 304 11 l 1,2,-1
 267 -410 l 1,3,-1
 138 -410 l 1,0,-1
EndSplineSet
EndChar

StartChar: uni00B9
Encoding: 185 185 121
Width: 464
GlyphClass: 2
Flags: W
LayerCount: 2
Fore
SplineSet
90 681 m 1,0,-1
 90 747 l 1,1,-1
 194 747 l 1,2,-1
 194 1390 l 1,3,4
 165 1368 165 1368 80 1318 c 1,5,-1
 80 1399 l 1,6,7
 174 1453 174 1453 202 1488 c 1,8,-1
 287 1488 l 1,9,-1
 287 747 l 1,10,-1
 394 747 l 1,11,-1
 394 681 l 1,12,-1
 90 681 l 1,0,-1
EndSplineSet
EndChar

StartChar: ordmasculine
Encoding: 186 186 122
Width: 807
GlyphClass: 2
Flags: W
LayerCount: 2
Fore
SplineSet
252 1314 m 128,-1,1
 197 1233 197 1233 197 1115 c 128,-1,2
 197 997 197 997 251 918 c 128,-1,3
 305 839 305 839 403.5 839 c 128,-1,4
 502 839 502 839 556 919 c 128,-1,5
 610 999 610 999 610 1115.5 c 128,-1,6
 610 1232 610 1232 555 1313.5 c 128,-1,7
 500 1395 500 1395 403.5 1395 c 128,-1,0
 307 1395 307 1395 252 1314 c 128,-1,1
178.5 1384.5 m 128,-1,9
 261 1488 261 1488 403.5 1488 c 128,-1,10
 546 1488 546 1488 628 1383 c 128,-1,11
 710 1278 710 1278 710 1116.5 c 128,-1,12
 710 955 710 955 628.5 851.5 c 128,-1,13
 547 748 547 748 402.5 748 c 128,-1,14
 258 748 258 748 177 851.5 c 128,-1,15
 96 955 96 955 96 1118 c 128,-1,8
 96 1281 96 1281 178.5 1384.5 c 128,-1,9
EndSplineSet
EndChar

StartChar: guillemotright
Encoding: 187 187 123
Width: 941
GlyphClass: 2
Flags: W
LayerCount: 2
Fore
SplineSet
192 157 m 1,0,-1
 97 182 l 1,1,-1
 349 562 l 1,2,-1
 99 935 l 1,3,-1
 192 959 l 1,4,-1
 486 547 l 1,5,-1
 192 157 l 1,0,-1
564 157 m 1,6,-1
 455 182 l 1,7,-1
 721 562 l 1,8,-1
 460 935 l 1,9,-1
 567 959 l 1,10,-1
 844 547 l 1,11,-1
 564 157 l 1,6,-1
EndSplineSet
EndChar

StartChar: onequarter
Encoding: 188 188 124
Width: 1553
GlyphClass: 2
Flags: W
LayerCount: 2
Fore
SplineSet
149 681 m 1,0,-1
 149 747 l 1,1,-1
 253 747 l 1,2,-1
 253 1416 l 1,3,4
 224 1394 224 1394 139 1344 c 1,5,-1
 139 1425 l 1,6,7
 233 1479 233 1479 261 1514 c 1,8,-1
 346 1514 l 1,9,-1
 346 747 l 1,10,-1
 453 747 l 1,11,-1
 453 681 l 1,12,-1
 149 681 l 1,0,-1
1270 0 m 1,13,-1
 1270 218 l 1,14,-1
 895 218 l 1,15,-1
 895 289 l 1,16,-1
 1270 861 l 1,17,-1
 1363 861 l 1,18,-1
 1363 300 l 1,19,-1
 1455 300 l 1,20,-1
 1463 218 l 1,21,-1
 1363 218 l 1,22,-1
 1363 0 l 1,23,-1
 1270 0 l 1,13,-1
281 0 m 1,24,-1
 1169 1514 l 1,25,-1
 1262 1514 l 1,26,-1
 381 0 l 1,27,-1
 281 0 l 1,24,-1
995 300 m 1,28,-1
 1270 300 l 1,29,30
 1270 492 1270 492 1270 599 c 128,-1,31
 1270 706 1270 706 1270 727 c 1,32,-1
 995 300 l 1,28,-1
EndSplineSet
EndChar

StartChar: onehalf
Encoding: 189 189 125
Width: 1493
GlyphClass: 2
Flags: W
LayerCount: 2
Fore
SplineSet
149 681 m 1,0,-1
 149 747 l 1,1,-1
 253 747 l 1,2,-1
 253 1416 l 1,3,4
 224 1394 224 1394 139 1344 c 1,5,-1
 139 1425 l 1,6,7
 233 1479 233 1479 261 1514 c 1,8,-1
 346 1514 l 1,9,-1
 346 747 l 1,10,-1
 453 747 l 1,11,-1
 453 681 l 1,12,-1
 149 681 l 1,0,-1
1192 832 m 0,13,14
 1071 832 1071 832 991 704 c 1,15,-1
 909 735 l 1,16,17
 946 824 946 824 1022.5 872 c 128,-1,18
 1099 920 1099 920 1198.5 920 c 128,-1,19
 1298 920 1298 920 1375 853 c 128,-1,20
 1452 786 1452 786 1452 671 c 0,21,22
 1452 550 1452 550 1328 407 c 0,23,24
 1262 331 1262 331 1164 230.5 c 128,-1,25
 1066 130 1066 130 1021 82 c 1,26,-1
 1435 82 l 1,27,-1
 1443 0 l 1,28,-1
 892 0 l 1,29,-1
 892 77 l 1,30,31
 1175 380 1175 380 1262 492 c 128,-1,32
 1349 604 1349 604 1349 676.5 c 128,-1,33
 1349 749 1349 749 1301.5 790.5 c 128,-1,34
 1254 832 1254 832 1192 832 c 0,13,14
270 0 m 1,35,-1
 1158 1514 l 1,36,-1
 1251 1514 l 1,37,-1
 370 0 l 1,38,-1
 270 0 l 1,35,-1
EndSplineSet
EndChar

StartChar: threequarters
Encoding: 190 190 126
Width: 1606
GlyphClass: 2
Flags: W
LayerCount: 2
Fore
SplineSet
316 1109 m 2,0,1
 487 1109 487 1109 487 1258 c 0,2,3
 487 1264 487 1264 487 1271 c 0,4,5
 484 1331 484 1331 443 1369.5 c 128,-1,6
 402 1408 402 1408 347 1408 c 128,-1,7
 292 1408 292 1408 244.5 1393 c 128,-1,8
 197 1378 197 1378 174 1358 c 1,9,-1
 133 1429 l 1,10,11
 165 1452 165 1452 221.5 1468 c 128,-1,12
 278 1484 278 1484 331 1484 c 128,-1,13
 384 1484 384 1484 427.5 1472.5 c 128,-1,14
 471 1461 471 1461 507 1437 c 0,15,16
 585 1385 585 1385 585 1273 c 0,17,18
 585 1153 585 1153 491 1098 c 0,19,20
 479 1091 479 1091 452 1076 c 1,21,22
 605 1033 605 1033 605 870 c 0,23,24
 605 754 605 754 535.5 689.5 c 128,-1,25
 466 625 466 625 359 625 c 0,26,27
 207 625 207 625 129 703 c 1,28,-1
 167 771 l 1,29,30
 223 728 223 728 265 715.5 c 128,-1,31
 307 703 307 703 363 703 c 128,-1,32
 419 703 419 703 468.5 748.5 c 128,-1,33
 518 794 518 794 518 863 c 0,34,35
 518 1035 518 1035 325 1035 c 2,36,-1
 236 1035 l 1,37,-1
 236 1109 l 1,38,-1
 316 1109 l 2,0,1
1340 0 m 1,39,-1
 1340 218 l 1,40,-1
 965 218 l 1,41,-1
 965 289 l 1,42,-1
 1340 861 l 1,43,-1
 1433 861 l 1,44,-1
 1433 300 l 1,45,-1
 1525 300 l 1,46,-1
 1533 218 l 1,47,-1
 1433 218 l 1,48,-1
 1433 0 l 1,49,-1
 1340 0 l 1,39,-1
351 0 m 1,50,-1
 1239 1514 l 1,51,-1
 1332 1514 l 1,52,-1
 451 0 l 1,53,-1
 351 0 l 1,50,-1
1065 300 m 1,54,-1
 1340 300 l 1,55,56
 1340 492 1340 492 1340 599 c 128,-1,57
 1340 706 1340 706 1340 727 c 1,58,-1
 1065 300 l 1,54,-1
EndSplineSet
EndChar

StartChar: AE
Encoding: 198 198 134
Width: 1915
GlyphClass: 2
Flags: W
LayerCount: 2
Fore
SplineSet
6 0 m 1,0,-1
 892 1488 l 1,1,-1
 1786 1488 l 1,2,-1
 1779 1377 l 1,3,-1
 1060 1377 l 1,4,-1
 1101 822 l 1,5,-1
 1744 822 l 1,6,-1
 1744 713 l 1,7,-1
 1109 713 l 1,8,-1
 1158 111 l 1,9,-1
 1801 111 l 1,10,-1
 1790 0 l 1,11,-1
 1053 0 l 1,12,-1
 1014 505 l 1,13,-1
 441 505 l 1,14,-1
 148 0 l 1,15,-1
 6 0 l 1,0,-1
495 600 m 1,16,-1
 1006 600 l 1,17,-1
 950 1378 l 1,18,-1
 495 600 l 1,16,-1
EndSplineSet
EndChar

StartChar: Eth
Encoding: 208 208 144
AltUni2: 000110.ffffffff.0
Width: 1498
GlyphClass: 2
Flags: W
LayerCount: 2
Fore
SplineSet
310 107 m 1,0,-1
 602 107 l 2,1,2
 912 107 912 107 1074.5 265.5 c 128,-1,3
 1237 424 1237 424 1237 738 c 0,4,5
 1237 1082 1237 1082 1058 1236 c 0,6,7
 887 1382 887 1382 573 1382 c 2,8,-1
 310 1382 l 1,9,-1
 310 833 l 1,10,-1
 552 833 l 1,11,-1
 552 737 l 1,12,-1
 310 737 l 1,13,-1
 310 107 l 1,0,-1
182 0 m 1,14,-1
 182 737 l 1,15,-1
 40 737 l 1,16,-1
 40 833 l 1,17,-1
 182 833 l 1,18,-1
 182 1488 l 1,19,-1
 585 1488 l 2,20,21
 951 1488 951 1488 1160 1314 c 0,22,23
 1380 1130 1380 1130 1380 754 c 128,-1,24
 1380 378 1380 378 1179 189 c 128,-1,25
 978 0 978 0 616 0 c 2,26,-1
 182 0 l 1,14,-1
EndSplineSet
EndChar

StartChar: multiply
Encoding: 215 215 151
Width: 1101
GlyphClass: 2
Flags: W
LayerCount: 2
Fore
SplineSet
864 261 m 1,0,-1
 557 569 l 1,1,-1
 249 262 l 1,2,-1
 172 339 l 1,3,-1
 480 646 l 1,4,-1
 173 954 l 1,5,-1
 250 1031 l 1,6,-1
 557 723 l 1,7,-1
 865 1030 l 1,8,-1
 942 953 l 1,9,-1
 634 646 l 1,10,-1
 941 338 l 1,11,-1
 864 261 l 1,0,-1
EndSplineSet
EndChar

StartChar: Oslash
Encoding: 216 216 152
Width: 1627
GlyphClass: 2
Flags: W
LayerCount: 2
Fore
SplineSet
480 -229 m 1,0,-1
 391 -192 l 1,1,-1
 487 44 l 1,2,3
 306 130 306 130 212 312.5 c 128,-1,4
 118 495 118 495 118 736 c 128,-1,5
 118 977 118 977 197.5 1150 c 128,-1,6
 277 1323 277 1323 435.5 1420 c 128,-1,7
 594 1517 594 1517 816 1517 c 0,8,9
 953 1517 953 1517 1070 1477 c 1,10,-1
 1163 1706 l 1,11,-1
 1257 1673 l 1,12,-1
 1161 1437 l 1,13,14
 1329 1347 1329 1347 1419 1167 c 128,-1,15
 1509 987 1509 987 1509 743 c 0,16,17
 1510 407 1510 407 1334 196 c 0,18,19
 1248 93 1248 93 1115 35 c 128,-1,20
 982 -23 982 -23 833 -23 c 128,-1,21
 684 -23 684 -23 578 10 c 1,22,-1
 480 -229 l 1,0,-1
530 150 m 1,23,-1
 1029 1376 l 1,24,25
 932 1410 932 1410 816 1410 c 0,26,27
 544 1410 544 1410 401 1236 c 128,-1,28
 258 1062 258 1062 258 745 c 0,29,30
 258 533 258 533 326.5 379.5 c 128,-1,31
 395 226 395 226 530 150 c 1,23,-1
815 82 m 0,32,33
 998 82 998 82 1124 166 c 0,34,35
 1366 328 1366 328 1366.5 752 c 128,-1,36
 1367 1176 1367 1176 1118 1332 c 1,37,-1
 619 111 l 1,38,39
 708 82 708 82 815 82 c 0,32,33
EndSplineSet
EndChar

StartChar: Thorn
Encoding: 222 222 158
Width: 1275
GlyphClass: 2
Flags: W
LayerCount: 2
Fore
SplineSet
182 0 m 1,0,-1
 182 1488 l 1,1,-1
 310 1488 l 1,2,-1
 310 1191 l 1,3,-1
 679 1191 l 2,4,5
 960 1191 960 1191 1088 1095.5 c 128,-1,6
 1216 1000 1216 1000 1216 765 c 0,7,8
 1216 535 1216 535 1068 434 c 0,9,10
 953 356 953 356 738 356 c 2,11,-1
 310 356 l 1,12,-1
 310 0 l 1,13,-1
 182 0 l 1,0,-1
310 458 m 1,14,-1
 744 458 l 2,15,16
 939 458 939 458 1016 552 c 0,17,18
 1085 637 1085 637 1085 760.5 c 0,19,20
 1084 884 1084 884 1050 950 c 0,21,22
 979 1085 979 1085 695 1085 c 2,23,-1
 310 1085 l 1,24,-1
 310 458 l 1,14,-1
EndSplineSet
EndChar

StartChar: germandbls
Encoding: 223 223 159
Width: 1205
GlyphClass: 2
Flags: W
LayerCount: 2
Fore
SplineSet
123 0 m 1,0,-1
 123 1060 l 2,1,2
 123 1293 123 1293 230 1420.5 c 128,-1,3
 337 1548 337 1548 542.5 1548 c 128,-1,4
 748 1548 748 1548 852 1455 c 128,-1,5
 956 1362 956 1362 956 1205 c 0,6,7
 956 1076 956 1076 864 1000 c 0,8,9
 827 969 827 969 753.5 926 c 128,-1,10
 680 883 680 883 650 864 c 1,11,12
 714 811 714 811 815 750 c 128,-1,13
 916 689 916 689 971 647.5 c 128,-1,14
 1026 606 1026 606 1064 566 c 0,15,16
 1150 474 1150 474 1150 351 c 0,17,18
 1150 0 1150 0 783 0 c 2,19,-1
 416 0 l 1,20,-1
 428 108 l 1,21,-1
 807 108 l 2,22,23
 909 108 909 108 967.5 175.5 c 128,-1,24
 1026 243 1026 243 1026 347 c 0,25,26
 1026 445 1026 445 908 542 c 0,27,28
 817 617 817 617 718 677.5 c 128,-1,29
 619 738 619 738 602.5 749.5 c 128,-1,30
 586 761 586 761 571.5 771.5 c 128,-1,31
 557 782 557 782 550.5 786.5 c 128,-1,32
 544 791 544 791 535 799.5 c 128,-1,33
 526 808 526 808 522 814 c 0,34,35
 512 829 512 829 512 846 c 0,36,37
 512 905 512 905 576 945 c 0,38,39
 601 961 601 961 643.5 985.5 c 128,-1,40
 686 1010 686 1010 707.5 1023 c 128,-1,41
 729 1036 729 1036 758 1058.5 c 0,42,43
 787 1082 787 1082 801 1102 c 0,44,45
 836 1153 836 1153 836 1218 c 0,46,47
 836 1323 836 1323 767 1386 c 128,-1,48
 698 1449 698 1449 567 1449 c 0,49,50
 326 1449 326 1449 268 1225 c 0,51,52
 252 1161 252 1161 251 1082 c 2,53,-1
 251 0 l 1,54,-1
 123 0 l 1,0,-1
EndSplineSet
EndChar

StartChar: ae
Encoding: 230 230 166
Width: 1650
GlyphClass: 2
Flags: W
LayerCount: 2
Fore
SplineSet
656.5 9.5 m 128,-1,1
 536 -24 536 -24 454 -24 c 128,-1,2
 372 -24 372 -24 315.5 -8.5 c 0,3,4
 258 6 258 6 208 40 c 0,5,6
 98 113 98 113 99 289 c 0,7,8
 99 541 99 541 443 590 c 0,9,10
 548 605 548 605 686 607 c 1,11,-1
 739 607 l 1,12,-1
 739 803 l 2,13,14
 739 1009 739 1009 550 1009 c 0,15,16
 347 1009 347 1009 189 913 c 1,17,-1
 146 1019 l 1,18,19
 203 1056 203 1056 315.5 1086.5 c 128,-1,20
 428 1117 428 1117 501 1117 c 128,-1,21
 574 1117 574 1117 623.5 1104 c 128,-1,22
 673 1091 673 1091 720.5 1065 c 128,-1,23
 768 1039 768 1039 800 993 c 128,-1,24
 832 947 832 947 837 889 c 1,25,26
 873 972 873 972 934 1024 c 0,27,28
 1043 1118 1043 1118 1199 1117 c 0,29,30
 1414 1116 1414 1116 1502 922 c 0,31,32
 1546 824 1546 824 1546 722 c 128,-1,33
 1546 620 1546 620 1488.5 575.5 c 128,-1,34
 1431 531 1431 531 1293 530 c 1,35,36
 924 513 924 513 869 513 c 2,37,-1
 865 513 l 1,38,39
 872 309 872 309 951.5 192 c 128,-1,40
 1031 75 1031 75 1191 75 c 0,41,42
 1293 75 1293 75 1367 99.5 c 128,-1,43
 1441 124 1441 124 1535 175 c 1,44,-1
 1556 75 l 1,45,46
 1419 -24 1419 -24 1183 -24 c 0,47,48
 996 -24 996 -24 880 95 c 1,49,0
 777 43 777 43 656.5 9.5 c 128,-1,1
285 124 m 128,-1,51
 347 75 347 75 471.5 75 c 128,-1,52
 596 75 596 75 822 165 c 1,53,54
 777 254 777 254 757.5 332 c 128,-1,55
 738 410 738 410 732 515 c 1,56,57
 365 516 365 516 273 422 c 0,58,59
 242 390 242 390 232.5 358.5 c 128,-1,60
 223 327 223 327 223 282 c 0,61,50
 223 173 223 173 285 124 c 128,-1,51
868 607 m 1,62,63
 1273 619 1273 619 1324.5 623 c 128,-1,64
 1376 627 1376 627 1400.5 646.5 c 128,-1,65
 1425 666 1425 666 1425 713 c 0,66,67
 1425 852 1425 852 1365 931.5 c 128,-1,68
 1305 1011 1305 1011 1196 1011 c 0,69,70
 1001 1011 1001 1011 918 831 c 0,71,72
 875 737 875 737 868 607 c 1,62,63
EndSplineSet
EndChar

StartChar: eth
Encoding: 240 240 176
Width: 1194
GlyphClass: 2
Flags: W
LayerCount: 2
Fore
SplineSet
816 14 m 128,-1,1
 718 -28 718 -28 608 -28 c 128,-1,2
 498 -28 498 -28 416.5 0.5 c 128,-1,3
 335 29 335 29 278 78.5 c 0,4,5
 220 128 220 128 180 194 c 0,6,7
 100 324 100 324 101 487 c 0,8,9
 101 703 101 703 235 836.5 c 128,-1,10
 369 970 369 970 586 970 c 0,11,12
 750 970 750 970 878 861 c 0,13,14
 894 847 894 847 929 816 c 1,15,16
 883 900 883 900 771.5 1027.5 c 128,-1,17
 660 1155 660 1155 554 1252 c 1,18,-1
 272 1133 l 1,19,-1
 246 1229 l 1,20,-1
 483 1324 l 1,21,-1
 232 1546 l 1,22,-1
 390 1546 l 1,23,-1
 579 1374 l 1,24,-1
 868 1500 l 1,25,-1
 897 1408 l 1,26,-1
 649 1299 l 1,27,28
 742 1202 742 1202 774 1169.5 c 128,-1,29
 806 1137 806 1137 843 1096.5 c 128,-1,30
 880 1056 880 1056 903 1027 c 128,-1,31
 926 998 926 998 955.5 956.5 c 128,-1,32
 985 915 985 915 1003 879.5 c 128,-1,33
 1021 844 1021 844 1041 798 c 0,34,35
 1062 752 1062 752 1072 708 c 0,36,37
 1096 604 1096 604 1096 499 c 2,38,-1
 1096 492 l 2,39,40
 1096 276 1096 276 974 128 c 0,41,0
 914 56 914 56 816 14 c 128,-1,1
598 72 m 0,42,43
 773 72 773 72 873 186.5 c 128,-1,44
 973 301 973 301 973 472 c 0,45,46
 972 618 972 618 876 740 c 0,47,48
 830 798 830 798 756 835 c 128,-1,49
 682 872 682 872 582 872 c 128,-1,50
 482 872 482 872 398.5 817 c 128,-1,51
 315 762 315 762 273.5 676 c 128,-1,52
 232 590 232 590 232 501 c 128,-1,53
 232 412 232 412 254.5 339 c 128,-1,54
 277 266 277 266 320.5 205.5 c 128,-1,55
 364 145 364 145 436 108.5 c 128,-1,56
 508 72 508 72 598 72 c 0,42,43
EndSplineSet
EndChar

StartChar: divide
Encoding: 247 247 183
Width: 1099
GlyphClass: 2
Flags: W
LayerCount: 2
Fore
SplineSet
446 82 m 1,0,-1
 446 284 l 1,1,-1
 637 284 l 1,2,-1
 637 82 l 1,3,-1
 446 82 l 1,0,-1
60 554 m 1,4,-1
 60 675 l 1,5,-1
 1017 675 l 1,6,-1
 1017 554 l 1,7,-1
 60 554 l 1,4,-1
446 913 m 1,8,-1
 446 1115 l 1,9,-1
 637 1115 l 1,10,-1
 637 913 l 1,11,-1
 446 913 l 1,8,-1
EndSplineSet
EndChar

StartChar: oslash
Encoding: 248 248 184
Width: 1190
GlyphClass: 2
Flags: W
LayerCount: 2
Fore
SplineSet
284 -311 m 1,0,-1
 220 -283 l 1,1,-1
 351 38 l 1,2,3
 231 107 231 107 164 241 c 128,-1,4
 97 375 97 375 97 521 c 128,-1,5
 97 667 97 667 131.5 771.5 c 128,-1,6
 166 876 166 876 230 952 c 0,7,8
 367 1116 367 1116 600 1116 c 0,9,10
 694 1116 694 1116 778 1086 c 1,11,-1
 910 1410 l 1,12,-1
 979 1386 l 1,13,-1
 844 1055 l 1,14,15
 963 987 963 987 1028 852.5 c 128,-1,16
 1093 718 1093 718 1093 550.5 c 128,-1,17
 1093 383 1093 383 1035 255 c 128,-1,18
 977 127 977 127 862 51.5 c 128,-1,19
 747 -24 747 -24 592 -24 c 0,20,21
 498 -24 498 -24 414 7 c 1,22,-1
 284 -311 l 1,0,-1
392 139 m 1,23,-1
 739 990 l 1,24,25
 675 1015 675 1015 576 1015 c 0,26,27
 476 1014 476 1014 392 950 c 0,28,29
 230 826 230 826 230 542 c 0,30,31
 230 410 230 410 271 304 c 128,-1,32
 312 198 312 198 392 139 c 1,23,-1
454 104 m 1,33,34
 520 75 520 75 620.5 75 c 0,35,36
 722 74 722 74 804 138 c 0,37,38
 962 259 962 259 961.5 549.5 c 128,-1,39
 961 840 961 840 802 955 c 1,40,-1
 454 104 l 1,33,34
EndSplineSet
EndChar

StartChar: thorn
Encoding: 254 254 190
Width: 1175
GlyphClass: 2
Flags: W
LayerCount: 2
Fore
SplineSet
147 -488 m 1,0,-1
 147 1514 l 1,1,-1
 271 1514 l 1,2,-1
 271 907 l 1,3,4
 312 986 312 986 400.5 1050.5 c 128,-1,5
 489 1115 489 1115 611 1116 c 1,6,7
 833 1116 833 1116 955.5 966 c 128,-1,8
 1078 816 1078 816 1078 560 c 0,9,10
 1078 210 1078 210 876 56 c 0,11,12
 772 -24 772 -24 646.5 -23.5 c 128,-1,13
 521 -23 521 -23 422 29 c 128,-1,14
 323 81 323 81 271 183 c 1,15,-1
 271 -479 l 1,16,-1
 147 -488 l 1,0,-1
453.5 118.5 m 128,-1,18
 524 78 524 78 603.5 78 c 128,-1,19
 683 78 683 78 734.5 100.5 c 128,-1,20
 786 123 786 123 821 162 c 128,-1,21
 856 201 856 201 881.5 249.5 c 128,-1,22
 907 298 907 298 921 354 c 0,23,24
 948 462 948 462 948 537 c 128,-1,25
 948 612 948 612 941 659.5 c 128,-1,26
 934 707 934 707 919.5 759 c 128,-1,27
 905 811 905 811 877.5 855 c 0,28,29
 850 898 850 898 813 934 c 0,30,31
 733 1010 733 1010 599 1011 c 1,32,33
 400 1011 400 1011 317 819 c 0,34,35
 270 710 270 710 270 588 c 128,-1,36
 270 466 270 466 287.5 383.5 c 128,-1,37
 305 301 305 301 344 230 c 128,-1,17
 383 159 383 159 453.5 118.5 c 128,-1,18
EndSplineSet
EndChar

StartChar: dcroat
Encoding: 273 273 207
Width: 1183
GlyphClass: 2
Flags: W
LayerCount: 2
Fore
SplineSet
659 1254 m 1,0,-1
 659 1335 l 1,1,-1
 916 1335 l 1,2,-1
 916 1521 l 1,3,-1
 1036 1532 l 1,4,-1
 1036 1335 l 1,5,-1
 1138 1335 l 1,6,-1
 1138 1254 l 1,7,-1
 1036 1254 l 1,8,-1
 1036 0 l 1,9,-1
 933 0 l 1,10,-1
 915 165 l 1,11,12
 858 72 858 72 760.5 24.5 c 128,-1,13
 663 -23 663 -23 561 -23 c 0,14,15
 342 -23 342 -23 219.5 129 c 128,-1,16
 97 281 97 281 97 541 c 128,-1,17
 97 801 97 801 223.5 958.5 c 128,-1,18
 350 1116 350 1116 557 1116 c 0,19,20
 659 1116 659 1116 761 1072 c 128,-1,21
 863 1028 863 1028 916 935 c 1,22,-1
 916 1254 l 1,23,-1
 659 1254 l 1,0,-1
570 75 m 1,24,25
 652 75 652 75 721.5 109 c 128,-1,26
 791 143 791 143 833 205 c 0,27,28
 916 328 916 328 916 526 c 0,29,30
 916 1015 916 1015 556 1015 c 0,31,32
 471 1015 471 1015 406 974.5 c 0,33,34
 342 934 342 934 304 866 c 0,35,36
 230 732 230 732 230 547 c 0,37,38
 230 298 230 298 339 170 c 0,39,40
 420 76 420 76 570 75 c 1,24,25
EndSplineSet
EndChar

StartChar: gcommaaccent
Encoding: 291 291 221
Width: 1150
GlyphClass: 2
Flags: W
LayerCount: 2
Fore
SplineSet
508 1275 m 1,0,-1
 673 1762 l 1,1,-1
 771 1762 l 1,2,-1
 661 1275 l 1,3,-1
 508 1275 l 1,0,-1
912 198 m 1,4,5
 781 0 781 0 553 0 c 0,6,7
 455 0 455 0 374.5 35 c 128,-1,8
 294 70 294 70 242.5 126 c 128,-1,9
 191 182 191 182 156 254 c 0,10,11
 91 388 91 388 91 539 c 0,12,13
 91 834 91 834 246 994 c 0,14,15
 365 1116 365 1116 577 1116 c 0,16,17
 682 1116 682 1116 762.5 1074.5 c 128,-1,18
 843 1033 843 1033 912 942 c 1,19,-1
 924 1096 l 1,20,-1
 1034 1096 l 1,21,-1
 1034 80 l 2,22,23
 1034 -148 1034 -148 992 -250 c 0,24,25
 974 -294 974 -294 935.5 -348.5 c 0,26,27
 898 -403 898 -403 844 -434 c 0,28,29
 715 -509 715 -509 517 -509 c 2,30,-1
 316 -509 l 1,31,-1
 301 -398 l 1,32,-1
 533 -398 l 2,33,34
 758 -398 758 -398 838 -290 c 0,35,36
 893 -216 893 -216 904 -135 c 0,37,38
 919 -26 919 -26 919 43.5 c 0,39,40
 920 114 920 114 916 156 c 2,41,-1
 912 198 l 1,4,5
566 101 m 1,42,43
 642 101 642 101 701 124.5 c 128,-1,44
 760 148 760 148 798.5 186.5 c 0,45,46
 838 225 838 225 864 277 c 0,47,48
 912 372 912 372 912 499 c 2,49,-1
 912 613 l 2,50,51
 912 773 912 773 834 889 c 0,52,53
 749 1016 749 1016 566 1016 c 0,54,55
 359 1016 359 1016 271 800 c 0,56,57
 224 685 224 685 224 537 c 0,58,59
 224 322 224 322 330 200 c 0,60,61
 416 102 416 102 566 101 c 1,42,43
EndSplineSet
EndChar

StartChar: Hbar
Encoding: 294 294 224
Width: 1450
GlyphClass: 2
Flags: W
LayerCount: 2
Fore
SplineSet
155 0 m 1,0,-1
 155 1125 l 1,1,-1
 62 1125 l 1,2,-1
 62 1212 l 1,3,-1
 155 1212 l 1,4,-1
 155 1521 l 1,5,-1
 290 1521 l 1,6,-1
 290 1212 l 1,7,-1
 1162 1212 l 1,8,-1
 1162 1521 l 1,9,-1
 1297 1521 l 1,10,-1
 1297 1212 l 1,11,-1
 1389 1212 l 1,12,-1
 1389 1125 l 1,13,-1
 1297 1125 l 1,14,-1
 1297 0 l 1,15,-1
 1162 0 l 1,16,-1
 1162 721 l 1,17,-1
 290 721 l 1,18,-1
 290 0 l 1,19,-1
 155 0 l 1,0,-1
290 845 m 1,20,-1
 1162 845 l 1,21,-1
 1162 1125 l 1,22,-1
 290 1125 l 1,23,-1
 290 845 l 1,20,-1
EndSplineSet
EndChar

StartChar: hbar
Encoding: 295 295 225
Width: 1077
GlyphClass: 2
Flags: W
LayerCount: 2
Fore
SplineSet
652 1127 m 0,0,1
 967 1127 967 1127 967 662 c 2,2,-1
 967 0 l 1,3,-1
 839 0 l 1,4,-1
 839 593 l 2,5,6
 839 776 839 776 819 848 c 0,7,8
 798 920 798 920 772 950 c 0,9,10
 716 1014 716 1014 600 1015 c 0,11,12
 464 1016 464 1016 358 924 c 0,13,14
 258 837 258 837 246 750 c 1,15,-1
 246 0 l 1,16,-1
 117 0 l 1,17,-1
 117 1300 l 1,18,-1
 28 1300 l 1,19,-1
 28 1403 l 1,20,-1
 117 1403 l 1,21,-1
 117 1486 l 1,22,-1
 246 1507 l 1,23,-1
 246 1403 l 1,24,-1
 512 1403 l 1,25,-1
 512 1300 l 1,26,-1
 246 1300 l 1,27,-1
 246 933 l 1,28,29
 394 1127 394 1127 652 1127 c 0,0,1
EndSplineSet
EndChar

StartChar: dotlessi
Encoding: 305 305 235
Width: 376
GlyphClass: 2
Flags: W
LayerCount: 2
Fore
SplineSet
138 0 m 1,0,-1
 138 1096 l 1,1,-1
 263 1096 l 1,2,-1
 263 0 l 1,3,-1
 138 0 l 1,0,-1
EndSplineSet
EndChar

StartChar: kgreenlandic
Encoding: 312 312 242
Width: 986
GlyphClass: 2
Flags: W
LayerCount: 2
Fore
SplineSet
149 0 m 1,0,-1
 149 1096 l 1,1,-1
 272 1096 l 1,2,-1
 272 541 l 1,3,4
 281 552 281 552 336 612 c 128,-1,5
 391 672 391 672 398 680 c 2,6,-1
 777 1096 l 1,7,-1
 944 1096 l 1,8,-1
 485 611 l 1,9,-1
 976 0 l 1,10,-1
 819 0 l 1,11,-1
 400 541 l 1,12,-1
 272 423 l 1,13,-1
 272 0 l 1,14,-1
 149 0 l 1,0,-1
EndSplineSet
EndChar

StartChar: Lslash
Encoding: 321 321 248
Width: 998
GlyphClass: 2
Flags: W
LayerCount: 2
Fore
SplineSet
9 545 m 1,0,-1
 9 669 l 1,1,-1
 182 757 l 1,2,-1
 182 1488 l 1,3,-1
 311 1488 l 1,4,-1
 311 823 l 1,5,-1
 653 998 l 1,6,-1
 653 867 l 1,7,-1
 311 696 l 1,8,-1
 311 113 l 1,9,-1
 980 113 l 1,10,-1
 974 0 l 1,11,-1
 182 0 l 1,12,-1
 182 632 l 1,13,-1
 9 545 l 1,0,-1
EndSplineSet
EndChar

StartChar: lslash
Encoding: 322 322 249
Width: 548
GlyphClass: 2
Flags: W
LayerCount: 2
Fore
SplineSet
579 -12 m 1,0,1
 470 -25 470 -25 414 -25 c 128,-1,2
 358 -25 358 -25 328.5 -22 c 128,-1,3
 299 -19 299 -19 275 -9.5 c 128,-1,4
 251 0 251 0 233 9.5 c 128,-1,5
 215 19 215 19 201 40 c 128,-1,6
 187 61 187 61 177.5 79 c 128,-1,7
 168 97 168 97 161.5 132 c 128,-1,8
 155 167 155 167 151.5 195 c 128,-1,9
 148 223 148 223 146 274 c 0,10,11
 143 350 143 350 143 474 c 2,12,-1
 143 493 l 1,13,-1
 31 394 l 1,14,-1
 31 514 l 1,15,-1
 143 613 l 1,16,-1
 143 1487 l 1,17,-1
 272 1507 l 1,18,-1
 272 729 l 1,19,-1
 456 892 l 1,20,-1
 456 770 l 1,21,-1
 272 608 l 1,22,-1
 272 352 l 2,23,24
 272 192 272 192 290 150.5 c 128,-1,25
 308 109 308 109 319 101.5 c 128,-1,26
 330 94 330 94 344 87 c 0,27,28
 365 76 365 76 399.5 76 c 128,-1,29
 434 76 434 76 564 88 c 1,30,-1
 579 -12 l 1,0,1
EndSplineSet
EndChar

StartChar: OE
Encoding: 338 338 262
Width: 1949
GlyphClass: 2
Flags: W
LayerCount: 2
Fore
SplineSet
817 -23 m 0,0,1
 296 -23 296 -23 160 452 c 0,2,3
 118 599 118 599 118 774 c 128,-1,4
 118 949 118 949 169.5 1086 c 128,-1,5
 221 1223 221 1223 311 1316.5 c 128,-1,6
 401 1410 401 1410 527 1462 c 128,-1,7
 653 1514 653 1514 780 1514 c 0,8,9
 1024 1514 1024 1514 1139 1435 c 1,10,-1
 1139 1488 l 1,11,-1
 1813 1488 l 1,12,-1
 1797 1382 l 1,13,-1
 1267 1382 l 1,14,-1
 1267 822 l 1,15,-1
 1758 822 l 1,16,-1
 1758 713 l 1,17,-1
 1267 713 l 1,18,-1
 1267 107 l 1,19,-1
 1835 107 l 1,20,-1
 1821 0 l 1,21,-1
 1139 0 l 1,22,-1
 1139 60 l 1,23,24
 1120 37 1120 37 1008.5 7 c 128,-1,25
 897 -23 897 -23 817 -23 c 0,0,1
819 82 m 0,26,27
 1003 82 1003 82 1139 175 c 1,28,-1
 1139 1318 l 1,29,30
 1004 1407 1004 1407 807 1407 c 0,31,32
 553 1407 553 1407 405.5 1241.5 c 128,-1,33
 258 1076 258 1076 258 771 c 0,34,35
 258 392 258 392 432 218 c 0,36,37
 568 82 568 82 819 82 c 0,26,27
EndSplineSet
EndChar

StartChar: oe
Encoding: 339 339 263
Width: 1930
GlyphClass: 2
Flags: W
LayerCount: 2
Fore
SplineSet
1836 608 m 1,0,-1
 1835 533 l 1,1,-1
 1082 533 l 1,2,3
 1084 322 1084 322 1184 198.5 c 128,-1,4
 1284 75 1284 75 1448 75 c 0,5,6
 1548 75 1548 75 1601 94 c 0,7,8
 1654 112 1654 112 1673 120 c 0,9,10
 1705 132 1705 132 1789 179 c 1,11,-1
 1810 78 l 1,12,13
 1725 26 1725 26 1641.5 1 c 128,-1,14
 1558 -24 1558 -24 1424 -24 c 128,-1,15
 1290 -24 1290 -24 1181 51 c 128,-1,16
 1072 126 1072 126 1019 264 c 1,17,18
 964 129 964 129 853.5 52.5 c 128,-1,19
 743 -24 743 -24 590 -24 c 128,-1,20
 437 -24 437 -24 325 51 c 128,-1,21
 213 126 213 126 155 254.5 c 128,-1,22
 97 383 97 383 97 546 c 128,-1,23
 97 709 97 709 154.5 837 c 128,-1,24
 212 965 212 965 326 1040.5 c 128,-1,25
 440 1116 440 1116 595 1116 c 128,-1,26
 750 1116 750 1116 858 1039.5 c 128,-1,27
 966 963 966 963 1020 828 c 1,28,29
 1073 962 1073 962 1176 1037.5 c 128,-1,30
 1279 1113 1279 1113 1419 1116 c 1,31,32
 1611 1116 1611 1116 1723.5 978.5 c 128,-1,33
 1836 841 1836 841 1836 608 c 1,0,-1
594 75 m 0,34,35
 685 75 685 75 754.5 111 c 0,36,37
 824 148 824 148 866 212 c 0,38,39
 950 340 950 340 951 545 c 0,40,41
 951 752 951 752 868 880 c 0,42,43
 780 1016 780 1016 591 1015 c 1,44,45
 471 1014 471 1014 388 950 c 0,46,47
 230 827 230 827 230 542 c 0,48,49
 230 340 230 340 318 212 c 0,50,51
 411 76 411 76 594 75 c 0,34,35
1087 633 m 1,52,-1
 1701 633 l 1,53,-1
 1701 644 l 1,54,55
 1699 823 1699 823 1624 917 c 128,-1,56
 1549 1011 1549 1011 1412 1011 c 128,-1,57
 1275 1011 1275 1011 1189 907 c 128,-1,58
 1103 803 1103 803 1087 633 c 1,52,-1
EndSplineSet
EndChar

StartChar: uni0237
Encoding: 567 567 341
Width: 406
GlyphClass: 2
Flags: W
LayerCount: 2
Fore
SplineSet
-63 -594 m 1,0,-1
 -92 -473 l 1,1,-1
 -33 -473 l 2,2,3
 67 -474 67 -474 101 -448 c 0,4,5
 115 -438 115 -438 124.5 -429.5 c 128,-1,6
 134 -421 134 -421 140.5 -402 c 128,-1,7
 147 -383 147 -383 150 -371 c 0,8,9
 152 -359 152 -359 154 -332 c 0,10,11
 156 -287 156 -287 157 -237 c 2,12,-1
 157 1104 l 1,13,-1
 294 1104 l 1,14,-1
 294 -296 l 2,15,16
 294 -389 294 -389 282 -443.5 c 128,-1,17
 270 -498 270 -498 235.5 -533.5 c 128,-1,18
 201 -569 201 -569 145.5 -581.5 c 128,-1,19
 90 -594 90 -594 -5 -594 c 2,20,-1
 -63 -594 l 1,0,-1
EndSplineSet
EndChar

StartChar: circumflex
Encoding: 710 710 342
Width: 812
GlyphClass: 2
Flags: W
LayerCount: 2
Fore
SplineSet
136 1310 m 1,0,-1
 304 1669 l 1,1,-1
 496 1669 l 1,2,-1
 667 1310 l 1,3,-1
 576 1310 l 1,4,-1
 401 1605 l 1,5,-1
 225 1310 l 1,6,-1
 136 1310 l 1,0,-1
EndSplineSet
EndChar

StartChar: caron
Encoding: 711 711 343
Width: 812
GlyphClass: 2
Flags: W
LayerCount: 2
Fore
SplineSet
307 1310 m 1,0,-1
 136 1669 l 1,1,-1
 227 1669 l 1,2,-1
 402 1374 l 1,3,-1
 578 1669 l 1,4,-1
 667 1669 l 1,5,-1
 499 1310 l 1,6,-1
 307 1310 l 1,0,-1
EndSplineSet
EndChar

StartChar: breve
Encoding: 728 728 344
Width: 774
GlyphClass: 2
Flags: W
LayerCount: 2
Fore
SplineSet
556 1423 m 128,-1,1
 488 1356 488 1356 390 1356 c 128,-1,2
 292 1356 292 1356 225.5 1422.5 c 128,-1,3
 159 1489 159 1489 159 1608 c 1,4,-1
 251 1608 l 1,5,6
 251 1522 251 1522 287 1478 c 128,-1,7
 323 1434 323 1434 389 1434 c 128,-1,8
 455 1434 455 1434 492.5 1478 c 128,-1,9
 530 1522 530 1522 530 1608 c 1,10,-1
 624 1608 l 1,11,0
 624 1490 624 1490 556 1423 c 128,-1,1
EndSplineSet
EndChar

StartChar: dotaccent
Encoding: 729 729 345
Width: 352
GlyphClass: 2
Flags: W
LayerCount: 2
Fore
SplineSet
106 1331 m 1,0,-1
 106 1516 l 1,1,-1
 259 1516 l 1,2,-1
 259 1331 l 1,3,-1
 106 1331 l 1,0,-1
EndSplineSet
EndChar

StartChar: ring
Encoding: 730 730 346
Width: 621
GlyphClass: 2
Flags: W
LayerCount: 2
Fore
SplineSet
314 1388 m 128,-1,1
 352 1388 352 1388 379.5 1416.5 c 128,-1,2
 407 1445 407 1445 407 1495 c 0,3,4
 406 1545 406 1545 378.5 1573.5 c 128,-1,5
 351 1602 351 1602 313 1602 c 128,-1,6
 275 1602 275 1602 247.5 1573.5 c 128,-1,7
 220 1545 220 1545 220 1494.5 c 128,-1,8
 220 1444 220 1444 248 1416 c 128,-1,0
 276 1388 276 1388 314 1388 c 128,-1,1
441.5 1363.5 m 128,-1,10
 388 1317 388 1317 314 1317 c 128,-1,11
 240 1317 240 1317 184.5 1364.5 c 128,-1,12
 129 1412 129 1412 129 1496 c 128,-1,13
 129 1580 129 1580 183 1626.5 c 128,-1,14
 237 1673 237 1673 311.5 1673 c 128,-1,15
 386 1673 386 1673 440.5 1625.5 c 128,-1,16
 495 1578 495 1578 495 1494 c 128,-1,9
 495 1410 495 1410 441.5 1363.5 c 128,-1,10
EndSplineSet
EndChar

StartChar: ogonek
Encoding: 731 731 347
Width: 596
GlyphClass: 2
Flags: W
LayerCount: 2
Fore
SplineSet
447 -408 m 1,0,1
 373 -437 373 -437 299 -437 c 128,-1,2
 225 -437 225 -437 172.5 -388.5 c 128,-1,3
 120 -340 120 -340 120 -258 c 0,4,5
 120 -131 120 -131 333 -14 c 1,6,-1
 428 -14 l 1,7,8
 324 -93 324 -93 273 -145.5 c 128,-1,9
 222 -198 222 -198 222 -243 c 128,-1,10
 222 -288 222 -288 251.5 -312.5 c 128,-1,11
 281 -337 281 -337 312.5 -337 c 128,-1,12
 344 -337 344 -337 356 -336 c 0,13,14
 388 -333 388 -333 447 -307 c 1,15,-1
 447 -408 l 1,0,1
EndSplineSet
EndChar

StartChar: tilde
Encoding: 732 732 348
Width: 930
GlyphClass: 2
Flags: W
LayerCount: 2
Fore
SplineSet
150 1336 m 1,0,1
 153 1443 153 1443 194.5 1482.5 c 128,-1,2
 236 1522 236 1522 295.5 1522 c 128,-1,3
 355 1522 355 1522 452 1474 c 128,-1,4
 549 1426 549 1426 569 1426 c 128,-1,5
 589 1426 589 1426 600 1435 c 128,-1,6
 611 1444 611 1444 617 1462 c 0,7,8
 626 1488 626 1488 629 1522 c 1,9,-1
 720 1522 l 1,10,11
 716 1421 716 1421 680.5 1378.5 c 128,-1,12
 645 1336 645 1336 590 1336 c 128,-1,13
 535 1336 535 1336 429.5 1387.5 c 128,-1,14
 324 1439 324 1439 301 1439 c 0,15,16
 248 1439 248 1439 240 1336 c 1,17,-1
 150 1336 l 1,0,1
EndSplineSet
EndChar

StartChar: hungarumlaut
Encoding: 733 733 349
Width: 741
GlyphClass: 2
Flags: W
LayerCount: 2
Fore
SplineSet
118 1328 m 1,0,-1
 294 1646 l 1,1,-1
 414 1646 l 1,2,-1
 201 1328 l 1,3,-1
 118 1328 l 1,0,-1
315 1328 m 1,4,-1
 497 1646 l 1,5,-1
 612 1646 l 1,6,-1
 403 1328 l 1,7,-1
 315 1328 l 1,4,-1
EndSplineSet
EndChar

StartChar: uni030F
Encoding: 783 783 350
Width: 797
GlyphClass: 2
Flags: W
LayerCount: 2
Fore
SplineSet
379 1300 m 1,0,-1
 158 1633 l 1,1,-1
 251 1633 l 1,2,-1
 449 1300 l 1,3,-1
 379 1300 l 1,0,-1
603 1300 m 1,4,-1
 379 1633 l 1,5,-1
 481 1633 l 1,6,-1
 665 1300 l 1,7,-1
 603 1300 l 1,4,-1
EndSplineSet
EndChar

StartChar: uni0311
Encoding: 785 785 351
Width: 792
GlyphClass: 2
Flags: W
LayerCount: 2
Fore
SplineSet
167 1345 m 1,0,1
 167 1455 167 1455 235.5 1516 c 128,-1,2
 304 1577 304 1577 398 1577 c 0,3,4
 492 1577 492 1577 562 1515.5 c 128,-1,5
 632 1454 632 1454 632 1345 c 1,6,-1
 538 1345 l 1,7,8
 538 1413 538 1413 496.5 1451.5 c 128,-1,9
 455 1490 455 1490 398 1490 c 128,-1,10
 341 1490 341 1490 300 1452 c 128,-1,11
 259 1414 259 1414 259 1345 c 1,12,-1
 167 1345 l 1,0,1
EndSplineSet
EndChar

StartChar: uni0326
Encoding: 806 806 352
Width: 552
GlyphClass: 2
Flags: W
LayerCount: 2
Fore
SplineSet
170 -671 m 1,0,-1
 257 -185 l 1,1,-1
 396 -185 l 1,2,-1
 264 -671 l 1,3,-1
 170 -671 l 1,0,-1
EndSplineSet
EndChar

StartChar: endash
Encoding: 8211 8211 361
Width: 1024
GlyphClass: 2
Flags: W
LayerCount: 2
Fore
SplineSet
93 531 m 1,0,-1
 93 641 l 1,1,-1
 931 641 l 1,2,-1
 931 531 l 1,3,-1
 93 531 l 1,0,-1
EndSplineSet
EndChar

StartChar: emdash
Encoding: 8212 8212 362
Width: 2048
GlyphClass: 2
Flags: W
LayerCount: 2
Fore
SplineSet
93 531 m 1,0,-1
 93 641 l 1,1,-1
 1955 641 l 1,2,-1
 1955 531 l 1,3,-1
 93 531 l 1,0,-1
EndSplineSet
EndChar

StartChar: quoteleft
Encoding: 8216 8216 363
Width: 541
GlyphClass: 2
Flags: W
LayerCount: 2
Fore
SplineSet
104 1161 m 1,0,-1
 344 1619 l 1,1,-1
 420 1619 l 1,2,-1
 258 1161 l 1,3,-1
 104 1161 l 1,0,-1
EndSplineSet
EndChar

StartChar: quoteright
Encoding: 8217 8217 364
Width: 532
GlyphClass: 2
Flags: W
LayerCount: 2
Fore
SplineSet
166 1161 m 1,0,-1
 252 1619 l 1,1,-1
 382 1619 l 1,2,-1
 259 1161 l 1,3,-1
 166 1161 l 1,0,-1
EndSplineSet
EndChar

StartChar: quotesinglbase
Encoding: 8218 8218 365
Width: 480
GlyphClass: 2
Flags: W
LayerCount: 2
Fore
SplineSet
130 -240 m 1,0,-1
 215 218 l 1,1,-1
 349 218 l 1,2,-1
 227 -240 l 1,3,-1
 130 -240 l 1,0,-1
EndSplineSet
EndChar

StartChar: quotedblleft
Encoding: 8220 8220 366
Width: 854
GlyphClass: 2
Flags: W
LayerCount: 2
Fore
SplineSet
104 1161 m 1,0,-1
 341 1619 l 1,1,-1
 420 1619 l 1,2,-1
 259 1161 l 1,3,-1
 104 1161 l 1,0,-1
419 1161 m 1,4,-1
 653 1619 l 1,5,-1
 732 1619 l 1,6,-1
 573 1161 l 1,7,-1
 419 1161 l 1,4,-1
EndSplineSet
EndChar

StartChar: quotedblright
Encoding: 8221 8221 367
Width: 723
GlyphClass: 2
Flags: W
LayerCount: 2
Fore
SplineSet
113 1161 m 1,0,-1
 200 1619 l 1,1,-1
 335 1619 l 1,2,-1
 206 1161 l 1,3,-1
 113 1161 l 1,0,-1
394 1161 m 1,4,-1
 481 1619 l 1,5,-1
 619 1619 l 1,6,-1
 492 1161 l 1,7,-1
 394 1161 l 1,4,-1
EndSplineSet
EndChar

StartChar: quotedblbase
Encoding: 8222 8222 368
Width: 734
GlyphClass: 2
Flags: W
LayerCount: 2
Fore
SplineSet
111 -240 m 1,0,-1
 192 218 l 1,1,-1
 321 218 l 1,2,-1
 204 -240 l 1,3,-1
 111 -240 l 1,0,-1
409 -240 m 1,4,-1
 487 218 l 1,5,-1
 621 218 l 1,6,-1
 498 -240 l 1,7,-1
 409 -240 l 1,4,-1
EndSplineSet
EndChar

StartChar: daggerdbl
Encoding: 8225 8225 369
Width: 879
GlyphClass: 2
Flags: W
LayerCount: 2
Fore
SplineSet
491 474 m 1,0,-1
 491 1 l 1,1,-1
 387 1 l 1,2,-1
 387 474 l 1,3,-1
 98 474 l 1,4,-1
 98 553 l 1,5,-1
 387 553 l 1,6,-1
 387 968 l 1,7,-1
 98 968 l 1,8,-1
 98 1047 l 1,9,-1
 387 1047 l 1,10,-1
 387 1488 l 1,11,-1
 486 1488 l 1,12,-1
 486 1047 l 1,13,-1
 781 1047 l 1,14,-1
 781 968 l 1,15,-1
 491 968 l 1,16,-1
 491 553 l 1,17,-1
 781 553 l 1,18,-1
 781 474 l 1,19,-1
 491 474 l 1,0,-1
EndSplineSet
EndChar

StartChar: bullet
Encoding: 8226 8226 370
Width: 808
GlyphClass: 2
Flags: W
LayerCount: 2
Fore
SplineSet
594.5 610 m 128,-1,1
 526 535 526 535 403 535 c 128,-1,2
 280 535 280 535 212.5 608 c 128,-1,3
 145 681 145 681 145 783.5 c 128,-1,4
 145 886 145 886 214 962.5 c 128,-1,5
 283 1039 283 1039 404.5 1039 c 128,-1,6
 526 1039 526 1039 594.5 964 c 128,-1,7
 663 889 663 889 663 787 c 128,-1,0
 663 685 663 685 594.5 610 c 128,-1,1
EndSplineSet
EndChar

StartChar: guilsinglleft
Encoding: 8249 8249 371
Width: 636
GlyphClass: 2
Flags: W
LayerCount: 2
Fore
SplineSet
372 187 m 1,0,-1
 150 593 l 1,1,-1
 377 993 l 1,2,-1
 488 993 l 1,3,-1
 270 593 l 1,4,-1
 483 187 l 1,5,-1
 372 187 l 1,0,-1
EndSplineSet
EndChar

StartChar: guilsinglright
Encoding: 8250 8250 372
Width: 632
GlyphClass: 2
Flags: W
LayerCount: 2
Fore
SplineSet
155 187 m 1,0,-1
 373 595 l 1,1,-1
 161 993 l 1,2,-1
 272 993 l 1,3,-1
 493 595 l 1,4,-1
 267 187 l 1,5,-1
 155 187 l 1,0,-1
EndSplineSet
EndChar

StartChar: fraction
Encoding: 8260 8260 373
Width: 1115
GlyphClass: 2
Flags: W
LayerCount: 2
Fore
SplineSet
69 0 m 1,0,-1
 934 1597 l 1,1,-1
 1033 1597 l 1,2,-1
 169 0 l 1,3,-1
 69 0 l 1,0,-1
EndSplineSet
EndChar

StartChar: uni2074
Encoding: 8308 8308 374
Width: 705
GlyphClass: 2
Flags: W
LayerCount: 2
Fore
SplineSet
455 684 m 1,0,-1
 455 908 l 1,1,-1
 134 908 l 1,2,-1
 134 992 l 1,3,4
 149 1019 149 1019 285 1276 c 1,5,-1
 441 1567 l 1,6,-1
 541 1567 l 1,7,-1
 541 994 l 1,8,-1
 631 994 l 1,9,-1
 639 908 l 1,10,-1
 539 908 l 1,11,-1
 539 684 l 1,12,-1
 455 684 l 1,0,-1
218 994 m 1,13,-1
 454 994 l 1,14,15
 454 1391 454 1391 456 1433 c 1,16,-1
 218 994 l 1,13,-1
EndSplineSet
EndChar

StartChar: Euro
Encoding: 8364 8364 375
Width: 1286
GlyphClass: 2
Flags: W
LayerCount: 2
Fore
SplineSet
-1 829 m 1,0,-1
 -1 936 l 1,1,-1
 135 936 l 1,2,3
 184 1200 184 1200 364 1357 c 128,-1,4
 544 1514 544 1514 806.5 1514 c 128,-1,5
 1069 1514 1069 1514 1240 1412 c 1,6,-1
 1179 1313 l 1,7,8
 1023 1407 1023 1407 814 1407 c 128,-1,9
 605 1407 605 1407 464.5 1278.5 c 128,-1,10
 324 1150 324 1150 279 936 c 1,11,-1
 941 936 l 1,12,-1
 941 829 l 1,13,-1
 264 829 l 1,14,15
 260 773 260 773 260 731 c 128,-1,16
 260 689 260 689 264 646 c 1,17,-1
 940 646 l 1,18,-1
 940 538 l 1,19,-1
 281 538 l 1,20,21
 324 336 324 336 456 214 c 0,22,23
 595 84 595 84 832 84 c 1,24,25
 989 84 989 84 1182 171 c 1,26,-1
 1208 68 l 1,27,28
 1062 -23 1062 -23 796 -23 c 128,-1,29
 530 -23 530 -23 358 128 c 128,-1,30
 186 279 186 279 137 538 c 1,31,-1
 0 538 l 1,32,-1
 0 646 l 1,33,-1
 122 646 l 1,34,35
 118 691 118 691 118 740.5 c 128,-1,36
 118 790 118 790 121 829 c 1,37,-1
 -1 829 l 1,0,-1
EndSplineSet
EndChar

StartChar: trademark
Encoding: 8482 8482 376
Width: 1808
GlyphClass: 2
Flags: W
LayerCount: 2
Fore
SplineSet
871 571 m 1,0,-1
 871 1513 l 1,1,-1
 1001 1513 l 1,2,-1
 1292 758 l 1,3,-1
 1597 1513 l 1,4,-1
 1723 1513 l 1,5,-1
 1723 571 l 1,6,-1
 1630 571 l 1,7,-1
 1630 1438 l 1,8,-1
 1324 677 l 1,9,-1
 1246 677 l 1,10,-1
 958 1442 l 1,11,-1
 958 571 l 1,12,-1
 871 571 l 1,0,-1
361 571 m 1,13,-1
 361 1441 l 1,14,-1
 99 1441 l 1,15,-1
 99 1513 l 1,16,-1
 724 1513 l 1,17,-1
 724 1441 l 1,18,-1
 451 1441 l 1,19,-1
 451 571 l 1,20,-1
 361 571 l 1,13,-1
EndSplineSet
EndChar

StartChar: product
Encoding: 8719 8719 377
Width: 1240
GlyphClass: 2
Flags: W
LayerCount: 2
Fore
SplineSet
105 0 m 1,0,-1
 105 1488 l 1,1,-1
 1135 1488 l 1,2,-1
 1135 0 l 1,3,-1
 1007 0 l 1,4,-1
 1007 1376 l 1,5,-1
 233 1376 l 1,6,-1
 233 0 l 1,7,-1
 105 0 l 1,0,-1
EndSplineSet
EndChar

StartChar: integral
Encoding: 8747 8747 378
Width: 943
GlyphClass: 2
Flags: W
LayerCount: 2
Fore
SplineSet
164 -352.5 m 128,-1,1
 135 -359 135 -359 93.5 -359 c 128,-1,2
 52 -359 52 -359 11 -335 c 1,3,-1
 34 -247 l 1,4,5
 63 -260 63 -260 96 -260 c 0,6,7
 208 -260 208 -260 250 -11 c 2,8,-1
 460 1231 l 1,9,10
 496 1440 496 1440 568 1516 c 0,11,12
 637 1588 637 1588 752 1588 c 0,13,14
 801 1588 801 1588 865 1568 c 1,15,-1
 858 1471 l 1,16,17
 807 1491 807 1491 750 1491 c 128,-1,18
 693 1491 693 1491 650 1435 c 128,-1,19
 607 1379 607 1379 593 1287 c 1,20,-1
 393 84 l 2,21,22
 364 -89 364 -89 349 -136 c 128,-1,23
 334 -183 334 -183 320.5 -214.5 c 128,-1,24
 307 -246 307 -246 292.5 -266 c 128,-1,25
 278 -286 278 -286 258.5 -305.5 c 128,-1,26
 239 -325 239 -325 216 -335.5 c 128,-1,0
 193 -346 193 -346 164 -352.5 c 128,-1,1
EndSplineSet
EndChar

StartChar: uniFB01
Encoding: 64257 64257 379
Width: 1044
GlyphClass: 3
Flags: W
LayerCount: 2
Fore
SplineSet
180 0 m 1,0,-1
 180 1005 l 1,1,-1
 24 1005 l 1,2,-1
 24 1098 l 1,3,-1
 180 1098 l 1,4,5
 180 1308 180 1308 224 1398 c 0,6,7
 266 1483 266 1483 336 1507 c 0,8,9
 405 1531 405 1531 521 1531 c 2,10,-1
 597 1531 l 1,11,-1
 616 1444 l 1,12,-1
 511 1444 l 2,13,14
 374 1444 374 1444 340 1372 c 0,15,16
 313 1317 313 1317 311 1242 c 128,-1,17
 309 1167 309 1167 309 1115 c 2,18,-1
 309 1107 l 1,19,-1
 308 1098 l 1,20,-1
 907 1098 l 1,21,-1
 907 0 l 1,22,-1
 778 0 l 1,23,-1
 778 1005 l 1,24,-1
 308 1005 l 1,25,-1
 308 0 l 1,26,-1
 180 0 l 1,0,-1
778 1324 m 1,27,-1
 778 1505 l 1,28,-1
 907 1505 l 1,29,-1
 907 1324 l 1,30,-1
 778 1324 l 1,27,-1
EndSplineSet
Ligature2: "'liga' Standard Ligatures lookup 0 subtable" f i
EndChar

StartChar: uniFB02
Encoding: 64258 64258 380
Width: 1219
GlyphClass: 3
Flags: W
LayerCount: 2
Fore
SplineSet
1061 -23 m 0,0,1
 923 -23 923 -23 859 39.5 c 128,-1,2
 795 102 795 102 795 243 c 2,3,-1
 795 1439 l 1,4,5
 574 1463 574 1463 537 1463 c 0,6,7
 423 1463 423 1463 381.5 1389.5 c 128,-1,8
 340 1316 340 1316 340 1131 c 2,9,-1
 340 1096 l 1,10,-1
 607 1096 l 1,11,-1
 607 1005 l 1,12,-1
 340 1005 l 1,13,-1
 340 0 l 1,14,-1
 216 0 l 1,15,-1
 216 1005 l 1,16,-1
 36 1005 l 1,17,-1
 44 1082 l 1,18,-1
 216 1096 l 1,19,-1
 216 1137 l 2,20,21
 216 1352 216 1352 291.5 1450.5 c 128,-1,22
 367 1549 367 1549 523 1549 c 0,23,24
 593 1549 593 1549 663 1540 c 128,-1,25
 733 1531 733 1531 762 1527.5 c 128,-1,26
 791 1524 791 1524 849.5 1515 c 128,-1,27
 908 1506 908 1506 917 1505 c 1,28,-1
 917 250 l 2,29,30
 917 150 917 150 953.5 112 c 128,-1,31
 990 74 990 74 1057 74 c 128,-1,32
 1124 74 1124 74 1214 97 c 1,33,-1
 1219 1 l 1,34,35
 1121 -23 1121 -23 1061 -23 c 0,0,1
EndSplineSet
Ligature2: "'liga' Standard Ligatures lookup 0 subtable" f l
EndChar

StartChar: uniFB00
Encoding: 64256 64256 381
Width: 1171
GlyphClass: 3
Flags: W
LayerCount: 2
Fore
SplineSet
749 0 m 1,0,-1
 749 1005 l 1,1,-1
 340 1005 l 1,2,-1
 340 0 l 1,3,-1
 216 0 l 1,4,-1
 216 1005 l 1,5,-1
 36 1005 l 1,6,-1
 44 1082 l 1,7,-1
 216 1096 l 1,8,-1
 216 1137 l 2,9,10
 216 1352 216 1352 291.5 1450.5 c 128,-1,11
 367 1549 367 1549 523 1549 c 0,12,13
 576 1549 576 1549 676 1534 c 1,14,-1
 667 1452 l 1,15,16
 570 1463 570 1463 537 1463 c 0,17,18
 423 1463 423 1463 381.5 1389.5 c 128,-1,19
 340 1316 340 1316 340 1131 c 2,20,-1
 340 1096 l 1,21,-1
 749 1096 l 1,22,-1
 749 1137 l 2,23,24
 749 1352 749 1352 824.5 1450.5 c 128,-1,25
 900 1549 900 1549 1056 1549 c 0,26,27
 1109 1549 1109 1549 1209 1534 c 1,28,-1
 1200 1452 l 1,29,30
 1103 1463 1103 1463 1070 1463 c 0,31,32
 956 1463 956 1463 914.5 1389.5 c 128,-1,33
 873 1316 873 1316 873 1131 c 2,34,-1
 873 1096 l 1,35,-1
 1140 1096 l 1,36,-1
 1140 1005 l 1,37,-1
 873 1005 l 1,38,-1
 873 0 l 1,39,-1
 749 0 l 1,0,-1
EndSplineSet
Ligature2: "'liga' Standard Ligatures lookup 0 subtable" f f
EndChar

StartChar: uniFB03
Encoding: 64259 64259 385
Width: 1721
GlyphClass: 3
Flags: W
LayerCount: 2
Fore
SplineSet
1445 1320 m 1,0,-1
 1445 1488 l 1,1,-1
 1569 1488 l 1,2,-1
 1569 1320 l 1,3,-1
 1445 1320 l 1,0,-1
216 0 m 1,4,-1
 216 1005 l 1,5,-1
 36 1005 l 1,6,-1
 44 1082 l 1,7,-1
 216 1096 l 1,8,-1
 216 1137 l 2,9,10
 216 1352 216 1352 291.5 1450.5 c 128,-1,11
 367 1549 367 1549 523 1549 c 0,12,13
 576 1549 576 1549 676 1534 c 1,14,-1
 667 1452 l 1,15,16
 570 1463 570 1463 537 1463 c 0,17,18
 423 1463 423 1463 381.5 1389.5 c 128,-1,19
 340 1316 340 1316 340 1131 c 2,20,-1
 340 1096 l 1,21,-1
 854 1096 l 1,22,-1
 854 1137 l 2,23,24
 854 1352 854 1352 929.5 1450.5 c 128,-1,25
 1005 1549 1005 1549 1161 1549 c 0,26,27
 1214 1549 1214 1549 1314 1534 c 1,28,-1
 1305 1452 l 1,29,30
 1208 1463 1208 1463 1175 1463 c 0,31,32
 1061 1463 1061 1463 1019.5 1389.5 c 128,-1,33
 978 1316 978 1316 978 1131 c 2,34,-1
 978 1096 l 1,35,-1
 1570 1096 l 1,36,-1
 1570 0 l 1,37,-1
 1445 0 l 1,38,-1
 1445 1005 l 1,39,-1
 978 1005 l 1,40,-1
 978 0 l 1,41,-1
 854 0 l 1,42,-1
 854 1005 l 1,43,-1
 340 1005 l 1,44,-1
 340 0 l 1,45,-1
 216 0 l 1,4,-1
EndSplineSet
Ligature2: "'liga' Standard Ligatures lookup 0 subtable" f f i
EndChar

StartChar: uniFB04
Encoding: 64260 64260 386
Width: 1838
GlyphClass: 3
Flags: W
LayerCount: 2
Fore
SplineSet
1680 -23 m 0,0,1
 1542 -23 1542 -23 1478 39.5 c 128,-1,2
 1414 102 1414 102 1414 243 c 2,3,-1
 1414 1439 l 1,4,5
 1193 1463 1193 1463 1156 1463 c 0,6,7
 1042 1463 1042 1463 1000.5 1389.5 c 128,-1,8
 959 1316 959 1316 959 1131 c 2,9,-1
 959 1096 l 1,10,-1
 1226 1096 l 1,11,-1
 1226 1005 l 1,12,-1
 959 1005 l 1,13,-1
 959 0 l 1,14,-1
 835 0 l 1,15,-1
 835 1005 l 1,16,-1
 340 1005 l 1,17,-1
 340 0 l 1,18,-1
 216 0 l 1,19,-1
 216 1005 l 1,20,-1
 36 1005 l 1,21,-1
 44 1082 l 1,22,-1
 216 1096 l 1,23,-1
 216 1137 l 2,24,25
 216 1352 216 1352 291.5 1450.5 c 128,-1,26
 367 1549 367 1549 523 1549 c 0,27,28
 576 1549 576 1549 676 1534 c 1,29,-1
 667 1452 l 1,30,31
 570 1463 570 1463 536 1463 c 0,32,33
 422 1463 422 1463 381 1389.5 c 128,-1,34
 340 1316 340 1316 340 1131 c 2,35,-1
 340 1096 l 1,36,-1
 835 1096 l 1,37,-1
 835 1137 l 2,38,39
 835 1352 835 1352 910.5 1450.5 c 128,-1,40
 986 1549 986 1549 1142 1549 c 0,41,42
 1212 1549 1212 1549 1282 1540 c 128,-1,43
 1352 1531 1352 1531 1381 1527.5 c 128,-1,44
 1410 1524 1410 1524 1468.5 1515 c 128,-1,45
 1527 1506 1527 1506 1536 1505 c 1,46,-1
 1536 250 l 2,47,48
 1536 150 1536 150 1572.5 112 c 128,-1,49
 1609 74 1609 74 1676 74 c 128,-1,50
 1743 74 1743 74 1833 97 c 1,51,-1
 1838 1 l 1,52,53
 1740 -23 1740 -23 1680 -23 c 0,0,1
EndSplineSet
Ligature2: "'liga' Standard Ligatures lookup 0 subtable" f f l
EndChar

StartChar: foundryicon
Encoding: 65539 -1 387
Width: 1351
GlyphClass: 2
Flags: W
LayerCount: 2
Fore
SplineSet
675 1338 m 1,0,-1
 820 893 l 1,1,-1
 1288 893 l 1,2,-1
 909 618 l 1,3,-1
 1054 173 l 1,4,-1
 675 448 l 1,5,-1
 297 173 l 1,6,-1
 442 618 l 1,7,-1
 63 893 l 1,8,-1
 531 893 l 1,9,-1
 675 1338 l 1,0,-1
EndSplineSet
EndChar

StartChar: lcaron
Encoding: 318 318 388
Width: 581
GlyphClass: 2
Flags: W
LayerCount: 2
Fore
SplineSet
734 1082 m 1,0,-1
 872 1532 l 1,1,-1
 1008 1532 l 1,2,-1
 838 1082 l 1,3,-1
 734 1082 l 1,0,-1
423 -18 m 0,4,5
 284 -18 284 -18 220.5 42.5 c 128,-1,6
 157 103 157 103 157 243 c 2,7,-1
 157 1522 l 1,8,-1
 279 1532 l 1,9,-1
 279 250 l 2,10,11
 279 151 279 151 315 115 c 0,12,13
 350 79 350 79 428 79 c 128,-1,14
 506 79 506 79 576 97 c 1,15,-1
 581 1 l 1,16,17
 503 -18 503 -18 423 -18 c 0,4,5
EndSplineSet
EndChar

StartChar: approxequal
Encoding: 8776 8776 393
Width: 1315
GlyphClass: 2
Flags: W
LayerCount: 2
Fore
SplineSet
140 367 m 1,0,1
 159 521 159 521 234 603.5 c 128,-1,2
 309 686 309 686 429 686 c 0,3,4
 510 686 510 686 602 635 c 0,5,6
 649 609 649 609 704.5 572 c 128,-1,7
 760 535 760 535 775 526.5 c 128,-1,8
 790 518 790 518 814 505 c 0,9,10
 859 481 859 481 894 481 c 0,11,12
 1021 481 1021 481 1056 684 c 1,13,-1
 1161 711 l 1,14,15
 1141 548 1141 548 1083.5 471 c 128,-1,16
 1026 394 1026 394 907 394 c 128,-1,17
 788 394 788 394 616 510 c 1,18,19
 498 594 498 594 427 594 c 128,-1,20
 356 594 356 594 312.5 545 c 128,-1,21
 269 496 269 496 246 398 c 1,22,-1
 140 367 l 1,0,1
137 758 m 1,23,24
 155 910 155 910 231.5 993 c 128,-1,25
 308 1076 308 1076 428 1076 c 0,26,27
 489 1076 489 1076 546 1049.5 c 128,-1,28
 603 1023 603 1023 682.5 968.5 c 128,-1,29
 762 914 762 914 807 892.5 c 128,-1,30
 852 871 852 871 892 871 c 0,31,32
 1019 871 1019 871 1052 1073 c 1,33,-1
 1158 1103 l 1,34,35
 1139 942 1139 942 1079.5 865 c 128,-1,36
 1020 788 1020 788 899 788 c 128,-1,37
 778 788 778 788 637 887.5 c 128,-1,38
 496 987 496 987 424 987 c 0,39,40
 284 987 284 987 246 796 c 1,41,-1
 137 758 l 1,23,24
EndSplineSet
EndChar

StartChar: dagger
Encoding: 8224 8224 394
Width: 861
GlyphClass: 2
Flags: W
LayerCount: 2
Fore
SplineSet
378 1 m 1,0,-1
 378 968 l 1,1,-1
 89 968 l 1,2,-1
 89 1047 l 1,3,-1
 378 1047 l 1,4,-1
 378 1488 l 1,5,-1
 477 1488 l 1,6,-1
 477 1047 l 1,7,-1
 772 1047 l 1,8,-1
 772 968 l 1,9,-1
 482 968 l 1,10,-1
 482 1 l 1,11,-1
 378 1 l 1,0,-1
EndSplineSet
EndChar

StartChar: florin
Encoding: 402 402 396
Width: 943
GlyphClass: 2
Flags: W
LayerCount: 2
Fore
SplineSet
164 -352.5 m 128,-1,1
 135 -359 135 -359 93.5 -359 c 128,-1,2
 52 -359 52 -359 11 -335 c 1,3,-1
 34 -247 l 1,4,5
 63 -260 63 -260 96 -260 c 0,6,7
 202 -260 202 -260 250 -11 c 1,8,-1
 410 955 l 1,9,-1
 242 955 l 1,10,-1
 251 1046 l 1,11,-1
 432 1046 l 1,12,-1
 460 1231 l 2,13,14
 500 1494 500 1494 624 1560 c 0,15,16
 678 1588 678 1588 739.5 1588 c 128,-1,17
 801 1588 801 1588 865 1568 c 1,18,-1
 858 1471 l 1,19,20
 807 1491 807 1491 750 1491 c 128,-1,21
 693 1491 693 1491 650 1435 c 128,-1,22
 607 1379 607 1379 593 1287 c 2,23,-1
 556 1046 l 1,24,-1
 759 1046 l 1,25,-1
 749 956 l 1,26,-1
 538 956 l 1,27,-1
 393 84 l 2,28,29
 364 -89 364 -89 349 -136 c 128,-1,30
 334 -183 334 -183 320.5 -214.5 c 128,-1,31
 307 -246 307 -246 292.5 -266 c 128,-1,32
 278 -286 278 -286 258.5 -305.5 c 128,-1,33
 239 -325 239 -325 216 -335.5 c 128,-1,0
 193 -346 193 -346 164 -352.5 c 128,-1,1
EndSplineSet
EndChar

StartChar: greaterequal
Encoding: 8805 8805 397
Width: 1164
GlyphClass: 2
Flags: W
LayerCount: 2
Fore
SplineSet
144 240 m 1,0,-1
 144 365 l 1,1,-1
 935 774 l 1,2,-1
 149 1217 l 1,3,-1
 149 1341 l 1,4,-1
 1051 809 l 1,5,-1
 1051 741 l 1,6,-1
 144 240 l 1,0,-1
109 12 m 1,7,-1
 109 130 l 1,8,-1
 1073 131 l 1,9,-1
 1073 12 l 1,10,-1
 109 12 l 1,7,-1
EndSplineSet
EndChar

StartChar: infinity
Encoding: 8734 8734 398
Width: 1811
GlyphClass: 2
Flags: W
LayerCount: 2
Fore
SplineSet
1585.5 913.5 m 128,-1,1
 1678 810 1678 810 1678 636.5 c 128,-1,2
 1678 463 1678 463 1578 361 c 128,-1,3
 1478 259 1478 259 1323 259 c 0,4,5
 1212 259 1212 259 1113 327 c 128,-1,6
 1014 395 1014 395 909 535 c 1,7,8
 809 403 809 403 709.5 331 c 128,-1,9
 610 259 610 259 493 259 c 0,10,11
 328 259 328 259 231.5 373.5 c 128,-1,12
 135 488 135 488 135 648 c 128,-1,13
 135 808 135 808 237.5 912.5 c 128,-1,14
 340 1017 340 1017 474 1017 c 128,-1,15
 608 1017 608 1017 707 944.5 c 128,-1,16
 806 872 806 872 909 735 c 1,17,18
 973 822 973 822 1030 880 c 128,-1,19
 1087 938 1087 938 1165 977.5 c 128,-1,20
 1243 1017 1243 1017 1326 1017 c 0,21,0
 1493 1017 1493 1017 1585.5 913.5 c 128,-1,1
495 361 m 0,22,23
 662 361 662 361 848 636 c 1,24,25
 673 913 673 913 487 913 c 0,26,27
 373 913 373 913 310 833 c 128,-1,28
 247 753 247 753 247 641 c 128,-1,29
 247 529 247 529 313 445 c 128,-1,30
 379 361 379 361 495 361 c 0,22,23
1321 913 m 0,31,32
 1157 913 1157 913 972 638 c 1,33,34
 1074 498 1074 498 1155.5 429.5 c 128,-1,35
 1237 361 1237 361 1319.5 361 c 0,36,37
 1402 360 1402 360 1459 402 c 0,38,39
 1569 482 1569 482 1569 640 c 0,40,41
 1569 752 1569 752 1504 832.5 c 128,-1,42
 1439 913 1439 913 1321 913 c 0,31,32
EndSplineSet
EndChar

StartChar: lessequal
Encoding: 8804 8804 399
Width: 1164
GlyphClass: 2
Flags: W
LayerCount: 2
Fore
SplineSet
1022 237 m 1,0,-1
 124 736 l 1,1,-1
 124 809 l 1,2,-1
 1022 1338 l 1,3,-1
 1022 1214 l 1,4,-1
 239 780 l 1,5,-1
 1022 362 l 1,6,-1
 1022 237 l 1,0,-1
84 12 m 1,7,-1
 84 131 l 1,8,-1
 1056 130 l 1,9,-1
 1056 12 l 1,10,-1
 84 12 l 1,7,-1
EndSplineSet
EndChar

StartChar: lozenge
Encoding: 9674 9674 400
Width: 1103
GlyphClass: 2
Flags: W
LayerCount: 2
Fore
SplineSet
496 -49 m 1,0,-1
 82 791 l 1,1,-1
 503 1635 l 1,2,-1
 605 1635 l 1,3,-1
 1019 794 l 1,4,-1
 596 -49 l 1,5,-1
 496 -49 l 1,0,-1
557 1502 m 1,6,-1
 184 793 l 1,7,8
 224 714 224 714 348.5 462.5 c 128,-1,9
 473 211 473 211 544 77 c 1,10,11
 642 263 642 263 916 791 c 1,12,13
 902 819 902 819 764.5 1089 c 128,-1,14
 627 1359 627 1359 557 1502 c 1,6,-1
EndSplineSet
EndChar

StartChar: notequal
Encoding: 8800 8800 401
Width: 1135
GlyphClass: 2
Flags: W
LayerCount: 2
Fore
SplineSet
337 50 m 1,0,-1
 247 68 l 1,1,-1
 364 378 l 1,2,-1
 106 378 l 1,3,-1
 100 479 l 1,4,-1
 420 479 l 1,5,-1
 586 823 l 1,6,-1
 106 823 l 1,7,-1
 98 930 l 1,8,-1
 636 930 l 1,9,-1
 779 1243 l 1,10,-1
 871 1231 l 1,11,-1
 755 931 l 1,12,-1
 1032 931 l 1,13,-1
 1039 823 l 1,14,-1
 706 823 l 1,15,-1
 535 479 l 1,16,-1
 1034 479 l 1,17,-1
 1039 378 l 1,18,-1
 484 378 l 1,19,-1
 337 50 l 1,0,-1
EndSplineSet
EndChar

StartChar: perthousand
Encoding: 8240 8240 402
Width: 2562
GlyphClass: 2
Flags: W
LayerCount: 2
Fore
SplineSet
1594.5 107.5 m 128,-1,1
 1506 0 1506 0 1341.5 0 c 128,-1,2
 1177 0 1177 0 1088 107 c 128,-1,3
 999 214 999 214 999 385.5 c 128,-1,4
 999 557 999 557 1086.5 663 c 128,-1,5
 1174 769 1174 769 1341 769 c 128,-1,6
 1508 769 1508 769 1595.5 663 c 128,-1,7
 1683 557 1683 557 1683 386 c 128,-1,0
 1683 215 1683 215 1594.5 107.5 c 128,-1,1
1342 685 m 0,8,9
 1106 685 1106 685 1106 384 c 0,10,11
 1106 161 1106 161 1247 101 c 0,12,13
 1289 83 1289 83 1348 83 c 128,-1,14
 1407 83 1407 83 1454.5 109.5 c 128,-1,15
 1502 136 1502 136 1528 182 c 0,16,17
 1576 269 1576 269 1576 384 c 0,18,19
 1576 504 1576 504 1530 588 c 0,20,21
 1478 684 1478 684 1342 685 c 0,8,9
645.5 826.5 m 128,-1,23
 557 719 557 719 392.5 719 c 128,-1,24
 228 719 228 719 139 826 c 128,-1,25
 50 933 50 933 50 1104.5 c 128,-1,26
 50 1276 50 1276 137.5 1382 c 128,-1,27
 225 1488 225 1488 392 1488 c 128,-1,28
 559 1488 559 1488 646.5 1382 c 128,-1,29
 734 1276 734 1276 734 1105 c 128,-1,22
 734 934 734 934 645.5 826.5 c 128,-1,23
393 1404 m 0,30,31
 157 1404 157 1404 157 1103 c 0,32,33
 157 880 157 880 298 820 c 0,34,35
 340 802 340 802 399 802 c 128,-1,36
 458 802 458 802 505.5 828.5 c 0,37,38
 552 854 552 854 578 900 c 0,39,40
 626 987 626 987 627 1103 c 0,41,42
 628 1224 628 1224 582 1308 c 0,43,44
 530 1404 530 1404 393 1404 c 0,30,31
2400.5 107.5 m 128,-1,46
 2312 0 2312 0 2147.5 0 c 128,-1,47
 1983 0 1983 0 1894 107 c 128,-1,48
 1805 214 1805 214 1805 385.5 c 128,-1,49
 1805 557 1805 557 1892.5 663 c 128,-1,50
 1980 769 1980 769 2147 769 c 128,-1,51
 2314 769 2314 769 2401.5 663 c 128,-1,52
 2489 557 2489 557 2489 386 c 128,-1,45
 2489 215 2489 215 2400.5 107.5 c 128,-1,46
2148 685 m 0,53,54
 1912 685 1912 685 1912 384 c 0,55,56
 1912 161 1912 161 2053 101 c 0,57,58
 2095 83 2095 83 2154 83 c 128,-1,59
 2213 83 2213 83 2260.5 109.5 c 128,-1,60
 2308 136 2308 136 2334 182 c 0,61,62
 2382 269 2382 269 2382 384 c 0,63,64
 2382 504 2382 504 2336 588 c 0,65,66
 2284 684 2284 684 2148 685 c 0,53,54
392 0 m 1,67,-1
 1207 1488 l 1,68,-1
 1334 1488 l 1,69,-1
 512 0 l 1,70,-1
 392 0 l 1,67,-1
EndSplineSet
EndChar

StartChar: uni0307
Encoding: 775 775 403
Width: 364
GlyphClass: 2
Flags: W
LayerCount: 2
Fore
SplineSet
115 1357 m 1,0,-1
 115 1525 l 1,1,-1
 282 1525 l 1,2,-1
 282 1357 l 1,3,-1
 115 1357 l 1,0,-1
EndSplineSet
EndChar

StartChar: fj
Encoding: 65540 -1 404
Width: 1170
GlyphClass: 3
Flags: W
LayerCount: 2
Fore
SplineSet
923 1321 m 1,0,-1
 923 1488 l 1,1,-1
 1048 1488 l 1,2,-1
 1048 1321 l 1,3,-1
 923 1321 l 1,0,-1
704 -550 m 1,4,-1
 685 -450 l 1,5,-1
 734 -450 l 2,6,7
 804 -450 804 -450 843 -439.5 c 128,-1,8
 882 -429 882 -429 899.5 -394.5 c 128,-1,9
 917 -360 917 -360 920 -328.5 c 128,-1,10
 923 -297 923 -297 923 -259 c 2,11,12
 923 1005 l 1,13,-1
 340 1005 l 1,14,-1
 340 0 l 1,15,-1
 216 0 l 1,16,-1
 216 1005 l 1,17,-1
 36 1005 l 1,18,-1
 44 1082 l 1,19,-1
 216 1096 l 1,20,-1
 216 1137 l 2,21,22
 216 1352 216 1352 291.5 1450.5 c 128,-1,23
 367 1549 367 1549 523 1549 c 0,24,25
 576 1549 576 1549 676 1534 c 1,26,-1
 667 1452 l 1,27,28
 570 1463 570 1463 537 1463 c 0,29,30
 423 1463 423 1463 381.5 1389.5 c 128,-1,31
 340 1316 340 1316 340 1131 c 2,32,-1
 340 1096 l 1,33,-1
 1048 1096 l 1,34,-1
 1048 -247 l 2,35,36
 1048 -341 1048 -341 1035.5 -397 c 128,-1,37
 1023 -453 1023 -453 988.5 -488.5 c 128,-1,38
 954 -524 954 -524 899.5 -537 c 128,-1,39
 845 -550 845 -550 753 -550 c 2,40,-1
 704 -550 l 1,4,-1
EndSplineSet
Ligature2: "'liga' Standard Ligatures lookup 0 subtable" f j
EndChar

StartChar: commaaccentcomb
Encoding: 65542 -1 406
Width: 554
GlyphClass: 2
Flags: W
LayerCount: 2
Fore
SplineSet
164 -648 m 1,0,-1
 263 -145 l 1,1,-1
 404 -145 l 1,2,-1
 241 -648 l 1,3,-1
 164 -648 l 1,0,-1
EndSplineSet
EndChar

StartChar: middot
Encoding: 65543 -1 407
Width: 468
GlyphClass: 2
Flags: W
LayerCount: 2
Fore
SplineSet
150 561 m 1,0,-1
 150 759 l 1,1,-1
 318 759 l 1,2,-1
 318 561 l 1,3,-1
 150 561 l 1,0,-1
EndSplineSet
EndChar

